<svg xmlns="http://www.w3.org/2000/svg" id="Layer_2" data-name="Layer 2" viewBox="0 0 1080 968.8"><defs><clipPath id="clippath"><path d="m97 313 44 617c2 25 23 43 45 38l865-195c18-4 30-22 29-43l-42-594c-2-25-23-43-45-38L122 276c-15 4-26 19-25 37Z" style="fill:none"/></clipPath><style>.cls-5{fill:#dd3321}.cls-6{fill:#cc62a2}</style></defs><g id="Layer_1-2" data-name="Layer 1"><path d="m0 255 44 618c1 24 23 42 45 37l864-195c19-4 31-22 30-43L941 78c-2-25-23-42-45-38L25 219c-15 3-26 18-25 36Z" class="cls-5"/><path d="m1 255 43 618c2 25 24 43 46 38l864-195c18-4 31-23 30-43L942 78c-2-24-23-42-45-37L26 219c-16 3-26 19-25 36Z" class="cls-5"/><path d="m2 256 43 617c2 25 23 43 46 38l864-195c18-4 31-22 29-43L942 79c-1-25-22-43-44-38L27 220c-16 3-27 18-25 36Z" class="cls-5"/><path d="m3 256 43 618c2 25 23 43 45 38l865-195c18-4 31-23 29-43L943 79c-1-24-22-42-44-38L28 220c-16 3-27 19-26 36Z" class="cls-5"/><path d="m3 257 44 617c2 25 23 43 45 38l865-195c18-4 30-22 29-43L944 80c-2-25-23-43-45-38L28 221c-15 3-26 18-25 36Z" class="cls-5"/><path d="m4 257 44 618c1 25 23 43 45 38l864-195c19-4 31-23 30-43L945 80c-2-24-23-42-45-38L29 221c-15 3-26 19-25 36Z" class="cls-5"/><path d="m5 258 43 617c2 25 24 43 46 38l864-195c19-4 31-22 30-43L946 81c-2-25-23-43-45-38L30 222c-16 3-26 18-25 36Z" class="cls-5"/><path d="m6 258 43 618c2 25 23 42 46 37l864-194c18-4 31-23 29-43L946 81c-1-25-22-42-44-38L31 222c-16 3-27 19-25 36Z" class="cls-5"/><path d="m7 259 43 617c2 25 23 43 45 38l865-195c18-4 31-22 29-43L947 82c-1-25-22-43-44-38L32 222c-16 4-27 19-25 37Z" class="cls-5"/><path d="m7 259 44 618c2 25 23 42 45 37l865-194c18-5 30-23 29-43L948 82c-2-25-23-42-45-38L32 223c-15 3-26 19-25 36Z" class="cls-5"/><path d="m8 260 44 617c1 25 23 43 45 38l864-195c19-4 31-22 30-43L949 83c-2-25-23-43-45-38L33 223c-15 4-26 19-25 37Z" class="cls-5"/><path d="m9 260 43 618c2 25 24 42 46 37l864-195c19-4 31-22 30-42L950 83c-2-25-23-42-45-38L34 224c-16 3-26 19-25 36Z" class="cls-5"/><path d="m10 260 43 618c2 25 23 43 46 38l864-195c18-4 31-22 29-43L950 83c-1-24-22-42-44-37L35 224c-16 4-26 19-25 36Z" class="cls-5"/><path d="m11 261 43 618c2 25 23 42 45 37l865-195c18-4 31-22 29-43L951 84c-1-25-22-42-44-38L36 225c-16 3-27 19-25 36Z" class="cls-5"/><path d="m11 261 44 618c2 25 23 43 45 38l865-195c18-4 30-23 29-43L952 84c-2-24-23-42-45-37L36 225c-15 3-26 19-25 36Z" class="cls-5"/><path d="m12 262 44 618c1 24 23 42 45 37l864-195c19-4 31-22 30-43L953 85c-2-25-23-42-45-38L37 226c-15 3-26 18-25 36Z" class="cls-5"/><path d="m13 262 43 618c2 25 24 43 46 38l864-195c19-4 31-23 30-43L954 85c-2-24-23-42-45-38L38 226c-16 3-26 19-25 36Z" class="cls-5"/><path d="m14 263 43 617c2 25 23 43 46 38l864-195c18-4 31-22 29-43L954 86c-1-25-22-43-44-38L39 227c-16 3-26 18-25 36Z" class="cls-5"/><path d="m15 263 43 618c2 25 23 43 45 38l865-195c18-4 31-23 29-43L955 86c-1-24-22-42-44-38L40 227c-16 3-27 19-25 36Z" class="cls-5"/><path d="m15 264 44 617c2 25 23 43 45 38l865-195c18-4 30-22 29-43L956 87c-2-25-23-43-45-38L40 228c-15 3-26 18-25 36Z" class="cls-5"/><path d="m16 264 44 618c1 25 23 43 45 38l864-195c19-4 31-23 30-43L957 87c-2-24-23-42-45-38L41 228c-15 3-26 19-25 36Z" class="cls-5"/><path d="m17 265 43 617c2 25 24 43 46 38l864-195c19-4 31-22 30-43L958 88c-2-25-23-43-45-38L42 229c-15 3-26 18-25 36Z" class="cls-5"/><path d="m18 265 43 618c2 25 23 42 46 37l864-194c18-5 31-23 29-43L958 88c-1-25-22-42-44-38L43 229c-16 3-26 19-25 36Z" class="cls-5"/><path d="m19 266 43 617c2 25 23 43 45 38l865-195c18-4 31-22 29-43L959 89c-1-25-22-43-44-38L44 229c-16 4-27 19-25 37Z" class="cls-5"/><path d="m19 266 44 618c2 25 23 42 45 37l865-194c18-5 30-23 29-43L960 89c-2-25-23-42-45-38L44 230c-15 3-26 19-25 36Z" class="cls-5"/><path d="m20 267 44 617c1 25 23 43 45 38l864-195c19-4 31-22 30-43L961 89c-2-24-23-42-45-37L45 230c-15 4-26 19-25 37Z" class="cls-5"/><path d="m21 267 44 618c1 25 23 42 45 37l864-195c19-4 31-22 30-42L962 90c-2-25-23-42-45-38L46 231c-15 3-26 19-25 36Z" class="cls-5"/><path d="m22 267 43 618c2 25 23 43 46 38l864-195c18-4 31-23 29-43L962 90c-1-24-22-42-44-37L47 231c-16 4-26 19-25 36Z" class="cls-5"/><path d="m23 268 43 618c2 24 23 42 45 37l865-195c18-4 31-22 29-43L963 91c-1-25-22-42-44-38L48 232c-16 3-27 18-25 36Z" class="cls-5"/><path d="m23 268 44 618c2 25 23 43 45 38l865-195c18-4 30-23 29-43L964 91c-2-24-23-42-45-37L48 232c-15 3-26 19-25 36Z" class="cls-5"/><path d="m24 269 44 618c1 24 23 42 45 37l865-195c18-4 30-22 29-43L965 92c-2-25-23-43-45-38L49 233c-15 3-26 18-25 36Z" class="cls-5"/><path d="m25 269 44 618c1 25 23 43 45 38l864-195c19-4 31-23 30-43L966 92c-2-24-23-42-45-38L50 233c-15 3-26 19-25 36Z" class="cls-5"/><path d="m26 270 43 617c2 25 23 43 46 38l864-195c18-4 31-22 29-43L967 93c-2-25-23-43-45-38L51 234c-16 3-26 18-25 36Z" class="cls-5"/><path d="m27 270 43 618c2 25 23 43 45 38l865-195c18-4 31-23 29-43L967 93c-1-24-22-42-44-38L52 234c-16 3-27 19-25 36Z" class="cls-5"/><path d="m27 271 44 617c2 25 23 43 45 38l865-195c18-4 30-22 29-43L968 94c-2-25-23-43-45-38L53 235c-16 3-27 18-26 36Z" class="cls-5"/><path d="m28 271 44 618c1 25 23 43 45 38l865-195c18-4 30-23 29-43L969 94c-2-24-23-42-45-38L53 235c-15 3-26 19-25 36Z" class="cls-5"/><path d="m29 272 44 617c1 25 23 43 45 38l864-195c19-4 31-22 30-43L970 95c-2-25-23-43-45-38L54 236c-15 3-26 18-25 36Z" class="cls-5"/><path d="m30 272 43 618c2 25 23 42 46 37l864-194c18-5 31-23 29-43L971 95c-2-25-23-42-45-38L55 236c-16 3-26 19-25 36Z" class="cls-5"/><path d="m31 273 43 617c2 25 23 43 45 38l865-195c18-4 31-22 29-43L971 96c-1-25-22-43-44-38L56 236c-16 4-27 19-25 37Z" class="cls-5"/><path d="m31 273 44 618c2 25 23 42 45 37l865-194c18-5 30-23 29-43L972 96c-2-25-23-42-45-38L57 237c-16 3-27 19-26 36Z" class="cls-5"/><path d="m32 274 44 617c1 25 23 43 45 38l865-195c18-4 30-22 29-43L973 96c-2-24-23-42-45-37L57 237c-15 4-26 19-25 37Z" class="cls-5"/><path d="m33 274 44 618c1 25 23 42 45 37l864-195c19-4 31-22 30-42L974 97c-2-25-23-42-45-38L58 238c-15 3-26 19-25 36Z" class="cls-5"/><path d="m34 274 43 618c2 25 23 43 46 38l864-195c18-4 31-23 29-43L975 97c-2-24-23-42-45-37L59 238c-16 4-26 19-25 36Z" class="cls-5"/><path d="m35 275 43 618c2 24 23 42 45 37l865-195c18-4 31-22 29-43L975 98c-1-25-22-42-44-38L60 239c-16 3-27 18-25 36Z" class="cls-5"/><path d="m35 275 44 618c2 25 23 43 45 38l865-195c18-4 30-23 29-43L976 98c-2-24-23-42-45-37L61 239c-16 3-27 19-26 36Z" class="cls-5"/><path d="m36 276 44 618c1 24 23 42 45 37l865-195c18-4 30-22 29-43L977 99c-2-25-23-43-45-38L61 240c-15 3-26 18-25 36Z" class="cls-5"/><path d="m37 276 44 618c1 25 23 43 45 38l864-195c19-4 31-23 30-43L978 99c-2-24-23-42-45-38L62 240c-15 3-26 19-25 36Z" class="cls-5"/><path d="m38 277 43 617c2 25 23 43 46 38l864-195c18-4 31-22 29-43l-41-594c-2-25-23-43-45-38L63 241c-16 3-26 18-25 36Z" class="cls-5"/><path d="m39 277 43 618c2 25 23 43 45 38l865-195c18-4 31-23 29-43l-42-595c-1-24-22-42-44-38L64 241c-16 3-27 19-25 36Z" class="cls-5"/><path d="m39 278 44 617c2 25 23 43 45 38l865-195c18-4 31-22 29-43l-42-594c-2-25-22-43-45-38L65 242c-16 3-27 18-26 36Z" class="cls-5"/><path d="m40 278 44 618c2 25 23 43 45 38l865-195c18-4 30-23 29-43l-42-595c-2-24-23-42-45-38L65 242c-15 3-26 19-25 36Z" class="cls-5"/><path d="m41 279 44 617c1 25 23 43 45 38l864-195c19-4 31-22 30-43l-42-594c-2-25-23-43-45-38L66 242c-15 4-26 19-25 37Z" class="cls-5"/><path d="m42 279 43 618c2 25 23 42 46 37l864-194c18-5 31-23 29-43l-41-595c-2-25-23-42-45-38L67 243c-16 3-26 19-25 36Z" class="cls-5"/><path d="m43 280 43 617c2 25 23 43 45 38l865-195c18-4 31-22 29-43l-42-594c-1-25-22-43-44-38L68 243c-16 4-27 19-25 37Z" class="cls-5"/><path d="m43 280 44 618c2 25 23 42 45 37l865-194c18-5 31-23 29-43l-42-595c-2-25-22-42-45-38L70 244c-16 3-27 19-26 36Z" class="cls-5"/><path d="m44 280 44 618c2 25 23 43 45 38l865-195c18-4 30-22 29-43l-42-595c-2-24-23-42-45-37L69 244c-15 4-26 19-25 36Z" class="cls-5"/><path d="m45 281 44 618c1 25 23 42 45 37l864-195c19-4 31-22 30-42l-42-595c-2-25-23-42-45-38L70 245c-15 3-26 19-25 36Z" class="cls-5"/><path d="m46 281 43 618c2 25 23 43 46 38l864-195c18-4 31-23 29-43l-41-595c-2-24-23-42-45-37L71 245c-16 3-26 19-25 36Z" class="cls-5"/><path d="m47 282 43 618c2 24 23 42 45 37l865-195c18-4 31-22 29-43l-42-594c-1-25-22-42-44-38L72 246c-16 3-27 18-25 36Z" class="cls-5"/><path d="m47 282 44 618c2 25 23 43 45 38l865-195c18-4 31-23 29-43l-42-595c-2-24-22-42-44-37L73 246c-16 3-27 19-26 36Z" class="cls-5"/><path d="m48 283 44 617c2 25 23 43 45 38l865-195c18-4 30-22 29-43l-42-594c-2-25-23-43-45-38L73 247c-15 3-26 18-25 36Z" class="cls-5"/><path d="m49 283 44 618c1 25 23 43 45 38l864-195c19-4 31-23 30-43l-42-595c-2-24-23-42-45-38L74 247c-15 3-26 19-25 36Z" class="cls-5"/><path d="m50 284 43 617c2 25 23 43 46 38l864-195c18-4 31-22 29-43l-41-594c-2-25-23-43-45-38L75 248c-16 3-26 18-25 36Z" class="cls-5"/><path d="m51 284 43 618c2 25 23 43 45 38l865-195c18-4 31-23 29-43l-42-595c-1-24-22-42-44-38L76 248c-16 3-27 19-25 36Z" class="cls-5"/><path d="m51 285 44 617c2 25 23 43 45 38l865-195c18-4 31-22 29-43l-42-594c-2-25-22-43-44-38L77 249c-16 3-27 18-26 36Z" class="cls-5"/><path d="m52 285 44 618c2 25 23 42 45 37l865-194c18-4 30-23 29-43l-42-595c-2-25-23-42-45-38L77 249c-15 3-26 19-25 36Z" class="cls-5"/><path d="m53 286 44 617c1 25 23 43 45 38l864-195c19-4 31-22 30-43l-42-594c-2-25-23-43-45-38L78 249c-15 4-26 19-25 37Z" class="cls-5"/><path d="m54 286 43 618c2 25 23 42 46 37l864-194c18-5 31-23 29-43l-41-595c-2-25-23-42-45-38L79 250c-16 3-26 19-25 36Z" class="cls-5"/><path d="m55 287 43 617c2 25 23 43 45 38l865-195c18-4 31-22 29-43l-42-594c-1-25-22-43-44-38L80 250c-16 4-27 19-25 37Z" class="cls-5"/><path d="m55 287 44 618c2 25 23 42 45 37l865-195c18-4 31-22 29-42l-42-595c-2-25-22-42-44-38L81 251c-16 3-27 19-26 36Z" class="cls-5"/><path d="m56 287 44 618c2 25 23 43 45 38l865-195c18-4 30-22 29-43l-42-595c-2-24-23-42-45-37L81 251c-15 4-26 19-25 36Z" class="cls-5"/><path d="m57 288 44 618c1 25 23 42 45 37l864-195c19-4 31-22 30-43l-42-594c-2-25-23-42-45-38L82 252c-15 3-26 19-25 36Z" class="cls-5"/><path d="m58 288 43 618c2 25 24 43 46 38l864-195c18-4 31-23 30-43l-42-595c-2-24-23-42-45-37L83 252c-16 3-26 19-25 36Z" class="cls-5"/><path d="m59 289 43 618c2 24 23 42 45 37l865-195c18-4 31-22 29-43l-42-594c-1-25-22-42-44-38L84 253c-16 3-27 18-25 36Z" class="cls-5"/><path d="m59 289 44 618c2 25 23 43 45 38l865-195c18-4 31-23 29-43l-42-595c-2-24-22-42-44-38L85 253c-16 3-27 19-26 36Z" class="cls-5"/><path d="m60 290 44 617c2 25 23 43 45 38l865-195c18-4 30-22 29-43l-42-594c-2-25-23-43-45-38L85 254c-15 3-26 18-25 36Z" class="cls-5"/><path d="m61 290 44 618c1 25 23 43 45 38l864-195c19-4 31-23 30-43l-42-595c-2-24-23-42-45-38L86 254c-15 3-26 19-25 36Z" class="cls-5"/><path d="m62 291 43 617c2 25 24 43 46 38l864-195c18-4 31-22 30-43l-42-594c-2-25-23-43-45-38L87 255c-16 3-26 18-25 36Z" class="cls-5"/><path d="m63 291 43 618c2 25 23 43 45 38l865-195c18-4 31-23 29-43l-42-595c-1-24-22-42-44-38L88 255c-16 3-27 19-25 36Z" class="cls-5"/><path d="m63 292 44 617c2 25 23 43 45 38l865-195c18-4 31-22 29-43l-42-594c-2-25-22-43-44-38L89 256c-16 3-27 18-26 36Z" class="cls-5"/><path d="m64 292 44 618c2 25 23 42 45 37l865-194c18-4 30-23 29-43l-42-595c-2-25-23-42-45-38L89 256c-15 3-26 19-25 36Z" class="cls-5"/><path d="m65 293 44 617c1 25 23 43 45 38l864-195c19-4 31-22 30-43l-42-594c-2-25-23-43-45-38L90 256c-15 4-26 19-25 37Z" class="cls-5"/><path d="m66 293 43 618c2 25 24 42 46 37l864-194c18-5 31-23 30-43l-42-595c-2-25-23-42-45-38L91 257c-16 3-26 19-25 36Z" class="cls-5"/><path d="m67 294 43 617c2 25 23 43 46 38l864-195c18-4 31-22 29-43l-42-595c-1-24-22-42-44-37L92 257c-16 4-27 19-25 37Z" class="cls-5"/><path d="m67 294 44 618c2 25 23 42 45 37l865-195c18-4 31-22 29-42l-42-595c-2-25-22-42-44-38L93 258c-16 3-27 19-26 36Z" class="cls-5"/><path d="m68 294 44 618c2 25 23 43 45 38l865-195c18-4 30-22 29-43l-42-595c-2-24-23-42-45-37L93 258c-15 4-26 19-25 36Z" class="cls-5"/><path d="m69 295 44 618c1 25 23 42 45 37l864-195c19-4 31-22 30-43l-42-594c-2-25-23-42-45-38L94 259c-15 3-26 19-25 36Z" class="cls-5"/><path d="m70 295 43 618c2 25 24 43 46 38l864-195c18-4 31-23 30-43l-42-595c-2-24-23-42-45-37L95 259c-16 3-26 19-25 36Z" class="cls-5"/><path d="m71 296 43 618c2 24 23 42 46 37l864-195c18-4 31-22 29-43l-42-594c-1-25-22-42-44-38L96 260c-16 3-27 18-25 36Z" class="cls-5"/><path d="m71 296 44 618c2 25 23 43 45 38l865-195c18-4 31-23 29-43l-42-595c-2-24-22-42-44-38L97 260c-16 3-27 19-26 36Z" class="cls-5"/><path d="m72 297 44 617c2 25 23 43 45 38l865-195c18-4 30-22 29-43l-42-594c-2-25-23-43-45-38L97 261c-15 3-26 18-25 36Z" class="cls-5"/><path d="m73 297 44 618c1 25 23 43 45 38l864-195c19-4 31-23 30-43l-42-595c-2-24-23-42-45-38L98 261c-15 3-26 19-25 36Z" class="cls-5"/><path d="m74 298 43 617c2 25 24 43 46 38l864-195c18-4 31-22 30-43l-42-594c-2-25-23-43-45-38L99 262c-16 3-26 18-25 36Z" class="cls-5"/><path d="m75 298 43 618c2 25 23 43 46 38l864-195c18-4 31-23 29-43l-42-595c-1-24-22-42-44-38L100 262c-16 3-27 19-25 36Z" class="cls-5"/><path d="m75 299 44 617c2 25 23 43 45 38l865-195c18-4 31-22 29-43l-42-594c-2-25-22-43-44-38L101 263c-16 3-27 18-26 36Z" class="cls-5"/><path d="m76 299 44 618c2 25 23 42 45 37l865-194c18-5 30-23 29-43l-42-595c-2-25-23-42-45-38L101 263c-15 3-26 19-25 36Z" class="cls-5"/><path d="m77 300 44 617c1 25 23 43 45 38l864-195c19-4 31-22 30-43l-42-594c-2-25-23-43-45-38L102 263c-15 4-26 19-25 37Z" class="cls-5"/><path d="m78 300 43 618c2 25 24 42 46 37l864-194c18-5 31-23 30-43l-42-595c-2-25-23-42-45-38L103 264c-16 3-26 19-25 36Z" class="cls-5"/><path d="m79 301 43 617c2 25 23 43 46 38l864-195c18-4 31-22 29-43l-42-595c-1-24-22-42-44-37L104 264c-16 4-27 19-25 37Z" class="cls-5"/><path d="m80 301 43 618c2 25 23 42 45 37l865-195c18-4 31-22 29-42l-42-595c-2-25-22-42-44-38L105 265c-16 3-27 19-26 36Z" class="cls-5"/><path d="m80 301 44 618c2 25 23 43 45 38l865-195c18-4 30-23 29-43l-42-595c-2-24-23-42-45-37L105 265c-15 4-26 19-25 36Z" class="cls-5"/><path d="m81 302 44 618c1 24 23 42 45 37l864-195c19-4 31-22 30-43l-42-594c-2-25-23-42-45-38L106 266c-15 3-26 18-25 36Z" class="cls-5"/><path d="m82 302 43 618c2 25 24 43 46 38l864-195c18-4 31-23 30-43l-42-595c-2-24-23-42-45-37L107 266c-16 3-26 19-25 36Z" class="cls-5"/><path d="m83 303 43 618c2 24 23 42 46 37l864-195c18-4 31-22 29-43l-42-594c-1-25-22-43-44-38L108 267c-16 3-27 18-25 36Z" class="cls-5"/><path d="m84 303 43 618c2 25 23 43 45 38l865-195c18-4 31-23 29-43l-42-595c-1-24-22-42-44-38L109 267c-16 3-27 19-26 36Z" class="cls-5"/><path d="m84 304 44 617c2 25 23 43 45 38l865-195c18-4 30-22 29-43l-42-594c-2-25-23-43-45-38L109 268c-15 3-26 18-25 36Z" class="cls-5"/><path d="m85 304 44 618c1 25 23 43 45 38l864-195c19-4 31-23 30-43l-42-595c-2-24-23-42-45-38L110 268c-15 3-26 19-25 36Z" class="cls-5"/><path d="m86 305 43 617c2 25 24 43 46 38l864-195c19-4 31-22 30-43l-42-594c-2-25-23-43-45-38L111 269c-16 3-26 18-25 36Z" class="cls-5"/><path d="m87 305 43 618c2 25 23 43 46 38l864-195c18-4 31-23 29-43l-42-595c-1-24-22-42-44-38L112 269c-16 3-27 19-25 36Z" class="cls-5"/><path d="m88 306 43 617c2 25 23 43 45 38l865-195c18-4 31-22 29-43l-42-594c-1-25-22-43-44-38L113 270c-16 3-27 18-25 36Z" class="cls-5"/><path d="m88 306 44 618c2 25 23 42 45 37l865-194c18-5 30-23 29-43l-42-595c-2-25-23-42-45-38L113 270c-15 3-26 19-25 36Z" class="cls-5"/><path d="m89 307 44 617c1 25 23 43 45 38l864-195c19-4 31-22 30-43l-42-594c-2-25-23-43-45-38L114 270c-15 4-26 19-25 37Z" class="cls-5"/><path d="m90 307 43 618c2 25 24 42 46 37l864-194c19-5 31-23 30-43l-42-595c-2-25-23-42-45-38L115 271c-16 3-26 19-25 36Z" class="cls-5"/><path d="m91 308 43 617c2 25 23 43 46 38l864-195c18-4 31-22 29-43l-42-595c-1-24-22-42-44-37L116 271c-16 4-26 19-25 37Z" class="cls-5"/><path d="m92 308 43 618c2 25 23 42 45 37l865-195c18-4 31-22 29-42l-42-595c-1-25-22-42-44-38L117 272c-16 3-27 19-25 36Z" class="cls-5"/><path d="m92 308 44 618c2 25 23 43 45 38l865-195c18-4 30-23 29-43l-42-595c-2-24-23-42-45-37L117 272c-15 4-26 19-25 36Z" class="cls-5"/><path d="m93 309 44 618c1 24 23 42 45 37l864-195c19-4 31-22 30-43l-42-594c-2-25-23-42-45-38L118 273c-15 3-26 18-25 36Z" class="cls-5"/><path d="m94 309 43 618c2 25 24 43 46 38l864-195c19-4 31-23 30-43l-42-595c-2-24-23-42-45-37L119 273c-15 3-26 19-25 36Z" class="cls-5"/><path d="m95 310 43 618c2 24 23 42 46 37l864-195c18-4 31-22 29-43l-42-594c-1-25-22-43-44-38L120 274c-16 3-26 18-25 36Z" class="cls-5"/><path d="m96 310 43 618c2 25 23 43 45 38l865-195c18-4 31-23 29-43l-42-595c-1-24-22-42-44-38L121 274c-16 3-27 19-25 36Z" class="cls-5"/><path d="m96 311 44 617c2 25 23 43 45 38l865-195c18-4 30-22 29-43l-42-594c-2-25-23-43-45-38L121 275c-15 3-26 18-25 36Z" class="cls-5"/><path d="m97 311 44 618c1 25 23 43 45 38l864-195c19-4 31-23 30-43l-42-595c-2-24-23-42-45-38L122 275c-15 3-26 19-25 36Z" class="cls-5"/><path d="m97 311 44 618c1 25 23 43 45 38l864-195c19-4 31-23 30-43l-42-595c-2-24-23-42-45-38L122 275c-15 3-26 19-25 36Z" style="fill:#dc83b5"/><path d="m1022 103-57-33-37-20s-15-13-30-10L25 219s-10 1-18 12l96 57" style="fill:#1b236c"/><path d="m688 28-1-1h-1v-1h-2v-1h-1l-1-1h-1v-1h-2v-1h-2v-1h-1l-1-1h-1v-1h-2v-1h-1l-1-1h-1l-1-1h-1v-1h-1l-1-1h-1v-1h-2v-1h-1l-1-1h-1l-1-1h-1V9h-2V8h-1l-1-1h-1V6h-2V5h-2V4h-1l-1-1h-1V2c-4-2-8-3-12-2L400 41c-9 2-15 11-14 20l17 96c1 5 4 9 9 10l33 7c3 0 5-2 5-5l-14-79c-2-9 5-19 14-20l194-34 12 91c1 2 2 4 5 5l36 15c4 2 8-2 8-6L689 32l-1-3" style="fill:#46834f"/><g style="clip-path:url(#clippath)"><path d="M378 900c0-19-7-39-21-52a77 77 0 0 0-53-22c-19 0-39 8-53 22a76 76 0 0 0-22 52c1 20 7 40 22 53s33 22 53 22c19 0 39-8 53-22 13-13 22-34 21-53ZM1097 464l-5-33a122 122 0 0 0-118-90c-17 0-32 3-47 11-15 5-28 13-39 25a92 92 0 0 0-26 40c-7 14-11 30-10 47l4 32a122 122 0 0 0 118 90c17 1 33-3 47-10 16-5 29-14 40-26 12-11 20-24 25-39 8-15 11-30 11-47ZM522 687l-4-32a122 122 0 0 0-118-90c-17-1-33 3-47 10-15 5-29 14-40 26a92 92 0 0 0-25 39c-8 15-11 30-10 47l4 33a122 122 0 0 0 118 90c17 0 33-3 47-11 15-5 28-13 39-25 12-11 21-24 26-40 7-14 11-30 10-47ZM909 642c-2-27-22-50-50-50-26 0-51 23-50 50s22 49 50 49c26 0 51-22 50-49ZM262 681c-1-27-22-50-50-50-26 0-51 23-50 50 2 27 22 50 50 50 26 0 51-23 50-50ZM359 405c-2-52-42-97-97-97-51 0-100 45-98 97 3 53 43 98 98 98 51 0 100-45 97-98ZM864 875c-3-83-67-154-154-154-81 0-158 71-154 154 3 84 67 155 154 155 81 0 158-71 154-155Z" class="cls-6"/></g><path d="m103 288 366 241c7 5 16 6 24 5l300-60c9-2 17-7 21-15l208-356" style="fill:#3369be"/><path d="m699 553-8-72c-1-10-7-18-15-23v-1h-2v-1h-1l-1-1h-1v-1h-2v-1h-2v-1h-1v-1c-7-3-14-5-22-4l-26 4c-16 2-28 18-26 35l9 75c1 10 7 18 15 23v1h2v1h2v1h2v1h1v1h2v1h2c7 5 15 6 24 4l25-7c15-4 25-18 23-34Z" style="fill:#fff"/><path d="m629 457 26-4c18-2 34 10 36 28l8 73c2 15-8 29-23 33l-25 7c-18 5-37-8-39-27l-9-75c-2-17 9-32 26-35Z" style="fill:#f3ac3d"/></g></svg>