<svg xmlns="http://www.w3.org/2000/svg" id="Layer_2" data-name="Layer 2" viewBox="0 0 835 1080"><defs><style>.cls-1{fill:#f3ac3d}.cls-6{fill:#0a0a0a}.cls-7{fill:#dc83b5}</style></defs><g id="Layer_1-2" data-name="Layer 1"><path d="M80 354 526 0l309 731-446 349L80 354z" style="fill:#3369be"/><path d="M0 349h82l306 728-79 3L0 349z" style="fill:#46834f"/><path d="M0 349 447 0h79L80 354l-80-5z" style="fill:#74afc5"/><path d="m149 363 263 635 366-281L509 77 149 363z" style="fill:#fff"/><path d="m172 257 34 87 274-213-34-87-74 58s-23-54-86-15-46 116-46 116l-68 54Z" class="cls-6"/><path d="m172 257 34 87 275-213-35-87-74 58s-23-53-86-15c-63 39-45 116-45 116l-69 54Z" class="cls-6"/><path d="m172 257 35 87 274-213-34-87-75 58s-23-53-85-15c-63 39-46 117-46 117l-69 53Z" class="cls-6"/><path d="m173 257 34 87 274-213-34-87-74 58s-23-53-86-15c-63 39-46 117-46 117l-68 53Z" class="cls-6"/><path d="m173 257 34 87 275-213-35-87-74 58s-23-53-86-15c-63 39-46 117-46 117l-68 53Z" class="cls-6"/><path d="m173 257 34 87 275-213-34-87-75 58s-23-53-85-14c-63 38-46 116-46 116l-69 53Z" class="cls-6"/><path d="m173 257 35 87 274-213-34-87-74 58s-23-53-86-14c-63 38-46 116-46 116l-69 53Z" class="cls-6"/><path d="m174 257 34 87 275-213-35-87-74 58s-23-53-86-14c-63 38-46 116-46 116l-68 53Z" class="cls-6"/><path d="m174 257 34 87 275-213-34-87-75 58s-23-53-86-14c-62 38-45 116-45 116l-69 53Z" class="cls-6"/><path d="m174 257 35 87 274-213-34-87-74 58s-23-53-86-14-46 116-46 116l-69 53Z" class="cls-6"/><path d="m175 257 34 88 275-214-35-87-74 58s-23-53-86-14-46 116-46 116l-68 53Z" class="cls-6"/><path d="m175 257 34 88 275-213-34-88-75 58s-23-53-86-14c-62 39-45 116-45 116l-69 53Z" class="cls-6"/><path d="m175 257 35 88 274-213-34-88-74 59s-23-54-86-15-46 116-46 116l-69 53Z" class="cls-6"/><path d="m176 258 34 87 275-213-35-88-74 59s-23-54-86-15-46 116-46 116l-68 54Z" class="cls-6"/><path d="m176 258 34 87 275-213-34-87-75 58s-23-54-86-15-45 116-45 116l-69 54Z" class="cls-6"/><path d="m176 258 35 87 274-213-34-87-75 58s-22-54-85-15-46 116-46 116l-69 54Z" class="cls-6"/><path d="m177 258 34 87 274-213-34-87-74 58s-23-53-86-15c-63 39-46 116-46 116l-68 54Z" class="cls-6"/><path d="m177 258 34 87 275-213-35-87-74 58s-23-53-86-15c-63 39-45 117-45 117l-69 53Z" class="cls-6"/><path d="m177 258 35 87 274-213-34-87-75 58s-22-53-85-15c-63 39-46 117-46 117l-69 53Z" class="cls-6"/><path d="m178 258 34 87 274-213-34-87-74 58s-23-53-86-15c-63 39-46 117-46 117l-68 53Z" class="cls-6"/><path d="m178 258 34 87 275-213-35-87-74 58s-23-53-86-14c-63 38-45 116-45 116l-69 53Z" class="cls-6"/><path d="m178 258 35 87 274-213-34-87-75 58s-22-53-85-14c-63 38-46 116-46 116l-69 53Z" class="cls-6"/><path d="m179 258 34 87 274-213-34-87-74 58s-23-53-86-14c-63 38-46 116-46 116l-68 53Z" class="cls-6"/><path d="m179 258 34 87 275-213-35-87-74 58s-23-53-86-14c-63 38-46 116-46 116l-68 53Z" class="cls-6"/><path d="m179 258 34 87 275-213-34-87-75 58s-23-53-85-14c-63 39-46 116-46 116l-69 53Z" class="cls-6"/><path d="m179 258 35 88 274-214-34-87-74 58s-23-53-86-14-46 116-46 116l-69 53Z" class="cls-6"/><path d="m180 258 34 88 275-213-35-88-74 58s-23-53-86-14-46 116-46 116l-68 53Z" class="cls-6"/><path d="m180 259 34 87 275-213-34-88-75 59s-23-54-86-15c-62 39-45 116-45 116l-69 54Z" class="cls-6"/><path d="m180 259 35 87 274-213-34-88-74 59s-23-54-86-15-46 116-46 116l-69 54Z" class="cls-6"/><path d="m181 259 34 87 275-213-35-87-74 58s-23-54-86-15-46 116-46 116l-68 54Z" class="cls-6"/><path d="m181 259 34 87 275-213-34-87-75 58s-23-54-86-15c-62 39-45 116-45 116l-69 54Z" class="cls-6"/><path d="m181 259 35 87 274-213-34-87-74 58s-23-53-86-15c-63 39-46 116-46 116l-69 54Z" class="cls-6"/><path d="m182 259 34 87 275-213-35-87-74 58s-23-53-86-15c-63 39-46 117-46 117l-68 53Z" class="cls-6"/><path d="m182 259 34 87 275-213-34-87-75 58s-23-53-86-15c-63 39-45 117-45 117l-69 53Z" class="cls-6"/><path d="m182 259 35 87 274-213-34-87-75 58s-22-53-85-15c-63 39-46 117-46 117l-69 53Z" class="cls-6"/><path d="m183 259 34 87 274-213-34-87-74 58s-23-53-86-14c-63 38-46 116-46 116l-68 53Z" class="cls-6"/><path d="m183 259 34 87 275-213-35-87-74 58s-23-53-86-14c-63 38-45 116-45 116l-69 53Z" class="cls-6"/><path d="m183 259 35 87 274-213-34-87-75 58s-22-53-85-14c-63 38-46 116-46 116l-69 53Z" class="cls-6"/><path d="m184 259 34 87 274-213-34-87-74 58s-23-53-86-14c-63 38-46 116-46 116l-68 53Z" class="cls-6"/><path d="m184 259 34 87 275-213-35-87-74 58s-23-53-86-14-45 116-45 116l-69 53Z" class="cls-6"/><path d="m184 259 35 88 274-214-34-87-75 58s-22-53-85-14-46 116-46 116l-69 53Z" class="cls-6"/><path d="m185 259 34 88 274-213-34-88-74 58s-23-53-86-14-46 116-46 116l-68 53Z" class="cls-6"/><path d="m185 260 34 87 275-213-35-88-74 59s-23-54-86-15-46 116-46 116l-68 54Z" class="cls-6"/><path d="m185 260 35 87 274-213-34-88-75 59s-23-54-85-15c-63 39-46 116-46 116l-69 54Z" class="cls-6"/><path d="m186 260 34 87 274-213-34-87-74 58s-23-54-86-15-46 116-46 116l-69 54Z" class="cls-6"/><path d="m186 260 34 87 275-213-35-87-74 58s-23-54-86-15-46 116-46 116l-68 54Z" class="cls-6"/><path d="m186 260 34 87 275-213-34-87-75 58s-23-53-85-15c-63 39-46 117-46 117l-69 53Z" class="cls-6"/><path d="m186 260 35 87 274-213-34-87-74 58s-23-53-86-15c-63 39-46 117-46 117l-69 53Z" class="cls-6"/><path d="m187 260 34 87 275-213-35-87-74 58s-23-53-86-15c-63 39-46 117-46 117l-68 53Z" class="cls-6"/><path d="m187 260 34 87 275-213-34-87-75 58s-23-53-86-15c-62 39-45 117-45 117l-69 53Z" class="cls-6"/><path d="m187 260 35 87 274-213-34-87-74 58s-23-53-86-14c-63 38-46 116-46 116l-69 53Z" class="cls-6"/><path d="m188 260 34 87 275-213-35-87-74 58s-23-53-86-14c-63 38-46 116-46 116l-68 53Z" class="cls-6"/><path d="m188 260 34 87 275-213-34-87-75 58s-23-53-86-14c-62 38-45 116-45 116l-69 53Z" class="cls-6"/><path d="m188 260 35 87 274-213-34-87-74 58s-23-53-86-14c-63 38-46 116-46 116l-69 53Z" class="cls-6"/><path d="m189 260 34 87 275-213-35-87-74 58s-23-53-86-14-46 116-46 116l-68 53Z" class="cls-6"/><path d="m189 260 34 88 275-214-35-87-74 58s-23-53-86-14-45 116-45 116l-69 53Z" class="cls-6"/><path d="m189 260 35 88 274-213-34-88-75 58s-22-53-85-14-46 116-46 116l-69 53Z" class="cls-6"/><path d="m190 261 34 87 274-213-34-88-74 59s-23-54-86-15-46 116-46 116l-68 54Z" class="cls-6"/><path d="m190 261 34 87 275-213-35-88-74 59s-23-54-86-15-45 116-45 116l-69 54Z" class="cls-6"/><path d="m190 261 35 87 274-213-34-87-75 58s-22-54-85-15-46 116-46 116l-69 54Z" class="cls-6"/><path d="m191 261 34 87 274-213-34-87-74 58s-23-54-86-15-46 116-46 116l-68 54Z" class="cls-6"/><path d="m191 261 34 87 275-213-35-87-74 58s-23-53-86-15c-63 39-45 117-45 117l-69 53Z" class="cls-6"/><path d="m191 261 35 87 274-213-34-87-75 58s-23-53-85-15c-63 39-46 117-46 117l-69 53Z" class="cls-6"/><path d="m192 261 34 87 274-213-34-87-74 58s-23-53-86-15c-63 39-46 117-46 117l-68 53Z" class="cls-6"/><path d="m192 261 34 87 275-213-35-87-74 58s-23-53-86-15c-63 39-46 117-46 117l-68 53Z" class="cls-6"/><path d="m192 261 34 87 275-213-34-87-75 58s-23-53-85-14c-63 38-46 116-46 116l-69 53Z" class="cls-6"/><path d="m192 261 35 87 274-213-34-87-74 58s-23-53-86-14c-63 38-46 116-46 116l-69 53Z" class="cls-6"/><path d="m193 261 34 87 275-213-35-87-74 58s-23-53-86-14c-63 38-46 116-46 116l-68 53Z" class="cls-6"/><path d="m193 261 34 87 275-213-34-87-75 58s-23-53-86-14c-62 38-45 116-45 116l-69 53Z" class="cls-6"/><path d="m193 261 35 87 274-213-34-87-74 58s-23-53-86-14-46 116-46 116l-69 53Z" class="cls-6"/><path d="m194 261 34 88 275-214-35-87-74 58s-23-53-86-14-46 116-46 116l-68 53Z" class="cls-6"/><path d="m194 261 34 88 275-213-34-88-75 58s-23-53-86-14c-62 39-45 116-45 116l-69 53Z" class="cls-6"/><path d="m194 262 35 87 274-213-34-88-74 59s-23-54-86-15-46 116-46 116l-69 54Z" class="cls-6"/><path d="m195 262 34 87 275-213-35-88-74 59s-23-54-86-15-46 116-46 116l-68 54Z" class="cls-6"/><path d="m195 262 34 87 275-213-34-87-75 58s-23-54-86-15-45 116-45 116l-69 54Z" class="cls-6"/><path d="m195 262 35 87 274-213-34-87-75 58s-22-54-85-15-46 116-46 116l-69 54Z" class="cls-6"/><path d="m196 262 34 87 274-213-34-87-74 58s-23-53-86-15c-63 39-46 117-46 117l-68 53Z" class="cls-6"/><path d="m196 262 34 87 275-213-35-87-74 58s-23-53-86-15c-63 39-45 117-45 117l-69 53Z" class="cls-6"/><path d="m196 262 35 87 274-213-34-87-75 58s-22-53-85-15c-63 39-46 117-46 117l-69 53Z" class="cls-6"/><path d="m197 262 34 87 274-213-34-87-74 58s-23-53-86-14c-63 38-46 116-46 116l-68 53Z" class="cls-6"/><path d="m197 262 34 87 275-213-35-87-74 58s-23-53-86-14c-63 38-45 116-45 116l-69 53Z" class="cls-6"/><path d="m197 262 35 87 274-213-34-87-75 58s-23-53-85-14c-63 38-46 116-46 116l-69 53Z" class="cls-6"/><path d="m198 262 34 87 274-213-34-87-74 58s-23-53-86-14c-63 38-46 116-46 116l-68 53Z" class="cls-6"/><path d="m198 262 34 87 275-213-35-87-74 58s-23-53-86-14-46 116-46 116l-68 53Z" class="cls-6"/><path d="m198 262 34 88 275-214-34-87-75 58s-23-53-85-14c-63 39-46 116-46 116l-69 53Z" class="cls-6"/><path d="m198 262 35 88 274-214-34-87-74 58s-23-53-86-14-46 116-46 116l-69 53Z" class="cls-6"/><path d="m199 262 34 88 275-213-35-88-74 59s-23-54-86-15-46 116-46 116l-68 53Z" class="cls-6"/><path d="m199 263 34 87 275-213-34-88-75 59s-23-54-86-15c-62 39-45 116-45 116l-69 54Z" class="cls-6"/><path d="m199 263 35 87 274-213-34-87-74 58s-23-54-86-15-46 116-46 116l-69 54Z" class="cls-6"/><path d="m200 263 34 87 275-213-35-87-74 58s-23-54-86-15-46 116-46 116l-68 54Z" class="cls-6"/><path d="m200 263 34 87 275-213-34-87-75 58s-23-53-86-15c-62 39-45 116-45 116l-69 54Z" class="cls-6"/><path d="m200 263 35 87 274-213-34-87-74 58s-23-53-86-15c-63 39-46 117-46 117l-69 53Z" class="cls-6"/><path d="m201 263 34 87 275-213-35-87-74 58s-23-53-86-15c-63 39-46 117-46 117l-68 53Z" class="cls-6"/><path d="m201 263 34 87 275-213-34-87-75 58s-23-53-86-15c-63 39-45 117-45 117l-69 53Z" class="cls-6"/><path d="m201 263 35 87 274-213-34-87-75 58s-22-53-85-14c-63 38-46 116-46 116l-69 53Z" class="cls-6"/><path d="m202 263 34 87 274-213-34-87-74 58s-23-53-86-14c-63 38-46 116-46 116l-68 53Z" class="cls-6"/><path d="m202 263 34 87 275-213-35-87-74 58s-23-53-86-14c-63 38-45 116-45 116l-69 53Z" class="cls-6"/><path d="m202 263 35 87 274-213-34-87-75 58s-22-53-85-14c-63 38-46 116-46 116l-69 53Z" class="cls-6"/><path d="m203 263 34 87 274-213-34-87-74 58s-23-53-86-14-46 116-46 116l-68 53Z" class="cls-6"/><path d="m203 263 34 88 275-214-35-87-74 58s-23-53-86-14-45 116-45 116l-69 53Z" class="cls-6"/><path d="m203 263 35 88 274-214-34-87-75 58s-22-53-85-14-46 116-46 116l-69 53Z" class="cls-6"/><path d="m204 263 34 88 274-213-34-88-74 59s-23-54-86-15-46 116-46 116l-68 53Z" class="cls-6"/><path d="m204 264 34 87 275-213-35-88-74 59s-23-54-86-15-46 116-46 116l-68 54Z" class="cls-6"/><path d="m204 264 34 87 275-213-34-87-75 58s-23-54-85-15c-63 39-46 116-46 116l-69 54Z" class="cls-6"/><path d="m204 264 35 87 274-213-34-87-74 58s-23-54-86-15-46 116-46 116l-69 54Z" class="cls-6"/><path d="m205 264 34 87 275-213-35-87-74 58s-23-53-86-15c-63 39-46 116-46 116l-68 54Z" class="cls-6"/><path d="m205 264 34 87 275-213-34-87-75 58s-23-53-85-15c-63 39-46 117-46 117l-69 53Z" class="cls-6"/><path d="m205 264 35 87 274-213-34-87-74 58s-23-53-86-15c-63 39-46 117-46 117l-69 53Z" class="cls-6"/><path d="m206 264 34 87 275-213-35-87-74 58s-23-53-86-15c-63 39-46 117-46 117l-68 53Z" class="cls-6"/><path d="m206 264 34 87 275-213-34-87-75 58s-23-53-86-14c-62 38-45 116-45 116l-69 53Z" class="cls-6"/><path d="m206 264 35 87 274-213-34-87-74 58s-23-53-86-14c-63 38-46 116-46 116l-69 53Z" class="cls-6"/><path d="m207 264 34 87 275-213-35-87-74 58s-23-53-86-14c-63 38-46 116-46 116l-68 53Z" class="cls-6"/><path d="m207 264 34 87 275-213-34-87-75 58s-23-53-86-14c-63 38-45 116-45 116l-69 53Z" class="cls-6"/><path d="m207 264 35 87 274-213-34-87-74 58s-23-53-86-14-46 116-46 116l-69 53Z" class="cls-6"/><path d="m208 264 34 88 274-214-34-87-74 58s-23-53-86-14-46 116-46 116l-68 53Z" class="cls-6"/><path d="m208 264 34 88 275-213-35-88-74 58s-23-53-86-14-45 116-45 116l-69 53Z" class="cls-6"/><path d="m208 264 35 88 274-213-34-88-75 59s-22-54-85-15-46 116-46 116l-69 53Z" class="cls-6"/><path d="m209 265 34 87 274-213-34-88-74 59s-23-54-86-15-46 116-46 116l-68 54Z" class="cls-6"/><path d="m209 265 34 87 275-213-35-87-74 58s-23-54-86-15-45 116-45 116l-69 54Z" class="cls-6"/><path d="m209 265 35 87 274-213-34-87-75 58s-22-54-85-15-46 116-46 116l-69 54Z" class="cls-6"/><path d="m210 265 34 87 274-213-34-87-74 58s-23-53-86-15c-63 39-46 116-46 116l-68 54Z" class="cls-6"/><path d="m210 265 34 87 275-213-35-87-74 58s-23-53-86-15c-63 39-45 117-45 117l-69 53Z" class="cls-6"/><path d="m211 264 34 87 275-213-34-87-75 58s-23-53-85-14c-63 38-46 116-46 116l-69 53Z" style="fill:#dc3321"/><path d="m332 462-29-70-69 54 30 69 68-53zM469 793l29 69-66 53-29-70 66-52ZM443 730l-28-69-68 51 29 71 67-53ZM388 595l-28-67-70 50 30 70 68-53Z" class="cls-7"/><ellipse cx="349.3" cy="146.2" rx="21.4" ry="18.1" style="fill:#1b226d" transform="rotate(-29 349 146)"/><path d="m337 392 18 39 194-145-17-39-195 145ZM395 528l17 39 194-146-17-38-194 145ZM452 662l18 39 194-146-17-38-195 145ZM508 792l17 38 194-145-17-39-194 146Z" class="cls-1"/></g></svg>