<svg xmlns="http://www.w3.org/2000/svg" data-name="Layer 2" viewBox="0 0 877.6 1080.2"><g data-name="Layer 1"><path d="m692 891-436 184c-10 4-21-1-24-12L0 201 455 10c67-28 136 5 155 75l169 630c19 69-20 148-87 176Z" style="fill:#1b236c"/><path d="M0 201 507 32c11-4 24 3 27 15l26 96L0 201Z" style="fill:#fff"/><path d="M107 99h652c8 0 15 7 15 15v883c0 8-7 15-15 15H119c-6 0-12-5-12-12V99Z" style="fill:#46834f" transform="rotate(-15 440 555)"/><path d="M361 492c-2-37 3-69 14-93a172 172 0 0 0-73 85l12 3c15 3 30 5 47 5Zm174 47-61 16 9 35c20-5 40-7 59-9-1-13-4-28-7-42Zm-173-28c-24 0-47-3-66-9-8 26-9 55-3 82l78-21-9-52Zm186 5 78-21c-9-27-24-51-44-71-13 15-31 30-52 42 6 15 13 32 18 50Zm-35-41c-17 8-35 16-55 22l11 40 61-16-17-46Zm46-54 9-9a174 174 0 0 0-106-36c21 15 42 40 59 73 15-9 27-18 38-28ZM376 582l-78 21c8 25 22 48 41 67 13-16 31-31 53-44l-16-44Zm99-169c-17-19-34-31-48-32l26 97c18-5 35-12 52-20-9-17-19-32-30-45Zm69 187c-18 1-37 4-56 9l28 102c11-8 20-26 25-52 3-18 4-38 3-59Zm19 0c2 39-3 74-14 98a172 172 0 0 0 75-89l-16-4c-14-3-29-5-45-5ZM383 438c-3 16-4 34-3 53 18-1 36-3 55-8l-26-97c-12 8-21 27-26 52Zm170 96c4 16 7 32 8 47 26 0 49 4 69 10 6-25 7-52 1-78l-78 21Zm-144 83c17-8 36-16 56-22l-10-35-60 17 14 40Zm-19-59 60-16-10-41c-20 5-40 8-59 9l9 48Zm59 126c17 20 34 31 48 32l-27-102c-19 5-36 12-53 20 10 19 20 36 32 50Zm-85-13-11 11a175 175 0 0 0 109 39c-22-15-44-42-61-77-14 8-27 17-37 27Z" style="fill:#f3ac3d"/></g></svg>