<svg xmlns="http://www.w3.org/2000/svg" id="Layer_2" data-name="Layer 2" viewBox="0 0 1080 1073.2"><defs><style>.cls-2{fill:#fff}.cls-3{fill:#f3ad3d}.cls-4{fill:#dc3321}.cls-6{fill:#7db4c9}.cls-7{fill:#46834f}</style></defs><g id="Layer_1-2" data-name="Layer 1"><circle cx="545.5" cy="530" r="373.8" style="fill:#3369be"/><path d="m545 1001-28-1a7 7 0 0 1 1-15 461 461 0 0 0 202-34 446 446 0 0 0 270-458 7 7 0 0 1 15-2 468 468 0 0 1-133 374 460 460 0 0 1-326 136Z" class="cls-6"/><path d="m568 934 10 11-55 47 51 51-10 10-62-62 66-57z" class="cls-6"/><path d="M93 592c-3 0-7-2-7-6a470 470 0 0 1 133-374A460 460 0 0 1 577 78a7 7 0 1 1-1 14 452 452 0 0 0-347 130 446 446 0 0 0-128 362 7 7 0 0 1-8 8Z" class="cls-3"/><path d="m525 144-9-11 55-47-51-52 10-10 62 62-67 58z" class="cls-3"/><path d="M452 892 350 637c-2-4-2-8-2-13 1-15 2-54-16-69a253 253 0 0 1-41-41c-5-4-16-11-32-18-24-10-37-8-45-34v-1c-2-5-8-21-16-33-6-7-7-17-4-26 18-45 76-164 223-223 10-4 22-1 30 6 12 11 26 31 15 61l-5 20c0 4-15 16-20 20l-2 2-35 37c-4 4-6 9-7 15l-1 14v33c0 5-1 11-5 15-4 6-10 13-16 17-12 7-12 51 0 60 11 9 21 25 59 18 37-6 59-12 73-5a1062 1062 0 0 1 77 56l9 13 2 2c5 8 33 55 22 76a115 115 0 0 1-32 38l-33 34-7 12c-1 5-3 12-2 18l2 85c0 5-1 9-3 13-3 7-9 17-17 23s-12 15-11 24v16s-56-6-58-10ZM920 490c3 49 2 185-84 275l-12-52-3-7-11-14a1550 1550 0 0 1-53-59c-2-6-6-16-8-31a1407 1407 0 0 0-13-69c0-3-2-15-8-19s-48-30-38-73c3-14 17-22 31-19l180 44c11 3 19 12 19 24Z" class="cls-7"/><path d="M427 646a249 249 0 0 0-354 0 249 249 0 0 0 0 354 249 249 0 0 0 354 0 249 249 0 0 0 0-354Z" class="cls-2"/><circle cx="250" cy="822.9" r="192.8" class="cls-3"/><path d="M1007 73a249 249 0 0 0-354 0 249 249 0 0 0 0 354 249 249 0 0 0 354 0 249 249 0 0 0 0-354Z" class="cls-2"/><circle cx="829.7" cy="250.3" r="192.8" style="fill:#f19fcb"/><circle cx="829.7" cy="205.9" r="66.9" class="cls-4"/><path d="M831 443c47 0 91-17 125-46a126 126 0 0 0-252-2c33 30 78 48 127 48Z" class="cls-4"/><circle cx="250" cy="778.5" r="66.9" class="cls-4"/><path d="M251 1016c48 0 91-18 125-46a126 126 0 0 0-252-2c34 30 78 48 127 48Z" class="cls-4"/><path d="M1055 1064c2 0 2-3 0-3s-2 3 0 3Z" class="cls-7"/></g></svg>