<svg xmlns="http://www.w3.org/2000/svg" id="Layer_2" data-name="Layer 2" viewBox="0 0 1080 939.2"><defs><style>.cls-1{fill:#f3ac3d}.cls-3{fill:#fff}.cls-6{fill:none;stroke:#7db4c9;stroke-miterlimit:10;stroke-width:14.72px}</style></defs><g id="Layer_1-2" data-name="Layer 1"><path d="M1055 465c-14-17-33-31-52-40-45-23-94-37-142-49-52-13-105-21-159-27-95-10-192-14-288-15-87 0-180 7-256 53-18 10-44 19-53 42-9 22 5 36-4 61-8 22-25 26-46 46-5 4-50 46-55 101-4 56 34 104 69 130a144 144 0 0 0 100 25l29-4 2-1h2a205 205 0 0 1 23-1c9 1 15 5 18 7 4 2 8 8 18 18l2 2 1 2 8 12c14 18 27 37 43 52a214 214 0 0 0 196 54c46-13 80-46 109-83 14-16 26-33 41-48l19-16 4-3a253 253 0 0 1 49-26c17-7 34-12 51-17 70-21 146-35 208-77 16-11 32-24 45-38 18-20 36-44 41-71 6-33-2-63-23-89Z" class="cls-1"/><path d="M235 222v437l249 103V330L235 222z" style="fill:#7db4c9"/><path d="m860 160 1 415-377 187V330l66-66 144-119 166 15Z" style="fill:#dd3321"/><path d="m488 303 206-182 206 35v23l-202-27-210 186v-35Z" class="cls-3"/><path d="M488 303v32L200 210v-27l288 120z" style="fill:#1a236b"/><path d="M200 183 410 0l284 121-206 182-288-120z" style="fill:#dc83b5"/><path d="m616 31 284 125-206-35L410 0l206 31z" style="fill:#3369be"/><path d="m290 358 140 48-2 136-138-48V358Z" class="cls-1"/><path d="M358 336v224M263 416l184 63" class="cls-6"/><path d="m613 698 152-76V419c0-42-41-72-82-59l-20 6a74 74 0 0 0-50 70v262Z" class="cls-3"/><path d="M745 503c-4 0-7-2-7-6v-38a6 6 0 1 1 13 0v38c0 4-3 6-6 6Z" style="fill:#1b236c"/></g></svg>