<svg xmlns="http://www.w3.org/2000/svg" id="Layer_2" data-name="Layer 2" viewBox="0 0 1080 977.8"><defs><style>.cls-2{fill:#1b236c}</style></defs><g id="Layer_1-2" data-name="Layer 1"><path d="M368 237h673c21 0 39 17 39 39v503c0 22-18 40-39 40H917v139c0 18-21 26-33 14L726 819H368c-22 0-40-18-40-40V276c0-22 18-39 40-39Z" style="fill:#f3ad3d"/><path d="M712 0H39C18 0 0 18 0 39v503c0 22 18 40 39 40h124v140c0 17 21 25 33 13l158-153h358c22 0 40-18 40-40V39c0-21-18-39-40-39Z" style="fill:#dc3321"/><path d="M377 270c5-2 8-6 8-11 0-4-1-6-4-9-2-2-5-3-8-3-4 0-9 2-13 8-6 8-12 14-18 18s-13 5-23 5c-6 0-13-1-18-3l-16-10a46 46 0 0 1-14-34c0-10 3-21 9-30 5-10 13-19 22-26a116 116 0 0 1 114-17 107 107 0 0 1 56 58c6 13 8 27 8 43 0 29-9 53-28 72-10 9-20 16-32 21s-24 8-36 8c-33 0-51-15-53-45l2-11a49 49 0 0 1 12-19l9-6 23-9Zm-48 141a44 44 0 0 1 14-32 49 49 0 0 1 33-13 46 46 0 0 1 33 13c4 5 8 9 10 15s4 11 4 18a46 46 0 0 1-14 33 47 47 0 0 1-33 14 47 47 0 0 1-47-48Z" style="fill:#fff"/><path d="M602 705c0-8 3-14 8-20 5-5 12-8 20-8a28 28 0 0 1 19 8l6 9c2 4 3 7 3 11l-3 11-6 9-9 6a28 28 0 0 1-30-6 29 29 0 0 1-8-20ZM676 705c0-8 3-14 8-20 6-5 12-8 20-8a28 28 0 0 1 20 8l6 9 2 11-2 11-6 9-9 6a28 28 0 0 1-31-6 29 29 0 0 1-8-20ZM751 705c0-8 2-14 8-20 5-5 12-8 19-8a28 28 0 0 1 20 8l6 9 2 11-2 11-6 9-9 6a28 28 0 0 1-30-6 29 29 0 0 1-8-20Z" class="cls-2"/></g></svg>