<svg xmlns="http://www.w3.org/2000/svg" id="Layer_2" data-name="Layer 2" viewBox="0 0 933 1067"><defs><clipPath id="clippath"><path d="M0 658h933v409H0z" style="fill:none"/></clipPath><style>.cls-2{fill:#fff}.cls-3{fill:#1b236c}.cls-4{fill:#f3ad3d}.cls-9{fill:#46834f}</style></defs><g id="Layer_1-2" data-name="Layer 1"><circle cx="467" cy="241" r="171" class="cls-2"/><rect width="190" height="348" x="703.7" y="332" rx="12" ry="12" style="fill:#f19fcb"/><path d="M842 557v121h-87V557z" class="cls-2"/><circle cx="407.7" cy="270.5" r="42.4" class="cls-4"/><path d="M408 421c31 0 58-11 80-29a80 80 0 0 0-160-1c21 19 49 30 80 30Z" class="cls-4"/><circle cx="526.7" cy="269.5" r="42.4" class="cls-4"/><path d="M527 420c31 0 58-11 80-29a80 80 0 0 0-160-1c21 19 49 30 80 30Z" class="cls-4"/><g style="clip-path:url(#clippath)"><ellipse cx="466.1" cy="657.8" rx="463.2" ry="411.5" style="fill:#3369be"/><path d="M350 1056 224 776c-2-5-3-9-2-14 1-17 2-60-20-77a297 297 0 0 1-51-45c-6-4-19-12-40-20-30-11-46-8-55-37l-1-2c-2-4-10-23-20-35-7-9-8-20-4-29 21-49 94-181 276-245 12-5 27-2 37 6 15 12 32 34 18 67 0 0-6 18-6 23 0 3-18 17-24 21l-3 3-43 40c-5 5-8 11-9 17l-1 15v36c0 6-2 12-6 17-5 7-12 15-21 19-14 7-14 56 0 66 15 10 27 27 74 20 46-7 74-14 91-6a1329 1329 0 0 1 94 62l12 13 2 3c7 9 41 60 28 83a132 132 0 0 1-40 43l-41 37c-4 4-7 8-8 13-2 6-4 13-3 20l3 94c0 5-1 10-4 14-4 8-11 19-21 25s-15 16-14 27v18s-70-7-72-12ZM931 613c3 55 2 204-105 303l-15-57-4-8c-3-4-8-11-13-15a1775 1775 0 0 1-66-65c-3-6-7-17-9-34a1386 1386 0 0 0-16-76c-1-3-4-16-11-21s-59-32-47-80c4-15 21-25 38-21l224 49c13 3 23 13 24 25Z" class="cls-9"/></g><path d="M467 0a240 240 0 0 0-239 262l-1-1s16 225 237 397h4a625 625 0 0 0 228-347A240 240 0 0 0 467 0Zm0 392a150 150 0 1 1 0-301 150 150 0 0 1 0 301Z" style="fill:#dc3321"/><circle cx="466.6" cy="200.8" r="42.4" class="cls-4"/><ellipse cx="77.5" cy="457" class="cls-9" rx="56.5" ry="125"/><ellipse cx="172.5" cy="441" class="cls-4" rx="63.7" ry="141"/><path d="M64 503h28v155H64zM167 503h28v155h-28z"/><path d="M755 374h87v36h-87zM755 426h87v36h-87zM755 478h87v36h-87z" class="cls-3"/></g></svg>