<svg xmlns="http://www.w3.org/2000/svg" id="Layer_2" data-name="Layer 2" viewBox="0 0 1080 900.6"><defs><style>.cls-2{fill:#f3ad3d}.cls-4{fill:#0a0a0a}.cls-5{fill:#f19fcb}.cls-7{fill:#38783d}</style></defs><g id="Layer_1-2" data-name="Layer 1"><path d="M957 369v246a123 123 0 0 0 0-246ZM123 367a123 123 0 0 0 0 247V367Z" class="cls-7"/><path d="M591 864v-26c99 0 192-41 262-115 71-74 109-173 109-278h26c0 112-41 217-116 296a385 385 0 0 1-281 123ZM942 455h-26c0-105-39-204-109-278a359 359 0 0 0-525 0 402 402 0 0 0-109 278h-26c0-112 41-217 116-296a385 385 0 0 1 563 0c75 79 116 184 116 296Z" class="cls-5"/><path d="M327 166a46 46 0 0 1-27-84 438 438 0 0 1 488-15 46 46 0 1 1-49 78 347 347 0 0 0-386 12c-8 6-17 9-26 9Z" style="fill:#3369be"/><path d="M920 305c-41 0-75 33-75 75v227a75 75 0 0 0 150 0V380c0-42-33-75-75-75Z" class="cls-2"/><path d="M540 225c-145 0-263 110-263 245 0 54 20 108 57 151l-22 112a30 30 0 0 0 45 32l107-61c25 7 51 10 77 10 145 0 263-110 263-245S686 225 540 225Z" style="fill:#dc3321"/><path d="M160 305c-42 0-75 33-75 75v227a75 75 0 0 0 150 0V380c0-42-34-75-75-75Z" class="cls-2"/><path d="M640 786h-87a57 57 0 0 0 0 115h87a57 57 0 0 0 0-115Z" style="fill:#7db4c9"/><circle cx="485.5" cy="465.8" r="15.3" class="cls-4"/><circle cx="540.6" cy="465.8" r="15.3" class="cls-4"/><circle cx="595.8" cy="465.8" r="15.3" class="cls-4"/></g></svg>