<svg xmlns="http://www.w3.org/2000/svg" id="Layer_2" data-name="Layer 2" viewBox="0 0 1055.4 1080"><defs><style>.cls-1{fill:#f3ac3d}.cls-4{fill:#1b236c}</style></defs><g id="Layer_1-2" data-name="Layer 1"><rect width="138.6" height="223.6" x="102.9" y="856.4" rx="31" ry="31"/><rect width="138.6" height="223.6" x="556.8" y="856.4" rx="31" ry="31"/><rect width="118.5" height="176.7" y="427.1" rx="12" ry="12" style="fill:#46834f"/><path d="M711 290c0-59-141-107-314-107-159 0-291 40-311 92-4 5-6 11-6 18v639c0 19 16 34 34 34h564c18 0 33-15 33-34V290Z" style="fill:#dd3321"/><path d="M163 912c-18 0-33-15-33-33V233c-23 13-38 27-44 42-4 5-6 11-6 18v639c0 19 16 34 34 34h564c18 0 33-15 33-34v-20H163Z" style="fill:#aa190e"/><rect width="491.9" height="337.6" x="149.8" y="395.8" rx="12" ry="12" style="fill:#fff"/><rect width="140.9" height="71.5" x="152.1" y="809.4" class="cls-1" rx="16" ry="16"/><rect width="140.9" height="71.5" x="503.1" y="809.4" class="cls-1" rx="16" ry="16"/><rect width="333.2" height="71.5" x="240.4" y="250.4" class="cls-1" rx="16" ry="16"/><circle cx="733.4" cy="322" r="322" style="fill:#dc83b5"/><path d="M566 141v53l163 126 134 172h52l-76-273-273-78zM514 351h194v193h-38l-62-108-94-47v-38z" class="cls-4"/><path d="M906 125c-41-6-70 27-70 27L669 316c-28 28-110 140-110 140s-22 25-4 43c17 18 40 2 40 2l72-45c16-10 65-58 106-100l101-101 1-1c38-38 53-62 53-62s18-60-22-67Z" style="fill:#3369be"/><path d="M918 130c13 19 2 54 2 54s-15 24-53 62 0 1 0 1h-1L765 348c-41 42-90 91-106 100l-72 45s-19 13-36 2l4 4c17 18 40 2 40 2l72-45c16-10 65-58 106-100l101-101 1-1c38-38 53-62 53-62s14-47-10-62Z" class="cls-4"/></g></svg>