<svg xmlns="http://www.w3.org/2000/svg" id="Layer_2" data-name="Layer 2" viewBox="0 0 865.4 1080"><defs><style>.cls-2{fill:#fff}</style></defs><g id="Layer_1-2" data-name="Layer 1"><path d="m567 951-440 129L0 241l440-129c65-19 125 19 135 85l91 600c10 66-35 135-99 154Z" style="fill:#dc3321"/><path d="m0 241 486-103c11-2 22 5 23 16l14 92-523-5Z" class="cls-2"/><rect width="478.5" height="848.3" x="297.3" y="53.7" rx="19.6" ry="19.6" style="fill:#3369be" transform="rotate(-1 537 478)"/><path d="m651 52 54-1 16 847-54 1z" class="cls-2"/><path d="M60 190h609c6 0 10 5 10 11v827c0 6-5 11-10 11H60V190Z" style="fill:#f19fcb" transform="rotate(-9 369 614)"/><path d="M285 547c2-34 10-63 23-84a160 160 0 0 0-77 70l11 5c13 4 27 8 43 9Zm155 62-58 9 5 33c19-2 38-3 56-2l-3-40Zm-156-44c-23-3-43-8-60-16-10 24-14 50-12 76l75-11-3-49Zm171 24 74-11c-5-26-16-50-33-70-14 13-32 24-53 33 5 15 9 31 12 48Zm-28-41c-17 6-34 10-53 14l6 38 57-8c-2-16-6-31-10-44Zm48-45 9-8a163 163 0 0 0-94-44c18 16 35 41 47 73 14-6 27-13 38-21ZM289 632l-74 11c5 24 15 47 30 66 15-13 33-25 55-34l-11-43Zm109-145c-13-20-28-32-41-35l14 92c17-3 34-7 50-13-7-17-14-32-23-44Zm44 180c-17-1-34-1-52 1l15 98c11-6 22-22 29-45 4-16 7-35 8-54Zm18 1c-2 37-10 68-23 89a160 160 0 0 0 78-74l-14-5c-12-5-26-8-41-10ZM311 500c-5 15-8 31-9 49 17 1 34 0 52-2l-14-92c-12 6-22 22-29 45Zm146 106 3 44c24 3 45 9 62 17 9-23 12-47 10-72l-75 11Zm-141 62c17-6 35-11 54-14l-5-34-58 9c2 14 5 27 9 39Zm-12-56 58-9-6-39c-19 3-37 3-54 2-1 15 0 30 2 46Zm42 122c14 20 28 32 41 35l-15-98c-17 3-34 8-50 14 6 18 15 35 24 49Zm-77-21-12 9a162 162 0 0 0 97 48c-19-17-36-44-49-79-13 7-26 14-36 22Z" class="cls-2"/><circle cx="773.1" cy="92.3" r="92.3" style="fill:#46834f"/><path d="M770 140c-2 0-5-1-7-3l-34-38a10 10 0 1 1 14-13l26 28 40-68a10 10 0 1 1 16 10l-46 79a10 10 0 0 1-9 5Z" style="fill:#f3ad3d"/></g></svg>