<svg xmlns="http://www.w3.org/2000/svg" id="Layer_2" data-name="Layer 2" viewBox="0 0 1080 574.9"><defs><clipPath id="clippath"><rect width="627.2" height="165.9" x="138.9" y="200.4" rx="15" ry="15" style="fill:none"/></clipPath><style>.cls-3{fill:#1b236c}.cls-4{fill:#f3ad3d}.cls-5{fill:#dc3321}.cls-6{fill:#dd3321}.cls-7{fill:#0a0a0a}.cls-12{fill:#46844f}</style></defs><g id="Layer_1-2" data-name="Layer 1"><path d="m380.3 13-4.4-13h-45.5v34.9h94.3L412.8 13h-32.5zM853.1 11.4l-21.6 24h104v-24h-82.4zM643.2 35.4h35.5v-24h-28.2l-7.3 24z" class="cls-7"/><rect width="701.6" height="34.9" x="256.3" y="24.6" class="cls-5" rx="12.7" ry="12.7"/><path d="M247.2 40.4H969a15 15 0 0 1 15 15v481H232v-481a15 15 0 0 1 15-15Z" style="fill:#dc83b5"/><path d="m772.6 40.4-7 493.7 5.4 2.4 4.6-496.1h-3z" class="cls-5"/><path d="m662.8 40.4-7 493.7 5.4 2.4 4.5-496.1h-2.9z" class="cls-6"/><path d="m443.2 40.4-7.1 493.7 5.5 2.4 4.5-496.1h-2.9z" class="cls-5"/><path d="m876.5 40.4 2.2 493.7 5.5 2.4-4.8-496.1h-2.9z" class="cls-6"/><path d="m547.1 40.4 2.2 493.7 5.5 2.4L550 40.4h-2.9zM327.5 40.4l2.2 493.7 5.5 2.4-4.8-496.1h-2.9z" class="cls-5"/><path d="M770 216H135.4a21.7 21.7 0 0 0-21.2 21L96 548.4c-.8 12.9 9 23.8 21.1 23.8h672.1c12.3 0 22-11 21.2-23.8L791.2 237a21.7 21.7 0 0 0-21.2-21Z" style="fill:#3369be"/><path d="M340.8 404h307.4v131.2H340.8z" style="fill:#7db4c9"/><path d="M644.1 402.1v.1h-62.8v-.1h-6.5v.1h-67.9v-.1h-6.5v.1h-77.5v-.1h-6.5v.1l-70.3-.1h-6.5v134.3h6.5V408.7h70.3v127.7h6.5V408.7h77.5v127.7h6.5V408.7h67.9v127.7h6.5V408.7h62.8v127.7h6.6V402.1h-6.6z" style="fill:#fff"/><path d="M683.8 343.2h40.5v194.3h-40.5zM270.1 350.1h34.5v194.3h-34.5zM184.8 350.1h34.5v194.3h-34.5z" class="cls-5"/><path d="M170.3 356.5h568.5v26.8H170.3z" class="cls-3"/><rect width="627.2" height="165.9" x="138.9" y="200.4" class="cls-4" rx="15" ry="15"/><rect width="34.2" height="104" x="737.3" y="400.6" class="cls-4" rx="17.1" ry="17.1"/><rect width="111.1" height="54" x="797.4" y="61.5" class="cls-3" rx="20.1" ry="20.1"/><rect width="111.1" height="54" x="552.5" y="61.5" class="cls-3" rx="20.1" ry="20.1"/><rect width="111.1" height="54" x="307.7" y="61.5" class="cls-3" rx="20.1" ry="20.1"/><path d="M378.6 286.9c0 9.4-7.6 15-19.3 15-8 0-14-2.5-17.6-7.4A6.7 6.7 0 0 1 347 284h.5c2.5 0 4.8 1.3 5.9 3.5 1 2 3.1 3.3 5.4 3.1 2.7 0 4.2-1.2 4.2-3.3s-1.5-4-6.1-6.5l-7.2-3.7c-6.7-3.5-10-8.2-10-14.5 0-9.2 7.3-15.5 19.4-15.5 6.5 0 11.7 2 15 5.7a6.7 6.7 0 0 1-4.8 11.1 6.6 6.6 0 0 1-6-3.2 4.5 4.5 0 0 0-4.3-2.3c-2.6 0-4 1.3-4 3.4 0 2.4 1.8 3.8 5.5 5.7l7.2 3.7c7.2 3.7 10.9 9 10.9 15.6ZM423.8 282.4c-.2 4.2-1.4 11.6-6.6 16-3 2.3-7.6 3.5-14.7 3.5-6.6 0-11.3-1.3-14.6-3.6-4.6-3-6.5-8.2-6.5-18.2v-11c0-10 2-15.2 6.5-18.3 3-2.1 7.6-3.5 14.6-3.5s11.4 1.5 14.6 3.5c5.4 3.4 6.4 10.8 6.5 15 0 1.6-1.2 2.9-2.8 2.9H410c-1.4 0-2.6-1-2.8-2.5-.4-3-1.4-7.6-4.7-7.6-4.8 0-4.8 3.5-4.8 8v16c0 4.5 0 8 4.9 8 3.4 0 4.5-5.3 4.8-8.6a2.8 2.8 0 0 1 2.8-2.5H421c1.6 0 3 1.3 2.8 3ZM472.5 248.9c1 1 1.6 2.5 1.6 4v43.4a5.5 5.5 0 0 1-5.5 5.6h-7.1a5.5 5.5 0 0 1-5.5-5.6v-11.5c0-3-2.4-5.5-5.5-5.5h-.2c-3 0-5.5 2.5-5.5 5.5v11.5a5.5 5.5 0 0 1-5.5 5.6h-7.2a5.5 5.5 0 0 1-5.5-5.6v-43.5a5.5 5.5 0 0 1 5.5-5.5h7.2a5.5 5.5 0 0 1 5.5 5.5v9.2c0 3 2.5 5.5 5.5 5.5h.2c3 0 5.5-2.4 5.5-5.5v-9.2a5.5 5.5 0 0 1 5.5-5.5h7.1c1.5 0 2.9.6 4 1.6ZM511.8 269v11c0 10.6-1.7 15.4-5.3 18.3-2.6 2.2-6.4 3.6-12.1 3.6s-9.5-1.4-12.1-3.6c-3.6-3-5.4-7.7-5.4-18.2v-11c0-10.5 1.8-15.3 5.4-18.3 2.5-2.1 6.3-3.5 12-3.5s9.6 1.4 12.2 3.5c3.6 3 5.3 7.8 5.3 18.3Zm-13.5-2.4c0-4.4 0-8-4-8s-3.9 3.6-3.9 8v16c0 4.4 0 8 4 8s4-3.6 4-8v-16ZM549.6 269v11c0 10.6-1.8 15.4-5.3 18.3-2.6 2.2-6.4 3.6-12.2 3.6s-9.5-1.4-12-3.6c-3.7-3-5.4-7.7-5.4-18.2v-11c0-10.5 1.7-15.3 5.3-18.3 2.6-2.1 6.3-3.5 12.1-3.5s9.6 1.4 12.2 3.5c3.6 3 5.3 7.8 5.3 18.3Zm-13.5-2.4c0-4.4 0-8-4-8s-4 3.6-4 8v16c0 4.4 0 8 4 8s4-3.6 4-8v-16ZM585 296.4v.2a5.3 5.3 0 0 1-5.3 5.3h-22a5.3 5.3 0 0 1-5.3-5.4V252.6a5.3 5.3 0 0 1 5.3-5.3h6a5.3 5.3 0 0 1 5.3 5.3V285.9a5.2 5.2 0 0 0 5.3 5.3h5.4c2.9 0 5.2 2.3 5.2 5.2Z" class="cls-3"/><g style="clip-path:url(#clippath)"><path d="M181.2 344.9h21.4v21.4h-21.4zM224 344.9h21.4v21.4H224zM138.4 344.9h21.4v21.4h-21.4zM266.9 344.9h21.4v21.4h-21.4zM309.7 344.9h21.4v21.4h-21.4zM352.5 344.9h21.4v21.4h-21.4zM395.4 344.9h21.4v21.4h-21.4zM438.2 344.9h21.4v21.4h-21.4zM481 344.9h21.4v21.4H481zM523.9 344.9h21.4v21.4h-21.4zM566.7 344.9h21.4v21.4h-21.4zM159.8 323.5h21.4v21.4h-21.4zM202.6 323.5H224v21.4h-21.4zM245.4 323.5h21.4v21.4h-21.4zM288.3 323.5h21.4v21.4h-21.4zM331.1 323.5h21.4v21.4h-21.4zM373.9 323.5h21.4v21.4h-21.4zM416.8 323.5h21.4v21.4h-21.4zM459.6 323.5H481v21.4h-21.4zM502.5 323.5h21.4v21.4h-21.4zM545.3 323.5h21.4v21.4h-21.4zM588.1 323.5h18.4v21.4h-18.4zM609.6 344.9H631v21.4h-21.4zM652.5 344.9h21.4v21.4h-21.4z" class="cls-12"/><path d="M566.8 344.9h21.4v21.4h-21.4zM695.3 344.9h21.4v21.4h-21.4zM738.1 344.9h21.4v21.4h-21.4zM588.2 323.5h21.4v21.4h-21.4zM631 323.5h21.4v21.4H631zM673.9 323.5h21.4v21.4h-21.4zM716.7 323.5h21.4v21.4h-21.4zM759.5 323.5h7.1v21.4h-7.1z" class="cls-12"/></g><path d="M0 535.3h1080v32.5H0z" class="cls-4"/><path d="M0 554.4h1080v20.5H0z" class="cls-12"/></g></svg>