<svg xmlns="http://www.w3.org/2000/svg" id="Layer_2" data-name="Layer 2" viewBox="0 0 1026.7 746.5"><defs><clipPath id="clippath"><path d="M754.7 31.2s14.8-37.7 42.3-14l5.8 10s19.2 36-1.4 62.3c0 0-8.4 19.6-31.3 13 0 0 2.4 26.1-23.6 26.6 0 0-17-2.4-6.1-38.2 0 0-32.2-7.1-28.6-39.6a28.5 28.5 0 0 1 17.3-23.5c6.7-2.7 15.5-3.2 25.6 3.4Z" class="cls-12"/></clipPath><clipPath id="clippath-1"><path d="M14.6 604.5c-.2 1.3-.4 2.5-1 3.7-3.2 8.2-8.5 11.5-11.5 15.8 0 0-4.4 6.1-.5 21.4C6 662 76.3 693.2 177.1 722.6l.5.1.3.1v.5c.1.3 26-2.9 34.7-22.4 5.6-12.7 2.2-28-7-36-6.8-5.8-16-8.2-24.7-10.7-8-2.3-16-4.4-24-6.9-13.2-4-26-9.3-36-18a5.4 5.4 0 0 1-1.8-5.6 18 18 0 0 0-4.8-17.4c-7-7-18.3-8.9-27.7-11.5-18.9-5.1-37.9-9.9-57-14.3-2.5-.6-5.2.4-6.6 2.4a51 51 0 0 0-8.4 21.6Z" class="cls-12"/></clipPath><clipPath id="clippath-2"><path d="M256.5 657.5s-6.5-15.7-25-14.9c-18.4.9-22.4 15.8-25 15s-20.1-3.4-27.5 3.2c-7.4 6.7-9.2 57.2 13.9 63.8 23 6.6 95.8 3.3 99.6 0 3.7-3.3 16.6-54.6-36-67Z" class="cls-12"/></clipPath><clipPath id="clippath-3"><path d="M387 688.4s4.3-12.9 16.5-12.2c12.1.7 14.8 12.9 16.5 12.2s13.3-2.7 18.2 2.7c4.9 5.4 6 46.7-9.1 52.1-15.3 5.4-63.4 2.7-65.9 0s-11-44.7 23.8-54.8Z" class="cls-12"/></clipPath><clipPath id="clippath-4"><path d="M558.3 713c.6.7 1.1 1.6 1.5 2.6 2.8 6.4 2 11.2 2.7 15.2 0 0 1.2 6 11.3 12.7 11.1 7.5 63-11.6 129.1-47.8l.3-.2.2-.2c.2 0 .2.4.2.4.3 0 11.5-15.5 5.4-31.4-4-10.3-14-17.4-22.9-17.2-6.5.2-12.4 3.6-18.1 6.8-5.2 2.9-10.4 6-15.7 8.7-8.8 4.6-18 8.3-27.7 8.5-1.6 0-3-.8-3.8-2.3-2.4-4.4-7-7.3-11.8-7.5-7.2-.4-14 4.5-20 8-12.2 6.9-24.2 14.2-36.1 21.7-1.6 1-2.4 3-2 4.9.6 3.6 2.4 9.8 7.4 17Z" class="cls-12"/></clipPath><clipPath id="clippath-5"><path d="M497.4 158.3c-10.7-8.5-25.4-4.6-35.1 3.6l-2.4-.6c-6.4-1-14.1 1.2-19.2 5.5-4.9 4.2-4.8 11 .5 14.8 5 3.8 11.6 3.4 17.5 2.1l.6 1c5 5.4 13.4 4 20.3 2.1-.2 2.5-.3 5-.2 7.5 0 1.9 1.4 3.4 3.2 3.4 2.9 0 7.3 1 9-2.3.7-1.6.4-3.7.4-5.4v-5h.1c3-.4 5.8 1.3 6.6 3.8 1.1 3.3-1.6 6.5-1.8 6.7-.8 1-1.7 1.4-2.5 1.9-1.6.9-3.1 1.3-4.2 1.4l-.2.8a181.3 181.3 0 0 0-1 26.2l-.5.4c-.1.4-.2.7 0 1 0 .4.1.7.3 1a3.6 3.6 0 0 0 1.4 1.4l.9.3h.5a5.2 5.2 0 0 0 4.5-5c0-2.4-2-3.9-2.2-4 2.6-3 6.2-7.5 8.7-14 2-5 4-10.2 4.5-15.7 2.5-12 0-25.2-9.7-33Z" class="cls-12"/></clipPath><clipPath id="clippath-6"><path d="m225.5 88.7 2 16c-6 6-9 30-9 30-57 19-83-29-83-29l6.8-17.3c13.8-36.2 17.2-38.7 30.2-55.7s30-11 30-11l11 3 6-9c10-20 22-10 28-3s4 17 4 17 4 6 8 11.2 0 7.8 0 7.8l-20 10-9 4-.9 19.7a6.5 6.5 0 0 1-3 5.3 5 5 0 0 1-2.6.7c-1.5 0-2.5-.7-2.5-.7l1-20" class="cls-12"/></clipPath><clipPath id="clippath-7"><path d="M511.6 4.5s4 0 7 2c0 0 1 5-1 10 0 0-3 3-9 1l3-13Z" class="cls-12"/></clipPath><style>.cls-1,.cls-2{fill:#fff}.cls-4{fill:#e2ad98}.cls-7{stroke:#e88595;stroke-width:4px}.cls-10,.cls-11,.cls-12,.cls-13,.cls-7{fill:none}.cls-7{stroke-miterlimit:10}.cls-18{fill:#e59470}.cls-21{fill:#009698}.cls-22{fill:#f2c5b1}.cls-23{fill:#ffc5c5}.cls-10,.cls-11,.cls-13,.cls-2{stroke-linecap:round;stroke-linejoin:round}.cls-10,.cls-11,.cls-2{stroke-width:1.32px}.cls-10,.cls-13,.cls-2{stroke:#000}.cls-27{fill:#c4816d}.cls-28{fill:#9c5439}.cls-29{fill:#84341a}.cls-30{fill:#ffe0cf}.cls-31{fill:#de2025}.cls-32{fill:#04999b}.cls-11{stroke:#ff989b}.cls-36{fill:#fdef2e}.cls-37{fill:#ab0316}.cls-13{stroke-width:2px}.cls-39{fill:#ffbb97}.cls-40{fill:#ff9d75}</style></defs><g id="Layer_6" data-name="Layer 6"><path d="m400.9 256.2-31.3 16.4-27.2-19.8c0-1.5.1-3 .4-4.5 2.9-3.1 5.2-6.7 7.3-10.3 1.6-2.7 3-5.4 4.4-8 1.5-2.9 3.4-5.7 3.7-8.8 0-.8-.4-1.3-1-1.4v-.2c-1-.7-6.7 2.5-14.6 12.1-4.7 5.8-10.2 10.6-15.6 15.7-4.6 4.4-10.9 9.7-12.4 16.2-1.3 5.6 2.3 11.3 8 11.8L361 317s17.7 10.9 51.7-10.8l-12-50.1ZM538.5 272.8l26.8 23 31-13 .5-2.9c0-.9-.2-2-.6-2.8-1.8-3.4-3-7-4.2-10.5l-2.4-8.9c-.8-3-2-6.1-1.6-9.3.1-.8.7-1.1 1.2-1.1l.2-.2c1-.5 5.9 3.9 11.4 15 3.3 6.7 7.6 12.7 11.7 19 3.5 5.2 8.3 11.8 8.4 18.4 0 5.8-4.9 10.6-10.5 9.8l-47 31.8s-19.7 6.6-47.8-22.2l23-46.1Z" class="cls-39"/><path d="M709.6 93.8s-2.5 9.8 3.5 27.8l19.2-4.4-5-27.4-17.6 4Z" class="cls-1"/><path d="m714.8 61.6-10.9 24s-2.4 7.5 5.3 10.4c0 0 9.6-3.3 14.2.8 1.7 1.4 2.1 3.2 2.4 4.2 1.8 7.4-5.6 13.8-6.7 14.7a22.6 22.6 0 0 1-6.7 3.8 28.4 28.4 0 0 0 22.9 3.7c2.7-1.6 8.4-5.7 11.7-13 2-4.3 2.4-8.3 2.5-10.9l-1.8-20L722 68l-7.3-6.4Z" class="cls-27"/><path d="M754.5 31.4s14.8-37.6 42.3-14l5.8 10s19.2 36-1.4 62.3c0 0-8.4 19.6-31.3 13 0 0 2.5 26.1-23.5 26.6 0 0-17-2.4-6.2-38.2 0 0-32.2-7.1-28.6-39.6A28.5 28.5 0 0 1 729 28.1c6.8-2.8 15.5-3.3 25.6 3.3Z" class="cls-31"/><g style="clip-path:url(#clippath)"><path d="M812 77.2a39.2 39.2 0 0 0-18-20c-4.2-2.3-9.1-3.1-13.2-5.6-4.1-2.5-6.4-7-9-10.8-2.6-4.1-6.2-8.2-11.1-9.5a94 94 0 0 1-1.3-4.3c0-.8.5-3.5 1-5.9l-4-.7c-1 6-1 6.5-1 6.7 0 .3 0 1 2 7h.2c.2.4.6.7 1.2.8 4.4.9 7.3 4.4 9.6 8 2.5 3.7 4.8 7.9 8.4 10.8 3.8 3 8.5 3.9 12.9 5.7a34.5 34.5 0 0 1 18.5 18.8c.4 1 1.4 1.7 2.5 1.4 1-.2 1.8-1.4 1.4-2.4ZM802.5 92.8c-3.9-2.2-7.2-5.4-9.6-9.3-1.1-1.8-2.2-3.7-3.7-5.3a12.4 12.4 0 0 0-6.1-3c-2-.5-4-1-5.7-2.2a16.4 16.4 0 0 1-3.8-4.2c-2.2-3.4-3.7-7.2-6-10.6-2.5-3.8-6-7.4-10.8-8.1-1-.2-2.1.3-2.4 1.4-.3 1 .3 2.3 1.4 2.4 8.1 1.3 10.6 11.4 14.6 17.2 2.4 3.5 5.5 6.3 9.7 7.4 1.9.6 4.1.8 5.7 2 1.7 1.4 2.7 3.4 3.8 5.2 2.7 4.4 6.4 8 10.9 10.6 2.2 1.3 4.2-2.2 2-3.5ZM769.3 23.5l1.8 1c0-.2 2.4-4.4 1.2-8.8-.9-3 .2-6.6.2-6.6l-3.8-1.2a18 18 0 0 0-.3 9c.8 2.7-.8 5.6-.8 5.6l1.7 1ZM780.6 20.3l3.9 1c.3-1.3 1.2-5.7-.3-8-.6-1-1-3.4-1-4.9l-4 .2c0 .7.2 4.6 1.6 6.8.4.6.3 3-.2 4.9ZM792.5 22l1.8-6.5 3.9 1-1.8 6.5zM754 49l.6-3.9h.2s-2.7-1.7-.4-13.7l-4-.8c-1.5 8.2-1.2 13.8 1 16.6a4.2 4.2 0 0 0 2.7 1.9Z" class="cls-23"/><path d="M776.8 85.6a23 23 0 0 1-6.1-2.6 27.9 27.9 0 0 0-12.2-8.1c-18.4-20.6-10-46.7-10-47.1s-1.8-.7-1.8-.7l-2-.6c-.3 1.2-9.4 29 11.2 51.5l.4.4.4.1c-.8 4.5 1.5 10 1.8 10.8l.2.4.4.4s4.7 3.8 8.4 12.2c3.5 8-2.8 19-2.9 19.2l3.5 2c.3-.5 7.4-13 3-22.8a40 40 0 0 0-9.1-13.4c-.8-2-1.6-5-1.5-7.2 2.2 1 5 2.9 7.3 5.6l.2.3.2.1c.1.1 3.4 2.2 7.6 3.3a21 21 0 0 1 12.6 14.5l3.9-.9a24.8 24.8 0 0 0-15.5-17.5Z" class="cls-23"/><path d="M756.3 99.5c-2.1 0-3.5-2.6-4-3.4l-1-14.5-.5-.5a54.8 54.8 0 0 1-16.2-53.4l-3.8-1.2a52 52 0 0 0-1.5 18.7c.8 10 4.7 24.5 18 38.2l1.1 13.6.1.3c.1.2 2.2 5.5 6.9 6.1.4 3.4-2.6 16-5.8 26.6l3.8 1.2c3.7-12.1 7.6-27.3 5.1-30.6a2.7 2.7 0 0 0-2.2-1.1Z" class="cls-23"/><path d="m719.3 35.8-4-.6a50.6 50.6 0 0 0 26.5 56c-4 9.5-3.5 31.7-3.5 34.3h4c-.1-7.5.2-28.3 4-34.2l1.2-2-2.2-1a46 46 0 0 1-26-52.5ZM795.3 39.1l5.4 7.6c4.3 6 8.2 6.9 10 6.9.6 0 1-.1 1.1-.2l-.5-1.9-.4-2s-3 .4-7-5.2a782 782 0 0 0-5.4-7.5 41.1 41.1 0 0 0-13-11.4c-4-2.3-7-4.5-7-4.5l-2.3 3.2c.1.1 3.2 2.3 7.4 4.7 4.7 2.7 8.6 6.2 11.6 10.3Z" class="cls-23"/></g><g id="Layer_3" data-name="Layer 3"><path d="M141.4 315a923.7 923.7 0 0 0-112 282.2l66.7 9 124.1-277-78.8-14.3Z" class="cls-22"/><path d="M15 604.5c-.2 1.3-.5 2.5-1 3.8-3.2 8.1-8.5 11.5-11.5 15.7 0 0-4.4 6.1-.5 21.4 4.2 16.7 74.7 47.9 175.4 77.2l.6.2h.3c.1.1-.1.4-.1.5.2.3 26.1-2.8 34.8-22.3 5.6-12.7 2.2-28-7-36-6.8-6-16-8.3-24.7-10.8-8-2.3-16-4.4-24-6.9-13.2-4-26-9.3-36-18a5.4 5.4 0 0 1-1.8-5.6 18 18 0 0 0-4.9-17.4c-7-7-18.2-8.9-27.6-11.4-19-5.2-38-10-57-14.4-2.6-.6-5.2.4-6.7 2.4a51 51 0 0 0-8.3 21.6Z" style="fill:#c11623"/><g style="clip-path:url(#clippath-1)"><path d="m113 658.2 25.1-21.3-6.2-6.1-29.9 25.3" class="cls-1"/><path d="M102 656.1c.4 1 1.3 2.7 3.1 4.3a12 12 0 0 0 3.1 1.8l4.8-4M151.5 636.8l-30.1 25.1c0 .5.2 2.7 2.3 4.8a9 9 0 0 0 5 2.3l4.5-3.8 25.5-21.3-7.2-7.1ZM140.7 667.8c.1.5.6 3 3.2 5.5 2.4 2.3 5.1 3 5.7 3l30.4-24.8-8.9-8.6-30.4 24.9M61.2 621.7l3.3-7c34.1 13.6 56.2 8.4 56.4 8.3l2.2 7.3c-1 .2-24.8 6-61.9-8.6ZM-5.2 637.6l4.8-6.3c1 .7 99.7 63.4 208.7 76.2l-1 7.6c-58.2-6.8-112.8-27.5-148.5-43.6a557.5 557.5 0 0 1-64-33.9Z" class="cls-1"/></g><path d="M329.8 247.2c3-4 2.4-2.6 11.3-12.8 6.2-7 12-14 14.6-17.2.8-1 1-4.6-.3-5.5-3-2-13.5 7.4-18.8 12.8-4 4-8.7 7.1-12.6 11.2l-3.2 2c-1.2.7-2.6.7-3.5 0l-27.5-20.8S268.2 198.8 251 192c0 0-30-26.6-47-31 0 0-6.7-6.4-20.9 12 0 0-4.7 10 0 17.4 4.7 7.3 18.7 20.4 43.3 35 24.6 14.5 39 22.4 39 22.4s17.7 10 24.7 13l4 1.8a16 16 0 0 0 11.2 4.5c6.4-.2 11.2-4 13.4-5.7 4.7-3.8 5.2-6.5 11-14.2Z" class="cls-22"/><path d="M245.6 200.5c4.8 2.1 8 4.8 10 7 13 14 6.6 36 6 38l-7.5-4.1-8.5-40.9Z" class="cls-4"/><path d="M368.7 312.5a35.3 35.3 0 0 0 29-9.7l8.9 6.7c-4.4 3-10.1 6.2-17.2 8.2a44.1 44.1 0 0 1-20.8 1.8c-3-.5-5.3-1.3-7-1.9l7-5.1Z" style="fill:#e59470;opacity:.6"/><path d="M613.5 283.7a138.3 138.3 0 0 1-17.8-25.4c-6.9-12-6.6-13.4-6.1-13.8 1.3-1.2 7.4 2.7 11.2 6.3 8.7 8 10.6 10 10.6 10 .3.4 1.4 1 2.7 1.9a3 3 0 0 0 3.4-.1l87.2-95.4 25.8 24.8s7-6 18.3 10.7c0 0 3.4 9.2-1.7 15.9-5.1 6.6-19.5 18.7-43.9 32.1-24.4 13.5-38.6 20.8-38.6 20.8s-17.4 9.2-24.2 12l-3.9 1.7c-.9 1.4-5.2 7.8-11.6 7-2-.2-4.7-1.2-11.4-8.5Z" class="cls-28"/><path d="m162.6 458.5 13.9-30.3-16.8-69.1-23 3.2 25.9 96.2Z" class="cls-4"/><path d="M151.6 335.9c10.3 81.8 30.5 248 29.6 288.8l2.2 36.2 69.7-3.7-11.5-346.7" class="cls-30"/><path d="M244.2 388.7s-57.6 11.6-87.6-8.8l2.3 15.7s-43.1-9.6-46.2-25.4l6-10.3 72-11.5 43.3-6.6 10.2 23v23.8Z" class="cls-4"/><path d="M557.4 281.8a16.1 16.1 0 0 0-13.1-5.4c-9 .5-9 14.5 0 14l-2.2 4.8-1.8 3.3a7.6 7.6 0 0 0-4.3-2.7c-6.5-1.7-13.7 3.3-15.5 9.4a14 14 0 0 0 6.2 16c3 1.7 7 2.4 10 .5.7-.4 1.3-1 1.8-1.4l1-.2c.6 0 1.1 0 1.7-.3 5-2.1 6.6-5.6 9-10.2l7.9-14.7c2.4-4.7 3-9-.7-13.2Z" class="cls-31"/><path d="M250.5 75.8s4 8.7 2 26.7l-17.9-.4-.7-26.5 16.6.2Z" class="cls-1"/><path d="M268.2 152.3A29.9 29.9 0 0 0 245 140c-.3-1.4-.7-2.7-1.1-3.7l-68.7-2.8a223.3 223.3 0 0 0-25.3 92.7 206.6 206.6 0 0 0-35.1 45.4A194.2 194.2 0 0 0 92.4 332a11 11 0 0 0-7.4 9.7c-.2 4.2 2 8.5 6.3 10.3 11.1 12.2 51.7 43.6 163.6 22.6v-1.2c6.1-4.1 6-13.7-.1-17.7l-.6-47.2c6.2-12 7.8-25.9 7.2-39.2-.5-12-2.7-23.8-8.6-33.7 2-9.2 2.8-18.8 2.5-28.1-.1-2.7-.7-5.3-1.7-7.8 2-1.3 3.8-2.9 5.6-4.4a41 41 0 0 0 13-22.5c1.1-7.2.4-14.3-4-20.6Z" class="cls-31"/><path d="m251 53 5 15s2 7.6-5 10.3c0 0-13-5.3-15 4.7s2 16 4 17l-13 5-6-16 4-8 2-23 13-8 11 3Z" class="cls-30"/><path d="m222.6 67.5-1 20s1 .8 2.5.8a5 5 0 0 0 2.5-.8c1.9-1.1 3-3.2 3-5.3l1-19.7 9-4 20-10s4-2.6 0-7.8-8-11.2-8-11.2 2-10-4-17-18-17-28 3l-6 9-11-3s-17-6-30 11S156 52 142.3 88.3l-6.7 17.2s26 48 83 29c0 0 3-24 9-30l-2-16" style="fill:#ffa4af"/><path d="M525.5 71.6c-.7-8.3.2-5.8 0-28.1 0-15.4-.5-30.2-.8-37a6.7 6.7 0 0 0-7.4-6.5c-6.2.8-9 22-9.8 31.6 0 0-1.5 20.8-3.9 28.4l-1.1 3.6-2.1 6a6 6 0 0 1-5.2 3.8l-66.3 4.2s-54.2 1-87.5 11.3c0 0-77.4-.3-107.4 12.8 0 0-18-.6-15 37.4 0 0 6 17.6 22 21.5 16 4 53 5 107.2-3.9 54.1-8.8 85.2-14.6 85.2-14.6s38-6.9 52-10.8l8.1-2c3.3.2 13.3 0 22-6.8 9-7 11.1-17 12-21.4 2.1-9.8-.6-13.7-2-29.5ZM221.6 64.5v22.1l-3-4.1s-5.4 2.3-8-3.2c-.8-1.5-1-3.2-1-4.8 0-3.5.8-10 4.7-10 5.3 0 4.3 5 4.3 5l3-5Z" class="cls-30"/><path d="M215.8 72.1v-.4l-1-3.6c-.2-.6-1.1-.4-1 .3.4 1 .7 2 .9 3.1-1 .1-2 .8-2.2 1.9-.2 1 .2 2.4 1.2 3 .4.4 1 .4 1.5.2v2.7c-.1.6.9.6 1 0 .1-2.4 0-4.8-.4-7.2Zm-1 3.6h-.4a1 1 0 0 1-.5-.3c-.3-.3-.4-.8-.4-1.2 0-.5 0-1 .4-1.3.2-.3.6-.4 1-.4l.3 3-.3.2Z" style="fill:#f96"/><path d="M92.4 332s55.6 53.8 162.4 23.7" class="cls-13"/><path d="M256.2 657.7s-6.4-15.7-25-14.9c-18.4.9-22.5 15.8-25 15s-20.2-3.4-27.6 3.3c-7.3 6.6-9.2 57.1 13.9 63.7 23 6.6 96 3.3 99.7 0 3.7-3.3 16.7-54.6-36-67Z" class="cls-31"/><g style="clip-path:url(#clippath-2)"><path d="M296.2 690h-80.5c-5.2-1.7-8.4-4.9-8.2-7.9 0-.6.3-1.5 1.1-2.5h84l3.6 10.4ZM306.4 690.9h-10.2M289.4 674.6l-81.4-.3c-.5 0-6-1.1-7.2-4.1-.5-1.1-.3-2.1 0-2.8h78.7s9.6 5 9.9 7.2Z" class="cls-1"/></g><path d="M296.2 708.8c-6.8 1-85.4 11.6-120.9-8.3a50.8 50.8 0 0 0 2.3 8 143 143 0 0 0 27.8 7.4 247.3 247.3 0 0 0 44 2.5c21.3-.4 39.7-2.6 46.1-3.5l.7-6" class="cls-1"/><path d="M448.1 182s-3.2 5.4-4.5 22.5-1.9 35 13.4 35.7l-1.2 17.7c2.7 5 8 8 13.4 7.5s10.1-4.2 12.2-9.6l8.9-9.5-1-17.2 3-28.7 7.6-4.7-1.3-12.3-14-4.2L448 182ZM444.7 517.5c-3.6 43.6-10.5 132.1-8.1 153.7v19.2H388l1.8-19.2S378.6 547 384 498" class="cls-39"/><path d="m444.7 517.5 2.1-24.5-10.2-1.5-46.7-12.9c-3 1.6-4.8 8.7-6 19.3a87 87 0 0 0 31.6 17 77.4 77.4 0 0 0 29.2 2.6Z" class="cls-40"/><path d="M488 478.6s14.5 118 68.2 206.5l6.2 10.6 44.3-27.6L542 454.9l-54.2 23.7Z" class="cls-39"/><path d="m488 492 59.3-20 7 23.4S521.4 512 492.4 506L488 492Z" class="cls-40"/><path d="m475 405.6-5.6 86.6c-.1 2.2-2.1 4-4.6 4.2-41.6 4.2-88-11.1-102-16.2-2.4-.8-3.7-3.1-3-5.3.3-14.4 2.4-33.6 9.7-55.4a202.5 202.5 0 0 1 24.3-49.2c1.4-1 3-3.6 5.8-3.2 16.2 2.1 72 8.4 106.7-1.7 2.2-.6 4.2 1.3 6.5 2.5 14.5 7.4 14 22.8 19.7 40 11.2 33.9 36.5 45.5 28.2 63.1a22.4 22.4 0 0 1-3.7 5.5 218.7 218.7 0 0 1-79.2 18c-.4 0-2.3.4-4.1-.6-1.2-.6-2-1.6-2.4-3L452 406.3c-.7-2.8 1.8-5.3 5-5.3h12.9c3 0 5.4 2.1 5.2 4.7Z" style="stroke:#009799;stroke-width:2.37px;fill:#009698;stroke-miterlimit:10"/><path d="M511.4 368.6c-16 9.6-78.6 9-96.5 6.9s-19.9-8.8-19.9-8.8c-4.5-17 17.3-46.6 17.3-46.6-8.3 3.4-11.5-6.8-11.5-6.8a222.9 222.9 0 0 1-10.2-58.8c3.3-6.5 9-10.3 14.7-9.6 3.3.4 5.7 2.2 7 3.4 31.3-15 42.2 3.4 42.2 3.4s3.2 22.6 16.6 15.8 21.8-19.2 21.8-19.2 16.6-7.5 25.5-6.1c9 1.3 19.8 4.7 27.5 16.4 7.7 11.6 10.2 30.7 10.2 30.7" class="cls-31"/><path d="M434.7 326.3s18.5-14.4 44.7-2.1" class="cls-10"/><path d="M458.2 255.2s11.2 13 31.9-12.7l1 10.5-21.9 12.4-13.7 1.5 2.7-11.7Z" class="cls-40"/><path d="M359 464.9a227.6 227.6 0 0 0 107.5 16.7c2.4.1 16.4 1 34.6-1.1 17.6-2 42.4-7 62.2-20 .1-1.2-2-5.6-2-5.6h-.1c-36.3 25-93.9 21.2-94.4 21.2h-.7c-59.4 6-106-17-106.5-17.2l-.8 5.9h.2" class="cls-31"/><path d="M412.4 248.2s1.2 10.3 9.5 12.4" class="cls-10"/><path d="M455.6 374.8s-1 65.8 15.3 119" style="stroke-width:1.19px;stroke:#000;stroke-linecap:round;stroke-linejoin:round;fill:none"/><path d="M558.5 712.7c.6.8 1.1 1.7 1.5 2.7 2.8 6.5 2 11.2 2.7 15.3 0 0 1.2 5.8 11.3 12.6 11.1 7.5 63-11.6 129.1-47.8l.3-.2.2-.1c.2 0 .2.3.2.3.3 0 11.5-15.4 5.4-31.4-4-10.3-14-17.4-22.9-17.2-6.5.2-12.4 3.6-18.1 6.8-5.2 2.9-10.4 6-15.7 8.7-8.8 4.6-18 8.3-27.7 8.5-1.6 0-3-.8-3.8-2.3-2.4-4.4-7-7.3-11.8-7.5-7.2-.4-14 4.5-20 8-12.2 7-24.2 14.2-36.1 21.7-1.6 1-2.4 3-2 5 .6 3.5 2.4 9.7 7.4 17Z" class="cls-21"/><path d="M488.8 247.1a63.9 63.9 0 0 1-17.2 15.4c-2.8 1.7-6.1 2.6-9.1.8a9 9 0 0 1-4.3-8c0-5-7-5-7 0-.3 9.7 8 17.8 17.2 16.3 5-.8 9.3-4 13.2-7.1 4.5-3.6 8.5-7.6 12.2-12 3-3.7-2-9-5-5.4Z" class="cls-37"/><path d="M387.2 688.5s4.2-12.8 16.5-12.1 14.9 12.8 16.6 12.1 13.3-2.7 18.1 2.7 6.1 46.8-9.1 52.2c-15.3 5.4-63.4 2.7-66 0s-11-44.7 23.9-54.9Z" class="cls-21"/><g style="clip-path:url(#clippath-3)"><path d="M360.8 715h53.1c3.5-1.5 5.6-4 5.5-6.5 0-.5-.2-1.3-.8-2h-55.4l-2.4 8.4ZM365.3 702.3l53.7-.2c.3 0 4-1 4.8-3.4.3-1 .2-1.7 0-2.2h-52s-6.3 4-6.5 5.8Z" class="cls-1"/></g><path d="M360.7 730.3c4.5.8 56.5 9.4 80-6.8a47 47 0 0 1-1.6 6.5 80.4 80.4 0 0 1-18.3 6.1 132.3 132.3 0 0 1-29.1 2c-14.1-.3-26.3-2.1-30.5-2.8l-.5-5" class="cls-1"/><g style="clip-path:url(#clippath-4)"><path d="m636.3 692.1 1-25.6-6.4-.3-1.2 30.5M629.7 696.7a8 8 0 0 0 6.4.3l.2-4.9M644 659.3l-1.5 30.6a5.7 5.7 0 0 0 7.4.3l.2-4.7 1.3-25.9-7.5-.3ZM655.3 683c.3.3 1.9 1.5 4.5 1.5a8 8 0 0 0 4.5-1.2l1.8-30.5-9-.3-1.9 30.5M590.8 698.2l-2.1-5.7c24.3-10.2 32.5-24.9 32.6-25l5 3c-.4.7-9.1 16.7-35.5 27.7ZM566.3 742.6l-1-6.2c.8-.1 83.8-15.8 145-66l3.6 5a334.5 334.5 0 0 1-97.5 53c-28.6 10.2-50 14.2-50.1 14.2Z" class="cls-1"/></g><path d="M457 240.2s5.6 1.9 16-3.6" class="cls-10"/><g style="clip-path:url(#clippath-5)"><path d="M497.3 158.3c-10.7-8.5-25.4-4.6-35.1 3.7l-2.4-.6c-6.4-1-14.1 1.2-19.2 5.5-4.9 4.2-4.8 10.9.4 14.8 5.1 3.7 11.7 3.4 17.6 2 .1.4.3.7.6 1 5 5.4 13.4 4 20.3 2.2-.2 2.5-.3 5-.2 7.5 0 1.8 1.4 3.4 3.2 3.4 2.9 0 7.3 1 9-2.4.7-1.5.4-3.6.4-5.3v-5l.1-.1c3-.4 5.8 1.3 6.6 3.8 1.1 3.4-1.6 6.6-1.8 6.8a13.2 13.2 0 0 1-6.6 3.3l-.3.8a181.3 181.3 0 0 0-1 26.2c-.2 0-.4.2-.5.4-.1.3-.2.7 0 1 0 .4.1.7.3 1a3.6 3.6 0 0 0 1.4 1.3l.9.4h.5a5.2 5.2 0 0 0 4.5-5c0-2.4-2-4-2.2-4 2.6-3 6.2-7.6 8.7-14 2-5 4-10.3 4.5-15.8 2.5-12 0-25.1-9.7-33Z" class="cls-31"/><path d="M438.3 169.6s21.3-9.6 33.2 1.7c0 0 14.7-17.9 33-4" class="cls-11"/><path d="M445.4 183.8s10.5-15.6 27-8c1.5-1.5 9.5-9.2 21.1-8.2 6.5.6 11.2 3.8 13.4 5.5" class="cls-11"/><path d="M461.5 186.8c.4-1 1.5-3.3 3.9-4.8 4.5-3 9.5-.2 9.9 0 1.5-1.6 7.3-7.1 16.5-7.6 8-.4 13.9 3.5 15.7 4.8M462.2 162s5 .8 7.6 2.9c0 0 13.7-13.5 29.2-5" class="cls-11"/></g><path d="M435.3 293.6c-.2-1.8-2-3-3.5-2.3-9.6 4-25.6 9-30.5 10.4l-3.6 1 3 10.5a10 10 0 0 0 7.5 7.5c3.6.7 4.6-1.2 4.6-1.2l21.4-21.3c1-.9 1.2-2.8 1-4.6Z" class="cls-37"/><path d="M436.6 296.9a99.5 99.5 0 0 0-24.3 23.2" class="cls-10"/><path d="M508 329.2s-29.4 39.2-68.3 47.5c0 0 67.2 9.7 75.5-14.2l-7.2-33.3Z" class="cls-37"/><path d="m560.6 316.7-3.8-17.7-2.6.6c-5.2 1.7-20.7 4.2-32.7 6-1.2-6.7-9.3-55.3-7.4-63.7 0-.3-.2-.6-.6-.6l-13.7 2.7c-.7.1-1.1.7-1 1.4.6 8.4 4.5 57 7.4 62.2 0 .1.1.2.3.2-5 .8-7.2 4.8-7.2 4.8s8.3 50.6 12.2 51 23.6 64.8 23.6 64.8c6.4.2 28-5.7 28-5.7s7.1-3.4 7.8-5.5-10.3-100.5-10.3-100.5Z" class="cls-1"/><path d="M535 428.4a56 56 0 0 0 7.7-18.7 478.2 478.2 0 0 0-21.2-104M542.7 409.7a60 60 0 0 0 28.1 7.5l-6.5-66.6s-3.8-45.6-7.5-51.6" class="cls-2"/><path d="m457.5 221.2 1.4.2c2.6-.2 10.3-1 15-5.8 3.9-3.9 6-1.9 6.8-.1.5.8.7 1.9.5 2.8-.5 4-3.4 15.9-17.4 15.6-16.2-.2-10.1-13.5-6.3-12.7Z" class="cls-1"/><path d="M451.3 206.6c.2-3 2-5.5 4.5-6.2 2.7-.7 4.8 1.2 5 1.4 2 1.7 2.3 4 2.3 4.4" style="stroke-width:1.32px;stroke-linecap:round;stroke-linejoin:round;stroke:#ff9d75;fill:none"/><path d="M447.9 192.7s2.3-2.4 5.1 0M461.6 194.8s2.4-4.7 7.9-2.6" class="cls-10"/><path d="M461.6 194.8s4.2-3 8 1.6" class="cls-10"/><path d="M570.5 418c-3.4 5.6-26.3 9.8-24.2 9.5l-11.8 1.9" style="stroke:#000;stroke-width:1.37px;stroke-linecap:round;stroke-linejoin:round;fill:none"/><g style="clip-path:url(#clippath-6)"><path d="m261.3 53-18.7-21V21.1s0-16.1-21 3.9c-4.2-.2-10.4 0-17.6 2-3 .8-25.2 7.4-32.9 26-3.7 8.8-1.2 13.7-7.5 25-4.7 8.4-8.3 9.7-10 10-5.4 1-13-3-13-3" class="cls-7"/><path d="M244.8 56s-5.7-37.5-21.7-15.5l-12 1s-18.7-2.5-25.6 25.3a64 64 0 0 1-9.1 20.4c-7.5 11-19.8 26.3-34.3 32.3M203 85.5s7 32-34 52M211 85.5s12.7 24.3-12.6 53.6" class="cls-7"/><path d="M224.7 85.5s.4-43 6.4-40c0 0 2.7-1.2 4.8 17M208.6 60.3s-10.2-9.6-16.4 20.1c-.6 2.8-.9 5.7-1 8.5-.2 4.8-2.9 15.8-20.1 28.6" class="cls-7"/></g><path d="M207 21.4c-.1-.9.1-1.7.7-2.4 1.2-1.3 3.5-3.2 7.3-4 1.9-.5 3.6-.6 5-.5 2.3.1 4.2 1.6 4.2 3.4l2.9 60.9c0 1.7-1.5 3.1-3.8 3.3h-.1c-2.5.3-4.8-1.1-5.2-3l-11-57.7Z" class="cls-31"/><path d="M525.1 72.2c-.7-8.2.2-5.7 0-28.1 0-15.4-.6-30.2-.8-37a6.7 6.7 0 0 0-7.4-6.4c-6.3.8-9.1 22-9.8 31.5 0 0-1.5 20.8-4 28.4 0 .5-.4 1.5-1 3.7l-2.1 5.9a6 6 0 0 1-5.3 3.8l-66.2 4.3s-54.3 1-87.6 11.2c0 0-77.3-.3-107.4 12.8 0 0-18-.6-15 37.5 0 0 6 17.6 22 21.5 16 3.9 53.1 4.8 107.2-4s85.2-14.6 85.2-14.6S471 135.9 485 132l8-2c3.4.1 13.4 0 22.1-6.8 9-7.1 11-17 12-21.5 2-9.8-.6-13.7-2-29.5Z" class="cls-1" style="clip-path:url(#clippath-7)"/><path d="M371.6 278.8c-.2-2.1-.6-4.2-1.8-6-.3-.6-1.2 0-.8.5a12 12 0 0 1 1.6 5.7c.2 2.1.2 4.3-.5 6.3-.2.6.8.9 1 .3.7-2.2.7-4.5.5-6.8ZM361.6 317.6s4.3.6 7-5.1c.5-1-.6-1.8-1.4-1.3-2.8 2-7.2 4.4-8.7 3-2.3-2.2 3.1 3.4 3.1 3.4ZM332 269a24.7 24.7 0 0 1-6.3 4.7c-.8.4-1.7.9-2.7 1-.5 0-.6.6-.3.8l.9 1c2.5 0 4.2-1 5.1-1.5 2.6-1.6 4-4.4 4.1-5.6 0-.4-.6-.6-.8-.3ZM563.2 302.1c.1-2 .5-4.2 1.7-6 .3-.6 1.2 0 .9.5a12 12 0 0 0-1.7 5.7c-.1 2.1-.1 4.3.5 6.3.2.6-.7.9-1 .3-.6-2.2-.6-4.5-.4-6.8ZM603 300.3a25.2 25.2 0 0 0 4.7 6.2c.7.7 1.4 1.4 2.2 1.8.5.1.4.7.1 1-.4.1-.8.3-1.1.6-2.4-.8-3.8-2.2-4.5-3a9.1 9.1 0 0 1-2.3-6.5c.1-.5.8-.5 1-.1Z" class="cls-18"/><path d="M721.9 78c-.6-.6-1.5-.6-2.1 0h-.2c0 .2-.2.3-.3.3h-.2a3.3 3.3 0 0 1-.5.2h-.6l-.4-.1h-.2l-.3-.3-.2-.1-.2-.3c-.1-.1 0 0 0 0h-.1l-.2-.4c-.1-.2 0-.2 0 0V77l-.2-.5c-.1-.7-1-1.2-1.8-1-.8.3-1.2 1-1 1.8a5.2 5.2 0 0 0 3.3 3.9c1.8.6 3.8 0 5.2-1.2.6-.5.6-1.6 0-2.1ZM716.7 77.7ZM716.4 77.3v-.1ZM249 60.8a6 6 0 0 0-5.8-1.5 6 6 0 0 0-4 4.1c-.2.8.2 1.7 1 1.9.8.2 1.6-.2 1.9-1l.1-.5.1-.2.3-.4.2-.2.3-.3.2-.2.4-.2.3-.1.4-.1h1l.6.2.2.1.3.2.3.3c.6.6 1.6.6 2.2 0 .5-.6.6-1.5 0-2.1ZM351.9 220a522.8 522.8 0 0 1-38 44.9c-.4.4.3 1.1.8.7a523.8 523.8 0 0 0 38-45c.4-.5-.5-1-.8-.5Z"/><path d="M589.4 247s19.3 38.7 32.2 44.1" class="cls-10"/></g><path d="M681.2 231.1a1169.7 1169.7 0 0 0-29 60L773 275.9a136 136 0 0 1-15.4-54l-76.4 9.2Z" class="cls-29"/><path d="M608.5 407.9c-5.1 27.2-9.8 55.4-14 84.6-6.7 4.2-10.7 12.6-8.4 20.3 1 3 2.4 5.7 4.4 7.9-6.6 49.8-11.1 97.4-14.1 142.5.8 2.6 4 11.8 13.6 17.9 12 7.4 24.3 4 26.3 3.5a876.6 876.6 0 0 1 88-253.5l-95.8-23.2ZM953.4 423a505.8 505.8 0 0 1-54.1 40.5 386 386 0 0 1-44 24.8 75.9 75.9 0 0 1-31.6 8.7 61 61 0 0 1-28.9-7.3c-7-3.6-13.3-9-19.7-13.7a1720.6 1720.6 0 0 1-88.4-69.4c-9-7.6-12.5-20.3-12.7-31.5a44.4 44.4 0 0 1 13.7-30.5c7.9-8.1 21.5-13 32.7-12.8 12.3.2 22.2 5.4 31.2 13 16.4 13.7 35.3 25 56.2 45 9.8 9.5 17.9 17.9 23.9 24.4a278.8 278.8 0 0 1 99.8-32.3l21.9 41.1Z" class="cls-28"/><path d="M762.5 242.1c-4-11.4 1.6-35.1 6-50.7a12.2 12.2 0 0 0-11.2-15.6l-55.6-2c-3.5 0-6.8 1.3-9.3 3.7-2.6 2.8-7 6.5-13.4 10-12 6.7 1.3 27.6-.1 38a96.4 96.4 0 0 1-10.3 23.6c-.5 1 0 2.2 1 2.4a153.2 153.2 0 0 0 92-7.3c.8-.3 1.2-1.2.9-2Z" class="cls-32"/><path d="M629.6 715.7c-3-12-8.7-32.1-14.3-35-8.1-4-26.5-8.5-26.5-8.5S585.9 665 573 658c0 0-21.4-.7-33.1 5.3-8.4-12.5-24.3-31.6-48.3-36.7-3.4-.7-11.7-2.4-17.3-.8M933 341.8c-7.9 9.3-18.4 24-18.2 35.7a8 8 0 0 0 4.2 6.8c7 3.8 23 15.2 26.5 41.1a8.2 8.2 0 0 0 3.4 5.6c3.5 2.4 9.3 6.1 14.7 7.9 2.8.9 4.8 3.2 5.5 6.1 3.6 15.7 16.1 62.1 41.1 74.3l10.9-11-7.2-57.7-14-50.5-33.2-45-33.8-13.3ZM629.6 715.7l-37.6 9.5-63.4-18.4-33.3-31.2-21-49.7" class="cls-36"/><path d="m629.8 716.6-37.8 9.6-.3-.1-63.6-18.5-33.6-31.4-21.1-50 1.8-.7 20.9 49.5 33 30.9 62.9 18.3 37.3-9.5.5 1.9z" class="cls-21"/><path d="M629.6 715.7a320 320 0 0 1 1.5 6.3 3 3 0 0 1-2 3.4c-6.6 2.3-25.4 8.5-36.8 9-14 .8-60-16.5-68-20.5-14.7-7.3-23.5-24.9-43.6-56-9.9-15.2-14.3-24.2-11-29.1a8 8 0 0 1 4.6-3s44.2 69.3 54 76 63.7 23.4 63.7 23.4l37.6-9.5Z" class="cls-36"/><path d="M609 732.5a92.6 92.6 0 0 1-16.6 3c-14.6.7-61-17-68.6-20.7-12.2-6-20.3-19-33.8-40.4L480 658.5c-10-15.4-14.7-24.9-11-30.3 1.1-1.5 2.8-2.6 5-3.3l.8-.2.4.6c.4.7 44.2 69.2 53.7 75.6 9.2 6.3 59.1 22 63.2 23.3l38.3-9.7.2 1 1.5 6.3c.5 2-.6 4-2.5 4.6-4.3 1.5-12.3 4-20.5 6.2ZM473.8 627a6.6 6.6 0 0 0-3.2 2.3c-3.1 4.5 1.6 13.7 11 28.1l10 16c13.4 21 21.4 33.8 33 39.6 9 4.4 54.2 21.2 67.7 20.5 11-.6 29.2-6.5 36.5-9a2 2 0 0 0 1.3-2.3l-1.3-5.3-36.8 9.3h-.3c-2.2-.8-54.2-17-64-23.6-9.4-6.5-49-68.1-53.9-75.6Z" class="cls-21"/><path d="M1010.2 519.3v.6c.6 1.2 3.6 1 5.2 1.4 5 1.4 10-2.4 10.2-7.6.9-24.9-.4-99-42.3-146.9l-.7-.7c-3-2.8-24-21.6-35-29.8a8 8 0 0 0-10.8 1.1c-1.2 1.3-2.5 2.7-3.8 4.4a169.6 169.6 0 0 1 78 134.6c-.3 24.7-.6 41.5-.8 43Z" style="fill:#fcee2c"/><path d="M1019.7 522.3a9 9 0 0 1-4.6 0c-.4-.2-1-.2-1.7-.3-1.7-.2-3.5-.4-4-1.7a2 2 0 0 1-.1-1h1l-1-.1c.1-1.3.4-15.7.7-42.8a175 175 0 0 0-36.5-96.6 168.3 168.3 0 0 0-41-37.2l-1-.6.7-.8 3.8-4.4a9 9 0 0 1 12.2-1.3 715.5 715.5 0 0 1 35.8 30.7c18.1 20.6 30.7 48.4 37.5 82.5 5.4 27.8 5.5 52.7 5 65a9 9 0 0 1-6.8 8.6Zm-8.5-2.9c.2.4 1.7.5 2.4.6l2 .3a7.1 7.1 0 0 0 9-6.6c.8-22.2 0-98.2-42-146.3l-.7-.6a710.6 710.6 0 0 0-34.9-29.7 7 7 0 0 0-9.5 1l-3 3.5a170.3 170.3 0 0 1 40.6 37 177 177 0 0 1 36.9 97.8c-.4 27.5-.6 41.6-.8 43Z" class="cls-21"/><path d="M720 436.8c8.4 21 18 45 42.9 64.2 22.6 17.4 46.3 20.8 63 23.1 67.4 9.3 125.4-18.8 151.6-33.6l-70.3-108a231.7 231.7 0 0 0-81.4 22.5l-7.5-49.8 1.7-5.4c7.6-26.7 1.3-53.6-16.4-69-8.9-7.8-19-11.1-26.6-12.6 3.7-5.2-.7-14.8-9-13.3-35.1 6.6-70.7 9.2-106.4 8-8-.2-10.3 8.8-6.6 13.7A28910.2 28910.2 0 0 0 524.9 626l150 52.3 44.7-241.6-.3-1.8.7 1.9" class="cls-31"/><path d="M720.7 437.5a1 1 0 0 1-1.1-.6c-26.1-61-16.3-149.8-16.2-150.7a1 1 0 0 1 2 .3c-.2.8-9.9 89 16 149.6.2.5 0 1.1-.5 1.3h-.2Z"/><path d="M945.8 439.3c-.7.4-69.1 43.3-136.4 22-26.7-8.4-48.1-45.4-62-107a618.8 618.8 0 0 1-12.8-93.2V260l-4 .4h-.3l-9 1a633 633 0 0 0 13.1 95.7c15.1 67.5 39 106.8 71 116.9a163 163 0 0 0 89 .7c4.2-1 8.4-2.3 12.7-3.6 27.1-8.7 45.1-20.1 45.9-20.6l-7.2-11.2ZM637.5 320.7l-86.8 315-15.6-5.2 65.6-210.3 36.8-99.5ZM640.8 313.8 564 640.5l16.7 5.9 72.9-366.3-12.8 33.7Z" class="cls-1"/><path d="M805.7 364.4a1 1 0 0 1-.5-1.9c1.9-.5 3.6-1.2 5.2-2.2 9.6-6 10.8-18.7 11-22.4a1 1 0 1 1 2 0c-.2 4-1.6 17.6-12 24-1.7 1.1-3.6 2-5.6 2.5ZM694.4 281h-.2c-27.3 2.4-39.2-3.3-39.6-3.5a1 1 0 0 1-.5-1.3 1 1 0 0 1 1.3-.5c.2.1 12 5.7 38.7 3.4.5 0 1 .3 1 .9 0 .4-.3.9-.7 1ZM768.8 274.4a1 1 0 0 1-.5-2c5.3-1.3 7.9-4.7 7.9-4.8a1 1 0 0 1 1.4-.2c.4.3.5 1 .2 1.4-.1.2-3 4-9 5.6Z"/><path d="M929 415.4c-.2 0-20 10-88.8 22.2a30.2 30.2 0 0 1-24.4-6.4c-45-33.8-60.6-171.4-60.7-172.7l-.2-1.3-13.6 2 .1 1V260.5c1.3 11.3 17.4 145.2 66.2 181.7a43.8 43.8 0 0 0 35 9c24-4.3 42-8.3 55.7-11.7 27.4-7 36.6-11.7 37.2-12l-6.5-12.1ZM975.7 411.4a47.6 47.6 0 0 1-10 31.7c-.6.8 0 2.2.8 2.7 1 .6 2 .2 2.7-.7a51 51 0 0 0 10.4-33.6c-.1-2.6-4-2.6-4-.1ZM986.4 430.8a28 28 0 0 1-17.1 17c-2.4.7-1.5 4.6 1 3.7a32.1 32.1 0 0 0 19.9-19.6c.8-2.4-3-3.5-3.8-1.1ZM991.4 448.1c-6 3.8-13.3 4.1-20.1 4.4-2.5.1-2.6 4-.1 4 7.5-.4 15.5-.9 22-5 2.2-1.3.3-4.8-1.9-3.4ZM538.1 662.9c2.3 11 9 21.2 18.3 27.7 1 .7 2.4.8 3-.2.7-.9.6-2.6-.5-3.3a40.3 40.3 0 0 1-16.3-24.4c-.7-3-5-2.8-4.5.2ZM534 656.7c-1.7 1.4-2.2 3.6-2.7 5.7-.5 1.8-.8 3.6-1 5.4-.3 3.7 0 7.5 1.5 11a2 2 0 0 0 2.5 1.2c1-.4 1.6-1.6 1.2-2.6a18.8 18.8 0 0 1-1.3-8.8 30.8 30.8 0 0 1 1.3-6.8c.2-.6.4-1.6.8-2 .8-.6 1.1-1.8.4-2.7-.6-.8-1.9-1-2.7-.4ZM530.5 651.6a24.1 24.1 0 0 0-11.8 21.6c.1 2.5 4 2 4-.5a20.2 20.2 0 0 1 10-17.9c1-.5 1-2 .5-2.7-.7-1-1.8-1-2.8-.4Z" class="cls-1"/><path d="M552.7 77.5s44 7 68 14 127.8 34.9 148.4 36c0 0 37.6 7 40.6 32s-1 40-29 46c0 0-42-7-81-22s-133.7-47-133.7-47-7.2-5-19.2-4-23.9-6.5-24-19.7l1.8-51.4-.7-53.4a3 3 0 0 1 1.6-2.7c1.9-1 5.2-1.5 7.3 5.2 3 10 11 59 11 59s2.8 7 8.9 8Z" class="cls-28"/><path d="M738.5 120.4c1.7-.8 3.6-.8 5.4-.1 4 1.5 10.4 3.6 21 6.1 29.6 7.1 40.4 13 49.1 30 8.7 16.8-7.7 45.7-18.6 48.4s-45.9 8.8-64.5-.6c-1.7-.8-3-2.4-3.6-4.2-2.4-7.3-7.6-27.8 3-43.7 9.4-14.3 9-29 8.2-36Z" class="cls-32"/><path d="M756.4 126.1c-.5 7.7-2.5 26-9.8 40.7-8.3 16.6-2.4 40-2.3 40.2-.7.6-8.2-1.4-8.2-1.4-1.5-7.7-4-27 3.6-42.3a112 112 0 0 0 9-39.6l.4-.1 7.3 2.2v.3Z" class="cls-36"/><path d="m530.3 5.8-1 .5a2 2 0 0 0-1.2 1.4c-.2 1.2-.5 3.3-.5 5.8 0 4 6.3 1.6 6.3 1.6s-.9-8-3.6-9.3Z" class="cls-1"/><path d="M554.5 120.7c-.7-6.5-1-10.1-2-10.2-.8 0-2.3 3.6-5 21l1.2 1h2.9c1.7.1 1.7.2 2 0 .7-.2 2-1.6.9-11.8ZM635.3 123c-.2-.5-.7-1.5-1.5-1.5-.7 0-1.3.6-1.4 1.3a27.5 27.5 0 0 1-1.2 4.8c-1 2.8-1.9 3.2-2.8 4.6-.7 1 .2 2.3 1.3 2.3 1.7 0 4-1.6 5.3-3.6 1.7-2.8 1.3-6 .3-7.9Z" class="cls-29"/><path d="M746 99s5.2 2.4 8-3c.8-1.5 1.1-3.2 1.1-4.9 0-3.4-.6-10-4.5-10-5.3-.2-4.4 4.9-4.4 4.9" class="cls-27"/><path d="M748.5 95.8c0 .7 1 .7 1 0l-.1-2.6c.5.2 1 .2 1.6-.1 1-.7 1.3-2 1.2-3.1-.2-1.1-1.1-1.8-2.2-2l1-3c.2-.7-.8-1-1-.4-.4 1.2-.8 2.4-1 3.7l-.1.4c-.5 2.3-.6 4.7-.4 7.1Zm1.2-3.5-.3-.2.4-3c.4 0 .8 0 1 .4.4.3.5.8.4 1.3 0 .4-.2.9-.5 1.2a1 1 0 0 1-.5.3h-.4Z" style="fill:#993b25"/><path d="m352 127.6-.3-.3a10 10 0 0 1-1.3-1.4l-.3-.4-1-1.6-.1-.4-.4-1-.4-1.8v-.5a14.1 14.1 0 0 1 0-2v-.4l.6-1.9c.4-1.2-.5-2.7-1.8-3-1.4-.4-2.6.4-3 1.7-2.3 6.3.3 13.4 5.5 17.3 1.1.8 2.9.2 3.5-.9.7-1.3.2-2.6-1-3.4ZM493.5 129.3s-4.8-17.2-4.8-21.5c0-.5-.2-1.3-.4-1.3-.8 0-1.4 13-1.7 24l6.9-1.2Z" class="cls-23"/></g><path id="Layer_7" d="M764 209.2s-24.6-.8-36.4-5" class="cls-13" data-name="Layer 7"/></svg>