<?xml version="1.0" encoding="UTF-8"?>
<svg id="Layer_2" data-name="Layer 2" xmlns="http://www.w3.org/2000/svg" viewBox="0 0 689.82 982.24">
  <defs>
    <style>
      .cls-1 {
        fill: #fcef5b;
      }

      .cls-2 {
        fill: #fff;
      }

      .cls-3 {
        fill: #fcc0c0;
      }

      .cls-4 {
        fill: #d67b63;
      }

      .cls-5 {
        fill: #f2a7a7;
      }

      .cls-6 {
        fill: #cd3731;
      }

      .cls-7 {
        fill: #40979a;
      }

      .cls-8 {
        fill: #a0493d;
      }

      .cls-9 {
        fill: #e49b82;
      }

      .cls-10 {
        fill: #c46858;
      }
    </style>
  </defs>
  <g id="Layer_1-2" data-name="Layer 1">
    <path class="cls-9" d="m427.42,261.58l-26.45-164.2h0c.11-7.26-2.08-16.1-6.01-20.68-8.22-9.59-30.37-7.94-37.68,2.2-.9,1.25-1.53,2.56-2.38,22.13-.54,12.28-.8,18.57-.51,26.43.32,9.02,1.1,15.7,1.39,18.32,1.37,12.15,3.57,36.08,7.39,85.35-14.98-5.67-43.54-12.01-54.05,16.38-15.56-10.38-42.55-11.34-55.21,4.14-1.85,2.27-3.43,4.85-4.8,7.61l-.5-86.36s-7.01-105.77-9.72-114.94c-2.71-9.16-29.98-16.69-48.71-3.99-18.73,12.7-6.21,297.78-5.34,351.7.87,53.92,83.37,56.35,83.37,56.35,13.73,173.41,27.47,346.82,41.2,520.23h198.53c-26.84-240.22-53.68-480.44-80.52-720.66Z"/>
    <path class="cls-4" d="m233.88,383.28c6.86,2.5,14.52,5.91,22.48,10.63,20.27,11.99,33.48,27.02,41.41,37.96,6.52-2.68,13.04-5.37,19.56-8.05,2.28,3.08,11.71,15.11,28.76,18.4,11.65,2.25,21.11-.7,25.31-2.3.36-1.78.86-4.59,1.15-8.05,2.91-35.01-21.26-72.37-54.06-89.72-6.68-3.53-17.46-8.22-32.21-10.35-20.71,6.88-41.43,13.76-62.14,20.63l9.75,30.86Z"/>
    <g>
      <path class="cls-9" d="m309.12,247.5s-39.46-23.34-60,11.75c-20.54,35.09,9.7,149.9,9.7,149.9,0,0,5.1,21.94,24.13,23.21,19.03,1.27,23.65-.33,38.42-11.35"/>
      <path class="cls-4" d="m292.29,433.6c-2.74,0-5.82-.14-9.4-.38-8.06-.54-14.94-4.85-19.87-12.47-3.69-5.7-4.99-11.17-5.04-11.4-.07-.26-7.62-29.1-12.57-61.86-6.66-44.11-5.66-73.95,2.96-88.67,5.76-9.84,13.54-16.08,23.13-18.57,18.6-4.82,37.28,6.05,38.06,6.51.41.24.55.77.3,1.19-.24.41-.77.55-1.19.3-.19-.11-18.86-10.96-36.76-6.32-9.12,2.37-16.54,8.34-22.06,17.76-20.13,34.38,9.49,148.1,9.79,149.24.02.08,1.3,5.47,4.85,10.92,4.69,7.22,10.92,11.14,18.5,11.64,18.44,1.23,23.04-.13,37.84-11.18.38-.29.92-.21,1.21.18.29.38.21.93-.18,1.21-12.37,9.24-17.83,11.91-29.59,11.91Z"/>
    </g>
    <g>
      <path class="cls-9" d="m376.56,261.55l5.8,40.5,8.47,98.17c1.66,19.22-10.42,37.43-27.52,41.51h0c-21.79,5.19-42.29-9.9-46.14-34-7.62-47.63-17.45-121.44-10.84-151.27,10.12-45.68,58.67-26.62,58.67-26.62,0,0,14.3-6.71,36.6,1.8"/>
      <path class="cls-4" d="m354.74,443.6c-7.19,0-14.19-2.11-20.31-6.2-9.53-6.37-16.13-17.14-18.12-29.55-15.39-96.23-14.38-135.55-10.83-151.6,2.86-12.89,9.02-21.93,18.31-26.88,16.85-8.97,38.12-1.63,41.17-.49,2.37-.99,16.17-6,36.93,1.93.45.17.67.67.5,1.12-.17.45-.67.67-1.12.5-11.31-4.32-20.48-4.58-26.17-4.05-6.17.58-9.71,2.21-9.75,2.22-.22.1-.46.11-.68.02-.23-.09-22.98-8.83-40.07.28-8.83,4.7-14.69,13.36-17.43,25.72-6.72,30.32,3.91,107.59,10.85,150.95,1.91,11.94,8.24,22.29,17.37,28.39,8.19,5.47,18.03,7.22,27.71,4.91,16.68-3.98,28.48-21.81,26.86-40.59l-8.47-98.17-5.8-40.45c-.07-.47.26-.91.73-.98.47-.07.91.26.98.73l5.8,40.5,8.47,98.22c1.69,19.62-10.69,38.25-28.18,42.42-2.92.7-5.86,1.04-8.77,1.04Z"/>
    </g>
    <path class="cls-2" d="m379.98,417.39c1.7-1.35,2.64-3.44,2.53-5.6-.54-10.62-2.45-19.04-4.11-24.79-2.94-10.16-4.53-15.38-9.64-19.64-10.06-8.37-23.85-4.74-24.64-4.52-10.02,2.8-17.39,10.92-19.72,19.35-1.12,4.05-1.3,8.46-.35,12.97,1.29,6.11,1.78,10.85,3.74,17.77.82,2.9,1.96,6.62,3.5,10.94.8,2.26,2.74,3.92,5.09,4.37,4.94.94,11.92,1.55,19.97.03,11.03-2.08,19-7.2,23.61-10.88Z"/>
    <path class="cls-2" d="m310.61,408.34c1.95-1.32,2.9-3.69,2.38-5.99-1.44-6.39-3.06-15.41-3.82-20.57-.83-6.6-2.33-12.18-6.51-16.73-3.93-4.28-10.43-7.07-16.02-6.04-5.62,1.04-11.45,4.02-15.32,9.66-3.73,5.43-7.11,13.17-6.32,20.12,1.02,9.05,2.29,17.93,4.31,26.59.6,2.57,2.86,4.39,5.5,4.44,5.02.09,13.25-.15,19.13-2.34s12.75-6.5,16.67-9.14Z"/>
    <g>
      <path class="cls-9" d="m195.83,330.32c11.74-10.63,25.99-23.21,28.49-23.88,4.36-1.17,92.37-44.52,108.7-35.48,16.33,9.04,24.29,23.78,17.32,41.07-4.38,10.87-42.56,32.52-70.28,47.09-2.75,1.44-5.39,2.82-7.89,4.11l-38.21,19.22"/>
      <path class="cls-4" d="m233.94,383.32c-.32,0-.62-.17-.77-.48-.21-.43-.04-.95.38-1.16l38.21-19.22c2.49-1.28,5.13-2.66,7.88-4.1,41.79-21.96,66.61-38.52,69.88-46.65,6.41-15.9.24-30.48-16.93-39.99-13.01-7.2-74.98,20.78-98.31,31.31-6.01,2.71-8.93,4.03-9.75,4.25-.85.23-5.29,3-28.13,23.68-.35.32-.9.29-1.22-.06s-.29-.9.06-1.22c25.61-23.2,28.04-23.86,28.84-24.07.72-.19,4.59-1.94,9.49-4.15,40.09-18.1,87.67-38,99.86-31.25,17.76,9.84,24.38,25.59,17.7,42.15-4.39,10.9-40.86,31.86-70.68,47.53-2.75,1.45-5.4,2.82-7.9,4.11l-38.22,19.23c-.12.06-.26.09-.39.09Z"/>
    </g>
    <path class="cls-2" d="m292.76,285.84c-6.55,3.34-9.74,10.93-7.52,17.94,3.32,10.47,9.83,24.27,21.5,26.72,15.38,3.23,33.69-15.67,40.39-23.34,1.75-2,2.4-4.72,1.75-7.3-1.83-7.29-6.95-21.81-19.07-24.26-10.27-2.08-26.48,4.84-37.05,10.24Z"/>
    <path class="cls-9" d="m249.12,259.25s-22.1,1.3-41.44,24.91"/>
    <g>
      <path class="cls-3" d="m255.2,525.64l-26.38-139.13s0,0,0,0c-.07-6.18-2.15-13.65-5.6-17.46-7.22-7.97-26.04-6.05-32.02,2.76-.73,1.08-1.24,2.22-1.51,18.89-.17,10.46-.24,15.83.18,22.5.49,7.67,1.3,13.34,1.62,15.56,1.45,10.31,3.89,30.62,8.31,72.47-12.89-4.47-37.34-9.19-45.62,15.22-13.49-8.47-36.48-8.65-46.89,4.83-1.53,1.97-2.8,4.21-3.9,6.59l-2.46-73.49s-8.46-89.86-10.99-97.6c-2.52-7.74-25.91-13.5-41.56-2.25-15.64,11.25,1.73,253.59,3.75,299.46s72.29,45.99,72.29,45.99c9.06,94.08,18.11,188.16,27.17,282.25h155.07c-17.15-152.2-34.3-304.4-51.45-456.59Z"/>
      <path class="cls-5" d="m97,635.83c5.38,1.96,11.38,4.64,17.62,8.33,15.88,9.4,26.24,21.18,32.46,29.75,5.11-2.1,10.22-4.21,15.33-6.31,1.78,2.42,9.18,11.85,22.54,14.42,9.13,1.76,16.54-.54,19.83-1.8.28-1.39.68-3.6.9-6.31,2.28-27.44-16.66-56.72-42.37-70.32-5.23-2.77-13.69-6.44-25.24-8.11-16.23,5.39-32.47,10.78-48.7,16.17l7.64,24.18Z"/>
      <g>
        <path class="cls-3" d="m154.17,516.45s-34.13-18.93-50.79,11.41c-16.66,30.35,11.79,127.35,11.79,127.35,0,0,4.86,18.55,21.08,19.18,16.23.63,20.12-.84,32.43-10.57"/>
        <path class="cls-5" d="m142.08,675.43c-1.77,0-3.71-.05-5.86-.13-6.93-.27-12.92-3.8-17.33-10.22-3.29-4.79-4.53-9.44-4.59-9.64-.06-.22-7.18-24.59-12.16-52.37-6.71-37.43-6.56-62.88.45-75.65,4.69-8.55,11.2-14.07,19.34-16.43,15.78-4.56,31.99,4.28,32.68,4.66.43.24.59.79.35,1.22-.24.44-.79.59-1.22.35-.16-.09-16.26-8.85-31.31-4.5-7.66,2.22-13.8,7.45-18.25,15.56-16.29,29.67,11.58,125.7,11.87,126.67.02.07,1.23,4.61,4.36,9.14,4.13,5.98,9.48,9.14,15.89,9.39,15.67.6,19.54-.65,31.84-10.37.39-.31.96-.24,1.27.15.31.39.24.96-.15,1.27-11.07,8.75-15.56,10.9-27.17,10.9Z"/>
      </g>
      <g>
        <path class="cls-3" d="m211.9,526.82l5.89,34.33,9.52,83.35c1.86,16.32-7.98,32.1-22.44,35.98h0c-18.42,4.93-36.22-7.43-40.07-27.85-7.61-40.36-17.71-102.95-12.79-128.5,7.54-39.12,49.3-24.04,49.3-24.04,0,0,12.01-6.05,31.19.67"/>
        <path class="cls-5" d="m196.76,682.46c-5.85,0-11.57-1.63-16.65-4.83-8.3-5.22-14.2-14.27-16.19-24.83-15.37-81.57-15.44-115.08-12.79-128.83,2.14-11.08,7.19-18.96,15.03-23.42,14.08-8.01,32.26-2.39,35.11-1.42,2.18-.97,13.81-5.42,31.54.79.47.16.72.68.55,1.15-.16.47-.68.72-1.15.55-18.54-6.5-30.37-.77-30.49-.71-.22.11-.48.13-.71.04-.19-.07-19.7-6.94-33.97,1.17-7.36,4.19-12.12,11.65-14.15,22.19-5,25.93,5.87,91.43,12.79,128.16,1.9,10.07,7.5,18.69,15.38,23.64,7.06,4.44,15.43,5.69,23.57,3.5,14.03-3.76,23.59-19.13,21.78-35l-9.52-83.35-5.89-34.28c-.08-.49.24-.96.74-1.04.49-.08.96.25,1.04.74l5.89,34.33,9.53,83.4c1.91,16.74-8.24,32.97-23.11,36.95-2.78.74-5.58,1.11-8.35,1.11Z"/>
      </g>
      <path class="cls-2" d="m218.49,659.38c1.41-1.19,2.17-2.99,2.02-4.83-.71-9.03-2.53-16.15-4.08-21-2.74-8.58-4.21-12.98-8.67-16.49-8.76-6.89-20.41-3.47-21.07-3.26-8.46,2.62-14.55,9.7-16.33,16.93-.86,3.48-.91,7.23,0,11.05,1.24,5.17,1.77,9.19,3.61,15.04.77,2.45,1.83,5.59,3.24,9.23.74,1.9,2.42,3.28,4.44,3.6,4.23.68,10.18,1.04,17-.45,9.34-2.03,16-6.58,19.84-9.82Z"/>
      <path class="cls-2" d="m159.23,653.31c1.63-1.17,2.38-3.21,1.88-5.16-1.37-5.4-2.97-13.05-3.73-17.42-.86-5.6-2.27-10.31-5.93-14.09-3.45-3.55-9.05-5.77-13.77-4.76-4.76,1.02-9.65,3.7-12.81,8.59-3.04,4.71-5.74,11.37-4.91,17.27,1.08,7.68,2.37,15.2,4.29,22.53.57,2.17,2.54,3.67,4.79,3.65,4.27-.04,11.27-.44,16.23-2.44,5.02-2.03,10.7-5.83,13.97-8.18Z"/>
      <g>
        <path class="cls-3" d="m93.34,637.8l31.63-17.03c2.07-1.14,4.26-2.35,6.53-3.63,22.93-12.87,54.48-31.93,57.91-41.17,5.45-14.67-1.58-26.86-15.49-34.07-13.92-7.21-86.79,31.22-90.43,32.31-2.08.62-13.75,11.51-23.36,20.71"/>
        <path class="cls-5" d="m93.34,638.7c-.32,0-.63-.17-.8-.47-.24-.44-.07-.99.37-1.22l31.63-17.03c2.06-1.13,4.25-2.35,6.52-3.62,34.53-19.39,54.96-33.84,57.5-40.69,4.98-13.41-.51-25.42-15.06-32.96-11.01-5.71-62.32,19.2-81.64,28.57-5.12,2.48-7.41,3.59-8.11,3.8-.7.21-4.33,2.62-22.99,20.5-.36.34-.93.33-1.27-.03-.34-.36-.33-.93.03-1.27,20.99-20.1,23.05-20.72,23.72-20.92.59-.18,3.79-1.73,7.84-3.7,33.27-16.14,72.79-33.97,83.26-28.55,15.22,7.89,21.18,21.04,15.92,35.19-3.45,9.3-33.62,27.78-58.31,41.64-2.28,1.28-4.47,2.49-6.54,3.63l-31.64,17.03c-.14.07-.28.11-.43.11Z"/>
      </g>
      <path class="cls-2" d="m140.47,555.32c-5.42,2.96-7.92,9.41-5.89,15.24,3.03,8.71,8.82,20.15,18.67,21.93,12.99,2.35,27.92-13.94,33.36-20.53,1.42-1.72,1.9-4.02,1.3-6.17-1.71-6.08-6.34-18.15-16.57-19.93-8.67-1.51-22.11,4.68-30.87,9.46Z"/>
      <path class="cls-5" d="m125.82,591.97c-3.48-2.68-5.26-7.31-5.34-12.15-.1-6.1-7.88-5.61-7.78.47.14,8.34,3.91,15.62,9.69,20.08,4.29,3.3,7.68-5.13,3.43-8.4Z"/>
    </g>
    <path class="cls-4" d="m271.18,331.55c-5.05-3.89-7.65-10.62-7.76-17.64-.14-8.86-11.44-8.14-11.3.68.2,12.12,5.68,22.69,14.08,29.16,6.23,4.8,11.15-7.45,4.98-12.2Z"/>
    <g>
      <path class="cls-10" d="m661.04,465.46l-17.16-144.29h0c.36-6.33-1.24-14.13-4.5-18.27-6.83-8.66-26.23-8.03-32.97.56-.83,1.05-1.43,2.18-2.88,19.23-.91,10.7-1.37,16.19-1.4,23.05-.04,7.89.39,13.74.55,16.04.75,10.66,1.81,31.62,3.37,74.77-12.88-5.49-37.57-12.05-47.77,12.35-13.2-9.62-36.73-11.44-48.34,1.62-1.7,1.91-3.17,4.11-4.46,6.47l2.68-75.4s-2.3-92.58-4.34-100.68c-2.04-8.1-25.57-15.65-42.38-5.24-16.81,10.41-16.18,259.71-17.36,306.81-1.19,47.1,70.74,52.2,70.74,52.2-.85,115.85-1.7,231.71-2.56,347.56h177.55c-9.59-172.26-19.19-344.52-28.78-516.77Z"/>
      <g>
        <path class="cls-10" d="m558.28,448.9s-33.6-21.8-52.8,8.09c-19.2,29.89,3.05,131.2,3.05,131.2,0,0,3.66,19.33,20.23,21.13,16.57,1.8,20.66.57,33.94-8.52"/>
        <path class="cls-8" d="m539.23,610.91c-2.97,0-6.37-.27-10.57-.73-7.06-.77-12.93-4.8-16.98-11.66-3.03-5.13-3.97-9.97-4-10.17-.05-.23-5.61-25.68-8.74-54.46-4.22-38.77-2.27-64.8,5.8-77.37,5.4-8.4,12.44-13.59,20.93-15.42,16.46-3.55,32.4,6.64,33.07,7.07.4.26.52.8.26,1.2-.26.4-.8.51-1.2.26-.16-.1-16.04-10.23-31.78-6.83-8.02,1.73-14.69,6.66-19.82,14.66-18.79,29.24,2.95,129.54,3.17,130.55.04.21,3.75,18.75,19.47,20.45,16.02,1.74,20.07.72,33.36-8.38.4-.27.93-.17,1.2.23.27.39.17.93-.23,1.2-10.27,7.03-15.21,9.4-23.96,9.4Z"/>
      </g>
      <g>
        <path class="cls-10" d="m616.64,463.6l3.6,35.56,3.85,86c.75,16.84-10.44,32.3-25.52,35.24h0c-19.21,3.75-36.55-10.17-39.05-31.35-4.93-41.85-10.84-106.64-4-132.44,10.49-39.51,52.17-21.12,52.17-21.12,0,0,12.73-5.34,31.88,2.89"/>
        <path class="cls-8" d="m592.35,621.87c-6.78,0-13.32-2.12-18.9-6.19-8.11-5.92-13.5-15.59-14.79-26.53-5.5-46.68-10.65-107.61-3.97-132.76,2.97-11.18,8.69-18.87,17.02-22.87,15-7.21,33.24-.12,36.01,1.04,2.23-.82,14.46-4.6,32.21,3.03.44.19.64.7.45,1.14-.19.44-.7.64-1.14.45-9.7-4.17-17.67-4.74-22.64-4.47-5.39.28-8.53,1.57-8.57,1.58-.22.09-.47.09-.68,0-.2-.09-19.7-8.51-34.9-1.2-7.84,3.77-13.25,11.09-16.08,21.75-2.99,11.25-6.43,43.37,4.02,132.12,1.23,10.46,6.37,19.69,14.09,25.33,6.93,5.06,15.43,6.93,23.93,5.27,14.65-2.86,25.56-17.95,24.82-34.35l-3.85-86-3.6-35.51c-.05-.48.3-.9.77-.95.48-.04.9.3.95.77l3.6,35.56,3.85,86.05c.77,17.24-10.75,33.11-26.22,36.13-2.13.42-4.27.62-6.38.62Z"/>
      </g>
      <path class="cls-2" d="m614,599.76c1.53-1.12,2.43-2.91,2.41-4.8-.09-9.29-1.45-16.71-2.69-21.79-2.2-8.98-3.39-13.59-7.71-17.49-8.48-7.67-20.64-5-21.34-4.83-8.85,2.09-15.58,8.9-17.91,16.18-1.12,3.5-1.44,7.34-.77,11.31.9,5.38,1.16,9.54,2.63,15.65.61,2.56,1.47,5.85,2.66,9.68.62,2,2.25,3.52,4.29,4,4.28,1,10.35,1.78,17.43.74,9.71-1.42,16.84-5.6,21.01-8.64Z"/>
      <path class="cls-2" d="m553.77,589.36c1.75-1.08,2.66-3.12,2.29-5.14-1.02-5.63-2.11-13.57-2.59-18.1-.49-5.79-1.59-10.71-5.08-14.84-3.28-3.88-8.85-6.55-13.76-5.85-4.95.7-10.14,3.1-13.72,7.88-3.45,4.6-6.68,11.24-6.25,17.34.56,7.94,1.35,15.73,2.8,23.37.43,2.26,2.34,3.94,4.64,4.08,4.38.26,11.57.34,16.78-1.35,5.28-1.72,11.36-5.21,14.88-7.38Z"/>
      <g>
        <path class="cls-10" d="m456.6,518.05c11.03-9.19,24.41-20.04,26.69-20.56,3.99-.9,85.33-36.86,99.77-28.06,14.45,8.8,21.1,22.45,14.14,37.84-4.38,9.68-39.76,27.86-65.42,40.01-2.54,1.2-4.99,2.35-7.3,3.42l-35.33,15.98"/>
        <path class="cls-8" d="m489.17,567.56c-.33,0-.65-.19-.79-.51-.2-.44,0-.95.43-1.15l35.33-15.98c2.3-1.07,4.75-2.21,7.29-3.42,38.65-18.31,61.74-32.37,65-39.59,6.38-14.12,1.35-27.51-13.81-36.75-11.47-6.99-68.62,16.02-90.14,24.68-5.54,2.23-8.24,3.31-9,3.48-.77.17-4.89,2.51-26.33,20.38-.37.31-.91.26-1.22-.11-.31-.37-.26-.91.11-1.22,24.08-20.07,26.32-20.57,27.06-20.74.65-.15,4.22-1.58,8.73-3.4,37-14.89,80.86-31.15,91.68-24.55,15.75,9.6,21.17,24.15,14.48,38.94-4.4,9.73-38.23,27.36-65.84,40.44-2.54,1.21-4.99,2.35-7.31,3.43l-35.33,15.98c-.12.05-.24.08-.36.08Z"/>
      </g>
      <path class="cls-2" d="m546.06,481.4c-6.06,2.78-9.23,9.54-7.48,15.97,2.61,9.6,7.99,22.35,18.47,25.01,13.81,3.5,31.1-12.93,37.45-19.63,1.66-1.75,2.35-4.19,1.86-6.54-1.38-6.67-5.48-20.02-16.36-22.69-9.22-2.27-24.16,3.39-33.94,7.89Z"/>
      <path class="cls-8" d="m531.65,524.8c-4.87-3.75-7.37-10.24-7.48-17.01-.14-8.53-11.03-7.85-10.89.66.19,11.68,5.47,21.87,13.57,28.11,6,4.63,10.75-7.18,4.8-11.76Z"/>
    </g>
    <path class="cls-6" d="m591.55,225.11c-15.59,1.62-27.59,17.2-33.31,32.6-4.34-.13-8.7.02-13.15.89-9.47,1.85-5.46,16.31,3.99,14.47,1.87-.36,3.77-.6,5.69-.73-.9,9.77,1.81,18.8,7.83,26.65,5.64,7.35,13.24,16.14,23.12,11.14,7.88-3.98,2.22-15.12-5.38-13.7-4.52-2.57-9.04-10.67-10.11-14.39-.89-3.1-.93-6.29-.49-9.43,14.61.95,29.22,2.29,40.23-10.15,13.49-15.24,2.21-39.48-18.42-37.34Zm6.37,28.28c-3.84,3.79-10.19,5.05-15.34,5.34-2.78.16-5.52.12-8.25-.01,4.57-9.41,13.11-22,22.24-18.55,5.9,2.23,5.23,9.39,1.35,13.21Z"/>
    <path class="cls-6" d="m396.78,11.96c-1.73.89-3.8,1.89-6,2.79.54-1.15.91-2.37,1.01-3.73.43-5.82-3.95-10.07-9.49-10.86-6.44-.91-13.74,2.09-19.63,4.3-7.6,2.85-14.82,6.48-21.67,10.82-8.13,5.16-.61,18.15,7.57,12.96,5.24-3.32,10.63-6.31,16.39-8.64.79-.32,2.73-1.16,4.97-2.04-.53.76-.93,1.38-1.09,1.71-1.1,2.21-1.65,5.41,0,7.57,8.12,10.67,25.76,3.09,35.5-1.93,8.59-4.42,1.01-17.37-7.57-12.96Z"/>
    <path class="cls-1" d="m354.62,47.75c-11.32,2.75-21.52,8.71-29.45,17.24-6.57,7.07,4.02,17.7,10.61,10.61,6.28-6.76,13.86-11.21,22.82-13.38,9.38-2.28,5.41-16.75-3.99-14.47Z"/>
    <path class="cls-7" d="m511.28,222.03c-7.39-1.31-14.19-4.83-18.7-10.98-2.4-3.28-6.54-4.91-10.3-2.7-3.23,1.89-5.12,7-2.7,10.3,6.79,9.26,16.27,15.88,27.7,17.9,4,.71,8.11-1.08,9.26-5.26,1-3.64-1.23-8.55-5.26-9.26Z"/>
    <path class="cls-6" d="m547.35,227.21c-9.65,0-9.66,14.99,0,14.99s9.66-14.99,0-14.99Z"/>
    <path class="cls-7" d="m103.72,202.71c-11.13,1.15-19.7,12.28-23.78,23.28-3.1-.09-6.21.01-9.39.64-6.76,1.32-3.9,11.65,2.85,10.33,1.33-.26,2.69-.42,4.06-.52-.64,6.98,1.29,13.42,5.59,19.02,4.03,5.25,9.45,11.52,16.51,7.96,5.62-2.84,1.59-10.8-3.84-9.78-3.22-1.84-6.45-7.61-7.21-10.28-.63-2.22-.67-4.49-.35-6.73,10.43.68,20.86,1.63,28.72-7.25,9.63-10.88,1.58-28.19-13.15-26.66Zm4.54,20.19c-2.74,2.7-7.27,3.61-10.95,3.81-1.98.11-3.94.08-5.89,0,3.26-6.72,9.36-15.71,15.88-13.24,4.21,1.59,3.73,6.7.96,9.43Z"/>
    <path class="cls-1" d="m82.1,282.68c-9.86-9.79-21.6-16.85-34.8-21.16-10.11-3.3-14.44,12.62-4.38,15.9,10.5,3.43,19.69,9.15,27.53,16.92,7.54,7.48,19.2-4.17,11.66-11.66Z"/>
    <path class="cls-6" d="m86.45,303.27c-9.65,0-9.66,14.99,0,14.99s9.66-14.99,0-14.99Z"/>
    <path class="cls-7" d="m72.55,758.39c-7.39-1.31-14.19-4.83-18.7-10.98-2.4-3.28-6.54-4.91-10.3-2.7-3.23,1.89-5.12,7-2.7,10.3,6.79,9.26,16.27,15.88,27.7,17.9,4,.71,8.11-1.08,9.26-5.26,1-3.64-1.23-8.55-5.26-9.26Z"/>
    <path class="cls-6" d="m36.22,232.74c-9.74-1.44-19.35-1.94-29.18-1.13-9.34.78-9.43,15.46,0,14.68,8.43-.7,16.9-.63,25.28.6,3.95.58,7.84-.99,9.03-5.12.99-3.45-1.21-8.45-5.12-9.03Z"/>
    <path class="cls-1" d="m90.43,713.3c-11.32,2.75-21.52,8.71-29.45,17.24-6.57,7.07,4.02,17.7,10.61,10.61,6.28-6.76,13.86-11.21,22.82-13.38,9.38-2.28,5.41-16.75-3.99-14.47Z"/>
  </g>
</svg>