<svg xmlns="http://www.w3.org/2000/svg" id="Layer_2" data-name="Layer 2" viewBox="0 0 1080.2 1080"><defs><style>.cls-3{fill:#fff;stroke-miterlimit:10}.cls-8{fill:#007f27}.cls-3{stroke:#ff71bf;stroke-width:4.89px}.cls-10{fill:#ff99cd}</style></defs><g id="Layer_1-2" data-name="Layer 1"><circle cx="540.1" cy="541" r="539" style="fill:#fff"/><path d="M199.4 426.9c-1-2.7-1.3-5.8-3-7.3-15.2-14.3-17-35-25.4-52.5-5.3-10.8-5-20 1.6-30.4 11.7-18.4 4.7-32-16.8-31.7-24 .3-25.3-12.4-19.8-30.5 5.7-18.8 20.5-29.3 38.4-35.6 15.5-5.5 31.7-7.2 47.9-9.1 12.1-1.5 19.3 4 23.7 14.5 3.4 8 6.5 16 10.2 24 2.3 5 5.7 9.8 12.1 9.2 6-.6 9.1-5.3 11.6-10.4 5.2-10.6 5.5-22.4 7.4-33.8 4.4-24.9 15.4-32.8 40.9-30 10.8 1.2 21.5 3.6 32.4 2.6 4.3-.4 9.4 0 12.7-2 19.8-12.8 43-7.8 64.2-12.5a42 42 0 0 1 28.3 4.8c15 7.6 26 2.4 30.6-13.8 1.3-4.5 1.5-9.3 2.5-13.9 1.7-7.8 3.3-15.1 13.2-17.8 8.8-2.3 11.7-10 6.9-18.2-8.6-14.6-18-29-29.2-41.8-6.6-7.5-16-7.3-24.2-3.4a78.4 78.4 0 0 1-45 8.2 34.3 34.3 0 0 0-27.5 10.9c-4.2 4.1-6.2 3-9.1-1A29.8 29.8 0 0 1 395 60.9c10.3-4.7 20.2-9.8 29-16.9 7-5.8 14.3-6 22-1.5 11.1 6.2 22.3 12.2 33.3 18.4 15.5 8.8 20.5 8 37-5.4 10.6-8.7 13.7-19.8 9.1-33-.7-2.1-1.8-4-2.3-6.2-1.3-4.8-8.3-11.2-3-14 7-3.7 16.4-2.3 24.5-.5 3.5.8 1.2 5 .6 7.6-5 23.8-10 47.6-3.1 71.9a68.3 68.3 0 0 0 26.5 39.8c7.2 5 13.1 5.2 15.6-4.5 4-15.6 14.7-22.4 29.6-26.5 33.4-9 52.7-32.8 62.3-65 1.4-4.6 2-7 7.5-5.5A520.5 520.5 0 0 1 828 84c.2.2.2.6.6 1.8l-14.4 2.4c-12.3 2.3-20.1 9.3-21 21.4-1.8 21.7-3.4 30.3 18.3 38.3 6.6 2.4 10 8 12.2 14.5 2.3 7 5.7 13.3 11.5 18 8.9 7.3 18.4 8.7 28 2.2 6.5-4.3 7.4-.8 7.6 4.5.3 5.5-1.7 10-6.7 12.6-7.4 4-11.3 10.1-10.4 18.7 1 8.8-5.7 11-11.7 13.3-10.1 4-21 5.8-30.6 11.1-15.6 8.6-22 24.9-16 40.5 5.5 14.7 17.7 21.2 39 20.9 16.5-.3 22.9-5 28.5-21.3 4.4-12.8 8.5-14.6 21-9.5 4.7 2 9.6 3.3 14.5 4.3 7 1.5 12.5 4 13.8 11.8.2 1 .5 2.6 1.2 3 12.7 5.8 14.7 19.7 22.2 29.4 8.4 10.8 22.8 13.8 36.5 7.6 9.2-4.1 15-4.8 23 4.7 11 13.4 28.7 17.4 45.3 21.5 6.8 1.7 14.6 12.7 13.4 19.2-.9 4.4-4.8 5-8.4 5.5-9.6 1.2-17.9-2.7-25.5-7.6-13.1-8.4-27-9.9-41.7-6.5-12.8 3-23.5-2.2-33.8-8.7-19.3-12-37.6-25.9-59.2-34.2a84 84 0 0 0-47.9-5.1c-7.5 1.5-56.3 32.9-61 39.3-3.6 4.7-8.2 6.6-13.8 7.7-16.2 3.3-19.5 7-22.6 23.3-.9 5-1.4 10.6-5.6 13.8-13.5 10.6-17 25.5-19.4 41.1-1.5 9-3 17.9-4.8 26.8-2.9 14-4.4 27.6 5 40.5 3.5 4.7 3.7 11.7 2.9 18a40 40 0 0 0 12.8 36.2 49 49 0 0 1 16.4 29.7c1.4 10 8.8 15.8 19 16.3 13.4.6 24.4 4.8 32.6 16.1 5.4 7.4 13.3 10.1 22.2 5.5 8-4.3 15.2-2.8 22.2 2.5 11.7 9 23 12.9 37.7 4 5.5-3.3 15.5 1 22.4-5.8 1.8-1.8 3.5 2.7 4.3 4.9a51.4 51.4 0 0 1 .4 38c-3.4 8.8-7.7 17.3-11.8 25.7-8 16.4-9.3 33 .7 48.8 10.9 17.2 7.7 32.1-5 46.5l-12.4 15.1a53.5 53.5 0 0 0-11.9 45.8 43 43 0 0 1-9.3 38.6c-8.2 9.5-11.1 21-11.1 33.3v28.3c-.2 18-7.9 31.8-23.2 41.3a522.2 522.2 0 0 1-228.4 77.6c-160.2 15-301-31-420-139A522.2 522.2 0 0 1 6.4 621.3 531 531 0 0 1 65 284c2.5-4.7 3.9-14 10.2-11.9 7 2.4 2.8 10.6 2 16.4-.2.8-.4 1.5-.4 2.2-.5 8.4 19 44.5 27 47.4A26.7 26.7 0 0 1 122 363c2 25 14.8 43.4 32.5 60.5 19 18.2 20.7 23.4 6.8 45.8-7 11.3-12 23-13.8 36.2-1.4 10.7-4.7 21-9.1 31.1-11.4 25.5-5 50.4 4.6 74.8 3 7.7 10.6 10.4 18 12.9 28.5 9.7 40.4 31.6 32.3 60.1-1.5 5.3-2 10.6 1.6 14.4 17.9 19.3 15.4 41.6 10.7 64.5-4.8 23.8-13.7 46.6-17 70.7-3.5 26.4-2.6 52.2 14 75 7 9.6 16.6 16 26 22.7a71 71 0 0 1 28.3 35 62 62 0 0 0 18.4 27.7c2.4 2 3.7 6 7.8 3.7 3.7-2 2.2-5.8 1.7-8.8-2-12.2-3.7-24.3-3.8-36.7 0-22.5 6.3-42 23.8-57.3a48.4 48.4 0 0 0 13.2-19.6 79 79 0 0 1 51.7-49.1c6.3-2.1 12.2-5.2 15.6-11.2a62.7 62.7 0 0 1 26.3-23.7c18-9.4 30.5-22.8 34-43.6 1.7-10.4 8.5-17.7 17-23 33.1-21.3 49.8-54.8 65.6-88.8 4.8-10.2 1.2-17.9-9.6-24.6a262.2 262.2 0 0 0-54.8-26.1c-4.2-1.4-7.3-3-9.9-7.3a336.7 336.7 0 0 0-119.2-119.7 95.5 95.5 0 0 1-30.2-24.4c-4.9-6.7-12.7-9.6-21-10.3-11.6-1-21.1-5-29-14.4-8.3-10-14.5-10-25.6-2.8-4.8 3.2-9.5 6.7-14.3 10l-15.2 10.3Zm613.2-233c.6-6.1-1.4-12.8-7.7-17.7a16.8 16.8 0 0 1-6.7-12.9c-1-10.4-8.2-16-17.9-17.5-10.2-1.7-19.5.9-25.7 10-3.6 5.3-4.1 11.8.7 16 13.6 11.8 12.6 25.7 7.6 40.7-1.3 4.2-1.5 8.5 2 12.2 9.7 10 34.4 7 41-5.4 4-7.4 6.5-15.3 6.7-25.3ZM265.3 343c9 .9 18-.2 26.7-2.6 6.5-1.9 16-2.1 16.7-11.2.7-9-6.7-13.7-14.2-17.2-1.6-.8-3.3-1.6-5-2-23.1-6-46-12.4-70-3.2-10.7 4-12.3 6.1-6 15.7 3.2 4.9 7.4 7.7 13.3 7.9 3.3 0 6.9 0 9 3 7.5 10.2 18.3 10.2 29.5 9.6Zm49.4 6.4c-13.9 0-25.7 3.1-37 8.3-4 1.9-8.8 4.4-7 10.5 1.3 4.3 17.7 13.8 20.8 11.3 8.1-6.5 13.1-.7 19.2 2.8 7.5 4.4 14.8 2.7 21.1-2.6 5.5-4.5 11.8-10 10.2-17.8-1.8-8.8-10.8-9.7-17.9-11.7-3.4-1-7.2-.6-9.4-.8Z" style="fill:#1f69c4"/><path d="M272.3 974c-1.5-1.2-2.3-1.5-2.5-2-8.5-25.8-27.6-42.3-48.7-58-25-18.6-27.4-46.4-24-74.7 3.6-29.6 15.8-57.3 19.7-86.8 2.7-20.2 2.5-40-12.5-56.4-3.6-3.9-2.3-8-1.3-12.2 7.6-30.8-6.8-57.7-37.2-67.6a26.3 26.3 0 0 1-19-20c-6.1-21.8-8.4-43.2 3.3-64.2 2.7-5 3.8-11 4.6-16.7 2.3-16 7.3-30.6 16.2-44.4 14.2-22.4 10-36-8.1-52.7-17.6-16.1-30-33.9-32.2-58.3-1.2-13.7-8-24.7-22-29.7-4-1.5-6.6-4.5-7.9-8.5-2.6-8-6-15.4-11.8-21.8-3.9-4.2-2.3-9.5-1.8-14.5.8-8.3 2-16.6-6.1-22.8-5-3.9.6-7.2 2.3-9.9a541.8 541.8 0 0 1 413.2-251c7.8-.7 13.4 0 14.4 9.4.3 2.8 2.1 5.4 3.3 8 7.3 16 5.6 22.1-8 32.6-7.4 5.8-14 6.7-22.4 1.3-10.6-6.9-22.1-12.5-33.1-18.7a26.9 26.9 0 0 0-32.4 2.4c-8 6.4-16.9 11-26.2 15.3a39.1 39.1 0 0 0-13.5 61.3c6 7 11.6 8.7 19 1.3a34 34 0 0 1 33-9.6c12 2.7 22-2.3 32.3-6.8 14.7-6.4 18.2-5.5 27.2 7.6l18.6 26.8c3.5 5 4.6 8.8-3.3 10.8-7.7 2-11.8 8.1-13.5 15.7-1.3 5.6-2.1 11.3-3.5 17-3.5 15.2-7.7 17.3-21.7 10.2-11.7-5.8-24-4.7-36.2-3.4-10.8 1-21.3 3.9-32.3 2.3a17 17 0 0 0-11.6 2.3c-17.7 13.2-37 9.4-56.5 6.6-7.2-1-14.3-1.3-21.6.4-16.5 3.8-26.4 14.7-29.5 33.4-1.7 10-3.2 20-5.4 30-.7 3.2-1.5 8.1-5.4 8.5-4.4.5-5-4.5-6.3-7.6-3.2-7-5.5-14.2-8.8-21-7-14.3-16-18.8-31.6-17.2a209.3 209.3 0 0 0-51 9.8c-22 8-38.4 21.9-44.5 45.5-5.9 22.7 2.4 34.7 25.6 37.5 2.5.3 5 .8 7.5.9 9.6.3 12.3 7.2 7.8 13.1-14.1 19-9.2 36.6 1 54.7 1.5 2.7 2.3 6.2 2.1 9.3-.4 8.9 3 15.5 10 20.6 7.3 5.4 8.2 16.2 18.1 20.2 4.7 1.9 7.2 1.7 10.5-.6 8.4-5.7 17-11 25.1-17.2 5.8-4.5 10.5-4.5 14.8 1.4a41.4 41.4 0 0 0 33.7 16.9c6.8.3 12.5 3.5 16.7 9a86.8 86.8 0 0 0 26.6 22A328.1 328.1 0 0 1 448 586.1c2.5 4.5 6 5.8 10.1 7.2a281.3 281.3 0 0 1 55 25.6c8 4.7 9 10 5 18-15.8 32.6-33 63.9-65 83.9-9.8 6-15 16-17 27a45.5 45.5 0 0 1-24.2 32.8c-13.2 7.5-26 15.7-34.2 29.4-3 4.9-8.2 6.8-13.4 8.7a86.2 86.2 0 0 0-53.5 50.6 44.8 44.8 0 0 1-11.3 18.4c-21 18-28.4 41.2-27.2 68 .2 5.8 0 11.6 0 18.2ZM854.5 975.8c2.6-14 1.4-28.2 1.6-42.3a48 48 0 0 1 11-33.3c11.6-12.9 12-28.4 9.5-44a46.8 46.8 0 0 1 10.4-38.6c6.1-7.6 12.5-15 18.2-23 9.2-12.9 11.4-27.4 3-40.9-12.2-19.7-10.4-37.8.8-57 12.9-22.2 16.8-45.5 3.7-69.3-6-11-7.6-11.3-15.7-2-4 4.7-7.9 5.6-13.2 3-3.8-1.9-7.6-2.6-10.3 2-4.6 7.8-11 5.5-17 2.5-4.8-2.4-9-6-13.7-8.8-7.3-4.4-15-5.3-22.7-1-6.6 3.5-12 2.2-16.2-3.6-8.4-12.1-20-17-34.4-17.1-7.9 0-13-4-14-12.2a47.4 47.4 0 0 0-16.5-29.8 34.8 34.8 0 0 1-12-31c1-10.7-1-21-7.4-30-3-4.3-3.7-9.4-2.8-14.6 3.3-17.8 6.8-35.6 10-53.4a29 29 0 0 1 9.6-17.7 34.6 34.6 0 0 0 12.6-24.5c.6-8.5 5-13.1 13.4-14.3a34 34 0 0 0 24.7-16c3.5-5.4 8.2-9 15.1-9.1 5.7-.1 11-2.4 14.4-6.8 15.8-20.4 36.3-19.7 58-13.4 20.6 6 38 17.9 55.3 29.8 18 12.4 36.2 20.9 58.9 14.6 9.7-2.7 18.5 2.1 26.7 7 12 7 24.3 11 38.2 6.8 6.7-2 5.6 4.3 6.5 7.3a535.8 535.8 0 0 1-30.8 374c-38.4 82-94.2 150-166.7 204.3-2 1.5-4.3 2.7-6.4 4l-1.8-1.6ZM801.4 119.7c.1-16.6 4.6-19 20-23.7 17.8-5.4 29.2 2 41.9 11.6A541.5 541.5 0 0 1 1038.8 333c1.6 3.9 5.7 8.6 2.9 11.8-3 3.4-8.2 0-12.1-1.5-12.9-4.7-25.8-9.4-33.8-22-3.1-4.9-8.7-6.5-14.6-4.6-4 1.4-8.2 2.8-12.2 4.5-14 5.7-25 1.3-30.7-12.8-3.2-7.8-11-13.3-13.9-19.5-8-16.8-23.1-18.4-36.9-24.4-15.2-6.6-25.8-3.2-32 12.3-7 17.2-14.2 21.5-32.3 18.3-10-1.7-17.5-7-19.9-17.5a22.8 22.8 0 0 1 11.3-25.9c8.8-5.3 18.9-7.2 28.4-10.5 11.9-4 21.4-9.4 19.7-24.3-.6-5.2 3.6-7.4 7.2-10 12.7-9.2 13.2-33.7.8-43-3.3-2.5-7.7-2.7-8.2 2.5-.7 6.5-4 10.2-9.9 11.1-6.9 1.2-11.4-3.3-15.5-8.2a8.3 8.3 0 0 1-1.6-2.8 45 45 0 0 0-28.8-31.5c-6.9-2.5-5.2-9.5-5.4-15.2ZM548 53c.2-15.7 4-30.8 7.3-46 1-4.3 3-6 7.5-6 33.4 1 66.3 5.7 98.9 13.2 4.4 1 6.2 2.9 5.4 7.4-.7 3.5-.3 7.6-2 10.5-12.2 22.3-26 43-53.1 49.2-16.1 3.7-29.2 10.7-34.6 27.6-2.4 7.5-6 3-8.6.5a65.7 65.7 0 0 1-20-41.2c-.6-5-.6-10.1-.8-15.2Z" class="cls-8"/><path d="m856.3 977.4-2 .8.2-2.4 1.8 1.6Z" style="fill:#78a75a"/><path d="M803.7 195c-1.2 21.2-11.1 30.2-26.5 25.4-4.4-1.3-6.3-2.7-4.8-8.2 4.7-16.3 5.6-32-9-44.9-3.7-3.3-1.6-7.2 2.2-9.9 10.4-7.6 21.7-2.7 23.3 10.3.8 6.2 3.9 10.7 8.8 14.2s6.7 8.3 6 13ZM266 334c-9.4.7-18.1.6-24.7-8-3.4-4.4-9.7-4-15-4.7-2-.2-3.7-1.2-3.9-3.2-.2-2.3 1.9-2.7 3.6-3.2 4.9-1.4 9.7-3.8 14.6-3.9 17.5-.4 34.3 3.8 50.7 9.6 3 1 6.8 2.6 6.8 6.2-.1 4.3-4.8 4-7.6 4.6-8.1 2-16.3 3.6-24.4 2.7ZM283.6 367.4a53.4 53.4 0 0 1 38-8.4c3.8.7 10.6.8 10.1 5.7-.5 5.8-6.8 12.2-11.9 10.2-11.6-4.5-22.5-10.8-36.2-7.5Z" class="cls-8"/><path d="M361 585c-26.8 0-48.4 21.7-48.4 48.4s48.4 95.4 48.4 95.4 48.3-68.7 48.3-95.4S387.7 585 361 585Zm0 83a34.6 34.6 0 1 1 0-69.2 34.6 34.6 0 0 1 0 69.2Z" style="fill:#df2025"/><circle cx="361.1" cy="633.5" r="34.6" style="stroke:#ad0714;stroke-width:6.96px;stroke-miterlimit:10;fill:#fff"/><path d="M805.6 365c-25.8 0-46.8 21-46.8 46.8s46.8 92.3 46.8 92.3 46.9-66.4 46.9-92.3-21-46.8-46.9-46.8Zm0 80.3a33.5 33.5 0 1 1 0-67 33.5 33.5 0 0 1 0 67Z" style="fill:#ffaa01"/><circle cx="805.7" cy="411.9" r="33.5" style="stroke-miterlimit:10;stroke:#db8c00;stroke-width:6.73px;fill:#fff" transform="matrix(1 0 0 1 -1 2)"/><path d="M918.8 732.5c-18.8 0-34 15.2-34 34s34 67.1 34 67.1 34-48.3 34-67-15.2-34-34-34Zm0 58.4a24.3 24.3 0 1 1 0-48.7 24.3 24.3 0 0 1 0 48.7Z" class="cls-10"/><circle cx="918.8" cy="766.6" r="24.3" class="cls-3"/><path d="M246.9 221.4c-18.8 0-34 15.2-34 34s34 67.1 34 67.1 34-48.3 34-67-15.2-34.1-34-34.1Zm0 58.4a24.3 24.3 0 1 1 0-48.7 24.3 24.3 0 0 1 0 48.7Z" class="cls-10"/><circle cx="246.9" cy="255.5" r="24.3" class="cls-3"/></g></svg>