<?xml version="1.0" encoding="UTF-8"?>
<svg id="Layer_2" data-name="Layer 2" xmlns="http://www.w3.org/2000/svg" viewBox="0 0 1080.24 1080">
  <defs>
    <style>
      .cls-1, .cls-2, .cls-3, .cls-4 {
        fill: #fff;
      }

      .cls-5 {
        fill: #78a75a;
      }

      .cls-2 {
        stroke: #db8c00;
        stroke-width: 6.73px;
      }

      .cls-2, .cls-3, .cls-4 {
        stroke-miterlimit: 10;
      }

      .cls-6 {
        fill: #1f69c4;
      }

      .cls-7 {
        fill: #df2025;
      }

      .cls-8 {
        fill: #007f27;
      }

      .cls-3 {
        stroke: #ff71bf;
        stroke-width: 4.89px;
      }

      .cls-9 {
        fill: #ffaa01;
      }

      .cls-10 {
        fill: #ff99cd;
      }

      .cls-4 {
        stroke: #ad0714;
        stroke-width: 6.96px;
      }
    </style>
  </defs>
  <g id="Layer_1-2" data-name="Layer 1">
    <circle class="cls-1" cx="540.12" cy="541" r="539"/>
    <path class="cls-6" d="m199.41,426.88c-1.04-2.72-1.29-5.78-2.95-7.32-15.3-14.25-17.03-34.95-25.49-52.43-5.24-10.83-4.98-20.06,1.64-30.46,11.69-18.37,4.71-31.99-16.82-31.69-24.08.34-25.32-12.43-19.82-30.47,5.73-18.8,20.54-29.26,38.41-35.63,15.48-5.52,31.68-7.19,47.89-9.11,12.16-1.44,19.29,4.05,23.75,14.49,3.41,7.98,6.48,16.13,10.16,23.99,2.34,5.01,5.73,9.85,12.14,9.26,6.03-.56,9.12-5.27,11.6-10.36,5.2-10.68,5.43-22.46,7.42-33.82,4.37-24.93,15.39-32.87,40.84-30.04,10.77,1.2,21.5,3.65,32.45,2.64,4.3-.4,9.38.04,12.7-2.09,19.79-12.76,42.88-7.74,64.12-12.46,9.63-2.14,19.23.14,28.38,4.8,14.98,7.64,26.05,2.45,30.59-13.77,1.26-4.5,1.45-9.29,2.46-13.87,1.73-7.82,3.32-15.17,13.21-17.82,8.82-2.35,11.7-9.95,6.87-18.17-8.61-14.67-18-28.97-29.21-41.81-6.57-7.52-15.93-7.36-24.16-3.44-14.37,6.86-28.73,10.23-44.91,8.21-10.22-1.28-20.02,3.58-27.55,10.89-4.23,4.1-6.27,2.93-9.16-1.02-10.81-14.8-5.88-36.61,11.14-44.44,10.29-4.73,20.16-9.79,28.92-16.94,7.05-5.76,14.37-5.94,22.16-1.54,11.04,6.24,22.21,12.25,33.25,18.48,15.44,8.72,20.44,8.03,36.87-5.43,10.66-8.73,13.76-19.78,9.23-33.09-.7-2.05-1.81-3.98-2.37-6.07-1.3-4.85-8.26-11.23-2.93-14.08,6.92-3.7,16.34-2.23,24.43-.42,3.48.78,1.19,4.92.62,7.6-5.06,23.77-9.92,47.57-3.09,71.84,4.54,16.13,12.35,30.1,26.52,39.86,7.16,4.93,13.08,5.14,15.57-4.55,4.01-15.61,14.67-22.4,29.65-26.49,33.31-9.09,52.64-32.77,62.29-64.92,1.4-4.67,2-7.13,7.52-5.56,51.16,14.59,99.63,35.14,144.23,64.4.22.14.22.62.59,1.81-4.82.79-9.6,1.47-14.34,2.37-12.29,2.34-20.16,9.25-21.1,21.4-1.69,21.74-3.32,30.27,18.41,38.3,6.55,2.42,10.04,7.94,12.16,14.48,2.27,6.99,5.73,13.31,11.55,18.08,8.84,7.26,18.33,8.67,28.02,2.16,6.46-4.34,7.32-.79,7.58,4.47.28,5.54-1.72,9.92-6.73,12.65-7.41,4.04-11.28,10.09-10.38,18.68.92,8.76-5.69,10.99-11.73,13.31-10.12,3.89-20.98,5.75-30.59,11.06-15.59,8.62-22.05,24.88-16.11,40.52,5.56,14.65,17.8,21.18,39.04,20.84,16.55-.27,22.92-5.02,28.52-21.26,4.43-12.84,8.51-14.56,21.05-9.48,4.66,1.89,9.59,3.31,14.52,4.32,6.9,1.42,12.46,3.94,13.77,11.75.18,1.04.47,2.62,1.17,2.94,12.75,5.85,14.7,19.73,22.21,29.43,8.41,10.86,22.82,13.8,36.48,7.65,9.23-4.15,15.08-4.78,22.95,4.67,11.14,13.39,28.75,17.4,45.38,21.55,6.79,1.69,14.65,12.67,13.39,19.18-.86,4.43-4.8,5-8.36,5.46-9.59,1.23-17.93-2.68-25.57-7.57-13.09-8.39-26.93-9.86-41.71-6.47-12.72,2.92-23.42-2.27-33.73-8.73-19.32-12.09-37.64-25.88-59.17-34.2-15.56-6.02-31.46-8.48-47.93-5.13-7.57,1.54-56.3,32.9-61.1,39.33-3.54,4.73-8.13,6.62-13.71,7.74-16.22,3.25-19.55,6.97-22.57,23.27-.93,4.98-1.48,10.55-5.66,13.83-13.44,10.54-16.95,25.49-19.43,41.1-1.42,8.94-2.96,17.86-4.76,26.72-2.86,14.09-4.42,27.62,5.05,40.52,3.44,4.68,3.71,11.7,2.86,17.93-1.94,14.32,2.33,26.46,12.75,36.31,8.66,8.19,14.75,17.33,16.47,29.65,1.41,10.09,8.76,15.87,18.97,16.32,13.42.59,24.38,4.8,32.64,16.12,5.4,7.41,13.29,10.14,22.14,5.48,8.12-4.28,15.25-2.8,22.22,2.52,11.68,8.92,22.93,12.86,37.71,4.04,5.52-3.3,15.54.91,22.36-5.82,1.83-1.81,3.51,2.7,4.32,4.84,4.75,12.62,5.49,25.48.46,38.12-3.48,8.73-7.74,17.17-11.84,25.64-7.94,16.41-9.29,33,.68,48.77,10.88,17.21,7.72,32.14-4.91,46.53-4.3,4.9-8.33,10.05-12.47,15.09-11.03,13.43-15.1,28.79-11.86,45.79,2.76,14.43.46,27.26-9.36,38.59-8.23,9.5-11.09,20.96-11.09,33.29,0,9.43.05,18.86-.02,28.3-.13,18.02-7.83,31.85-23.2,41.33-70.18,43.32-146.13,69.95-228.33,77.61-160.23,14.92-300.96-31.08-420.08-139.12C81.81,853.08,25.52,746.79,6.44,621.43c-18.1-118.9,2.12-231.43,58.59-337.47,2.47-4.65,3.83-13.96,10.12-11.85,7.05,2.35,2.88,10.59,1.96,16.43-.11.72-.26,1.43-.31,2.15-.54,8.45,19.07,44.5,26.98,47.45,11.85,4.42,17.27,13.3,18.21,24.73,2.07,25.11,14.83,43.47,32.55,60.51,18.94,18.21,20.66,23.43,6.78,45.81-6.99,11.27-12.05,22.94-13.8,36.19-1.42,10.77-4.68,21.06-9.16,31.12-11.35,25.54-5.02,50.41,4.61,74.77,3.06,7.75,10.66,10.39,17.97,12.89,28.58,9.74,40.49,31.62,32.38,60.17-1.51,5.32-2.07,10.53,1.54,14.41,17.91,19.25,15.41,41.55,10.77,64.51-4.8,23.78-13.77,46.58-16.99,70.69-3.52,26.39-2.68,52.14,13.94,74.94,7,9.61,16.64,16.1,26.1,22.76,12.77,8.98,22.92,19.76,28.2,34.87,3.74,10.71,9.56,20.26,18.46,27.75,2.4,2.02,3.71,5.98,7.74,3.76,3.72-2.05,2.27-5.77,1.75-8.83-2.06-12.15-3.74-24.3-3.8-36.69-.11-22.49,6.32-42.07,23.73-57.26,6.12-5.34,10.33-12.12,13.21-19.68,9.38-24.66,26.71-40.89,51.71-49.1,6.34-2.08,12.18-5.19,15.63-11.11,6.27-10.75,15.5-18.09,26.26-23.73,17.98-9.41,30.58-22.83,34.02-43.65,1.72-10.36,8.51-17.62,16.94-23.02,33.17-21.27,49.89-54.72,65.69-88.71,4.75-10.2,1.2-17.89-9.58-24.66-17.25-10.84-35.58-19.5-54.85-26.09-4.17-1.43-7.33-2.97-9.87-7.3-29.4-50.14-69.51-89.75-119.26-119.64-11.22-6.74-22.18-13.48-30.16-24.43-4.87-6.68-12.7-9.61-20.91-10.28-11.71-.96-21.22-5.03-29.08-14.47-8.3-9.98-14.52-10-25.57-2.73-4.85,3.19-9.52,6.63-14.3,9.92-4.77,3.28-9.58,6.5-15.23,10.32Zm613.19-232.92c.57-6.18-1.39-12.91-7.68-17.81-4.25-3.31-6.16-7.22-6.68-12.82-.96-10.4-8.26-15.94-17.94-17.56-10.25-1.71-19.55.9-25.7,10.07-3.56,5.31-4.12,11.8.71,16,13.58,11.8,12.6,25.64,7.62,40.66-1.38,4.18-1.5,8.53,2,12.2,9.63,10.08,34.41,7.03,41.04-5.4,3.93-7.36,6.46-15.31,6.63-25.34Zm-547.26,149.04c8.92.88,17.97-.23,26.63-2.64,6.55-1.82,16.02-2.06,16.71-11.13.68-8.99-6.69-13.74-14.17-17.27-1.63-.77-3.3-1.53-5.03-1.97-23.08-5.9-45.95-12.41-69.97-3.22-10.71,4.1-12.28,6.15-6.07,15.69,3.21,4.93,7.44,7.71,13.35,7.9,3.28.11,6.88.11,8.98,2.95,7.55,10.25,18.36,10.25,29.58,9.7Zm49.32,6.43c-13.82-.07-25.64,3.07-36.87,8.24-4.09,1.88-8.87,4.38-7.04,10.52,1.27,4.27,17.6,13.79,20.78,11.26,8.07-6.43,13.08-.68,19.16,2.86,7.5,4.37,14.83,2.66,21.11-2.56,5.54-4.6,11.83-10.04,10.2-17.89-1.8-8.73-10.76-9.65-17.89-11.67-3.4-.96-7.17-.6-9.45-.76Z"/>
    <path class="cls-8" d="m272.27,973.94c-1.45-1.12-2.27-1.43-2.44-1.94-8.5-25.84-27.58-42.28-48.68-57.94-25.13-18.64-27.47-46.41-24.03-74.8,3.59-29.55,15.83-57.26,19.72-86.79,2.66-20.19,2.47-40.01-12.54-56.33-3.61-3.92-2.29-8-1.25-12.23,7.56-30.77-6.83-57.73-37.2-67.61-10.6-3.45-16.03-9.51-18.97-19.91-6.19-21.92-8.52-43.25,3.19-64.31,2.73-4.91,3.87-10.95,4.68-16.63,2.28-16.01,7.3-30.67,16.11-44.49,14.27-22.36,10.12-35.92-8.1-52.67-17.55-16.13-29.9-33.85-32.13-58.27-1.25-13.67-7.95-24.76-21.98-29.74-4.05-1.44-6.64-4.52-7.93-8.44-2.63-7.99-5.93-15.48-11.77-21.79-3.9-4.21-2.34-9.51-1.85-14.55.81-8.3,2.06-16.56-6.1-22.8-5.09-3.9.57-7.17,2.28-9.89,42.32-67.35,97-122.63,163.7-165.88C322.97,37.66,406.4,10.03,496.45,1.82c7.89-.72,13.47.01,14.47,9.42.29,2.75,2.11,5.36,3.31,8,7.32,16.04,5.58,22.07-7.94,32.54-7.54,5.84-14.16,6.71-22.52,1.31-10.62-6.87-22.07-12.48-33.1-18.73-11.4-6.45-22.35-5.59-32.42,2.48-8,6.41-16.8,11.01-26.1,15.28-24.11,11.06-30.53,41.47-13.53,61.29,5.94,6.93,11.62,8.7,19.07,1.31,9-8.92,20.25-12.55,32.94-9.64,11.9,2.73,22.01-2.33,32.31-6.82,14.68-6.4,18.12-5.44,27.17,7.61,6.2,8.93,12.41,17.86,18.61,26.79,3.49,5.02,4.62,8.79-3.35,10.83-7.69,1.97-11.77,8.11-13.49,15.66-1.29,5.63-2.12,11.37-3.44,17-3.58,15.29-7.7,17.33-21.71,10.29-11.71-5.88-23.99-4.71-36.24-3.47-10.76,1.09-21.3,3.9-32.34,2.36-3.71-.52-8.64.12-11.5,2.26-17.72,13.19-37.13,9.36-56.53,6.61-7.21-1.02-14.35-1.27-21.6.4-16.56,3.8-26.38,14.68-29.56,33.38-1.7,9.99-3.15,20.04-5.31,29.93-.71,3.27-1.53,8.19-5.48,8.62-4.35.47-4.91-4.58-6.3-7.66-3.13-6.92-5.5-14.2-8.81-21.02-6.92-14.22-16.01-18.72-31.57-17.12-17.33,1.78-34.62,3.78-51.06,9.79-21.95,8.03-38.31,21.88-44.42,45.44-5.89,22.73,2.42,34.77,25.59,37.55,2.51.3,5.02.75,7.54.85,9.56.38,12.25,7.23,7.81,13.18-14.18,18.96-9.28,36.52.91,54.62,1.52,2.7,2.3,6.27,2.15,9.38-.43,8.81,3,15.42,9.92,20.54,7.36,5.44,8.25,16.23,18.22,20.23,4.62,1.86,7.12,1.68,10.48-.59,8.41-5.68,17.04-11.09,25.09-17.25,5.81-4.45,10.52-4.45,14.79,1.39,8.36,11.46,19.87,16.23,33.67,16.9,6.84.33,12.51,3.58,16.69,9.06,7.18,9.42,16.51,16.17,26.64,22.02,51.69,29.86,92.68,70.52,122.46,122.27,2.56,4.45,6.09,5.84,10.14,7.19,19.33,6.44,37.55,15.18,55.05,25.6,7.94,4.73,8.87,10.03,4.98,18.04-15.82,32.54-32.99,63.85-65.09,83.81-9.76,6.07-14.89,16-16.89,26.97-2.76,15.15-11.14,25.44-24.21,32.87-13.27,7.54-26.08,15.74-34.25,29.43-2.91,4.88-8.19,6.77-13.43,8.64-25.27,8.98-43.36,25.62-53.51,50.67-2.72,6.72-5.6,13.5-11.29,18.36-21.02,17.94-28.39,41.24-27.2,68.04.26,5.77.04,11.56.04,18.22Z"/>
    <path class="cls-8" d="m854.53,975.79c2.57-14.03,1.41-28.2,1.55-42.32.12-12.31,2.56-23.77,11.04-33.23,11.57-12.91,12.05-28.45,9.51-44.12-2.39-14.73,1.35-27.17,10.38-38.51,6.09-7.65,12.52-15.07,18.19-23.02,9.2-12.88,11.37-27.39,3.02-40.88-12.22-19.73-10.4-37.8.81-57.08,12.86-22.12,16.75-45.4,3.66-69.25-5.98-10.89-7.59-11.32-15.65-1.96-4,4.65-7.93,5.54-13.23,2.97-3.83-1.86-7.58-2.56-10.31,2.07-4.59,7.75-11.02,5.41-16.97,2.43-4.83-2.41-9.08-5.95-13.73-8.74-7.33-4.41-15.04-5.3-22.74-1.12-6.58,3.57-12,2.32-16.11-3.57-8.42-12.08-20.1-17-34.47-17.09-7.85-.05-13-3.88-14.02-12.21-1.48-12.13-7.66-21.72-16.49-29.75-9.21-8.38-13.32-18.46-12.04-31.05,1.08-10.7-.97-20.88-7.32-29.98-3.01-4.32-3.74-9.39-2.77-14.6,3.31-17.79,6.81-35.54,9.93-53.36,1.25-7.12,4.19-13.09,9.61-17.75,7.53-6.47,11.87-14.58,12.6-24.43.63-8.53,4.93-13.17,13.38-14.38,10.64-1.53,18.81-6.92,24.71-16,3.5-5.38,8.19-8.94,15.17-9.06,5.63-.1,10.99-2.38,14.38-6.77,15.78-20.46,36.3-19.72,58.06-13.43,20.53,5.93,37.98,17.86,55.25,29.77,17.95,12.39,36.22,20.91,58.85,14.6,9.69-2.7,18.54,2.14,26.69,6.96,11.99,7.08,24.29,11.08,38.27,6.9,6.69-2,5.57,4.25,6.46,7.25,8.68,29.23,14.27,59.15,17.24,89.44,9.72,99.16-5.7,194.28-48.05,284.62-38.42,81.96-94.16,150.02-166.7,204.25-2,1.5-4.25,2.67-6.38,3.99-.59-.52-1.18-1.05-1.77-1.57Z"/>
    <path class="cls-8" d="m801.37,119.72c.13-16.64,4.64-18.96,20.12-23.71,17.69-5.42,29.13,2.03,41.81,11.64,78.56,59.53,137.27,134.41,175.47,225.29,1.61,3.82,5.74,8.53,2.92,11.76-2.96,3.38-8.17-.03-12.09-1.48-12.9-4.76-25.78-9.42-33.84-22.03-3.09-4.84-8.65-6.46-14.52-4.55-4.12,1.34-8.21,2.81-12.22,4.44-13.95,5.68-24.97,1.34-30.73-12.73-3.21-7.83-10.95-13.33-13.86-19.51-7.94-16.85-23.14-18.39-36.89-24.41-15.24-6.66-25.88-3.2-32.08,12.31-6.87,17.17-14.21,21.51-32.22,18.3-9.97-1.77-17.49-7.08-19.93-17.49-2.52-10.78,1.62-20.1,11.3-25.95,8.78-5.31,18.87-7.22,28.44-10.46,11.83-4.01,21.35-9.43,19.67-24.34-.58-5.15,3.6-7.4,7.17-9.98,12.72-9.19,13.22-33.74.77-43.03-3.28-2.44-7.65-2.64-8.18,2.5-.68,6.55-4.02,10.18-9.85,11.16-6.9,1.17-11.47-3.35-15.5-8.23-.68-.82-1.28-1.82-1.58-2.84-4.51-15.2-13.7-25.78-28.89-31.43-6.84-2.54-5.17-9.56-5.32-15.24Z"/>
    <path class="cls-8" d="m547.95,53.04c.21-15.73,4.05-30.85,7.36-46.06.93-4.27,2.94-6.05,7.44-5.92,33.43.97,66.34,5.66,98.9,13.14,4.48,1.03,6.26,2.88,5.41,7.36-.68,3.54-.26,7.61-1.9,10.58-12.24,22.23-26.15,42.96-53.17,49.14-16.11,3.68-29.21,10.75-34.64,27.65-2.4,7.45-5.95,2.91-8.59.48-12.04-11.06-17.71-25.35-19.89-41.19-.69-5.01-.63-10.12-.91-15.19Z"/>
    <path class="cls-5" d="m856.3,977.36c-.7.29-1.39.58-2.09.87.11-.81.23-1.63.33-2.44.58.52,1.17,1.05,1.76,1.57Z"/>
    <path class="cls-8" d="m803.73,194.98c-1.27,21.2-11.16,30.25-26.48,25.47-4.45-1.39-6.38-2.77-4.81-8.25,4.66-16.28,5.54-32.03-8.96-44.86-3.76-3.33-1.7-7.21,2.09-9.94,10.46-7.55,21.71-2.73,23.31,10.27.77,6.28,3.88,10.73,8.79,14.22,4.92,3.51,6.74,8.28,6.06,13.08Z"/>
    <path class="cls-8" d="m266.07,334.08c-9.46.62-18.17.54-24.72-7.99-3.47-4.52-9.72-4.16-15.09-4.8-1.9-.23-3.64-1.21-3.83-3.19-.22-2.29,1.85-2.72,3.6-3.2,4.86-1.35,9.69-3.79,14.57-3.89,17.5-.38,34.32,3.77,50.71,9.59,2.97,1.05,6.84,2.64,6.76,6.25-.09,4.23-4.78,3.92-7.59,4.57-8.08,1.89-16.27,3.56-24.42,2.66Z"/>
    <path class="cls-8" d="m283.65,367.43c12.35-7.64,24.84-10.6,37.98-8.4,3.75.63,10.56.73,10.12,5.66-.52,5.79-6.83,12.22-11.93,10.23-11.66-4.56-22.5-10.84-36.17-7.49Z"/>
    <g>
      <path class="cls-7" d="m360.96,585c-26.73,0-48.39,21.67-48.39,48.39s48.39,95.37,48.39,95.37c0,0,48.39-68.64,48.39-95.37s-21.67-48.39-48.39-48.39Zm0,83c-19.11,0-34.61-15.49-34.61-34.61s15.49-34.61,34.61-34.61,34.61,15.49,34.61,34.61-15.49,34.61-34.61,34.61Z"/>
      <circle class="cls-4" cx="361.05" cy="633.45" r="34.61" transform="translate(-1.53 .87) rotate(-.14)"/>
    </g>
    <g>
      <path class="cls-9" d="m805.64,365c-25.87,0-46.83,20.97-46.83,46.83s46.83,92.3,46.83,92.3c0,0,46.83-66.43,46.83-92.3s-20.97-46.83-46.83-46.83Zm0,80.33c-18.5,0-33.49-14.99-33.49-33.49s15-33.49,33.49-33.49,33.49,15,33.49,33.49-14.99,33.49-33.49,33.49Z"/>
      <circle class="cls-2" cx="805.73" cy="411.89" r="33.49" transform="translate(-.99 1.94) rotate(-.14)"/>
    </g>
    <g>
      <path class="cls-10" d="m918.77,732.51c-18.8,0-34.04,15.24-34.04,34.04s34.04,67.09,34.04,67.09c0,0,34.04-48.29,34.04-67.09s-15.24-34.04-34.04-34.04Zm0,58.39c-13.45,0-24.34-10.9-24.34-24.34s10.9-24.34,24.34-24.34,24.34,10.9,24.34,24.34-10.9,24.34-24.34,24.34Z"/>
      <circle class="cls-3" cx="918.83" cy="766.59" r="24.34" transform="translate(-1.84 2.22) rotate(-.14)"/>
    </g>
    <g>
      <path class="cls-10" d="m246.86,221.39c-18.8,0-34.04,15.24-34.04,34.04s34.04,67.09,34.04,67.09c0,0,34.04-48.29,34.04-67.09s-15.24-34.04-34.04-34.04Zm0,58.39c-13.45,0-24.34-10.9-24.34-24.34s10.9-24.34,24.34-24.34,24.34,10.9,24.34,24.34-10.9,24.34-24.34,24.34Z"/>
      <circle class="cls-3" cx="246.92" cy="255.48" r="24.34" transform="translate(-.61 .6) rotate(-.14)"/>
    </g>
  </g>
</svg>