<svg xmlns="http://www.w3.org/2000/svg" data-name="Layer 2" viewBox="0 0 825.2 685.6"><g data-name="Layer 1"><path d="M124.7 356.8h106v309.6h-106z" style="fill:#007d2a"/><path d="M284.7 273.6h106v392.8h-106z" style="fill:#ff92cf"/><path d="M444.7 189.8h106v476.7h-106z" style="fill:#ffa600"/><path d="M604.7 111.5h106v555h-106z" style="fill:#f3000f"/><path d="M10.3 667.3h794" style="fill:none;stroke:#1f69c4;stroke-miterlimit:10;stroke-width:2.91px"/><path d="m800.1 681.9 25.1-14.6-25.1-14.5v29.1z" style="fill:#1f69c4"/><circle cx="18.3" cy="667.3" r="18.3" style="fill:#ff99cd"/><path d="M659.9 1.4 625.1 0l9.8 18.5L594 37.4 342.3 159.3 306.9 88l-251 134.9 12.7 23.7 226.5-121.7 35 70.3L605.5 61.9l41.9-19.5 10.1 19.1 18.6-29.4 18.5-29.4-34.7-1.3z" style="fill:#009a9b"/></g></svg>