<svg xmlns="http://www.w3.org/2000/svg" id="Layer_2" data-name="Layer 2" viewBox="0 0 867 904.3"><defs><style>.cls-1{fill:#fcef5b}.cls-3{stroke-width:2.95px;stroke:#000;fill:none;stroke-linecap:round;stroke-linejoin:round}.cls-6{fill:#fff}.cls-10{fill:#ea5353}.cls-11{fill:#cd3731}.cls-14{fill:#40979a}</style></defs><g id="Layer_1-2" data-name="Layer 1"><path d="m173.7 260.7 380.5-110.5a8 8 0 0 1 10 6l110 554.7a7.9 7.9 0 0 1-4.6 8.7L303 884.4 173.7 260.7Z" style="fill:#960f0f"/><path d="m375.8 900.8-81-12.9-121-627.4 72.8 2.4 129.2 638Z" style="fill:#b71c1c"/><path d="m375.8 900.8 366-167.4a9 9 0 0 0 5.1-9.9L637.4 160.9a9 9 0 0 0-11.4-7L246.6 263l129.2 638Z" class="cls-11"/><path d="m237.3 262.6 9.3.3 8.2-2.4 129.9 636.3-8.9 4-11-1.7-127.5-636.5z" class="cls-10"/><path d="M98 291c-16.4 1.8-29 18.2-35 34.4-4.6-.1-9.2 0-13.8 1-10 1.9-5.8 17.1 4.2 15.2 2-.4 4-.7 6-.8a39 39 0 0 0 8.2 28c6 7.8 14 17 24.3 11.8 8.3-4.2 2.4-16-5.6-14.5-4.8-2.7-9.5-11.2-10.7-15.1a24 24 0 0 1-.5-10c15.4 1 30.8 2.5 42.3-10.6 14.2-16 2.4-41.6-19.3-39.3Zm6.7 29.8c-4 4-10.7 5.4-16 5.7h-8.8c4.8-10 13.8-23.2 23.4-19.6 6.2 2.4 5.5 10 1.5 14Z" class="cls-14"/><path d="M66.2 453.2A128.8 128.8 0 0 0 14.9 422c-15-4.9-21.3 18.6-6.5 23.4a102 102 0 0 1 40.6 25c11.1 11 28.3-6.2 17.2-17.2Z" class="cls-1"/><path d="M72.6 483.5c-14.2 0-14.2 22.1 0 22.1s14.2-22 0-22Z" class="cls-11"/><path d="M161.2 500c-11-2-21-7.2-27.6-16.3-3.5-4.8-9.6-7.2-15.2-4-4.7 2.8-7.5 10.4-4 15.2 10 13.7 24 23.4 40.9 26.4 5.9 1 12-1.6 13.6-7.7 1.5-5.4-1.8-12.6-7.7-13.7Z" class="cls-14"/><path d="M168 441.5a185.8 185.8 0 0 0-43-1.7c-13.7 1.1-13.8 22.8 0 21.6 12.5-1 25-.9 37.3 1 5.8.8 11.6-1.5 13.3-7.6 1.5-5.1-1.8-12.5-7.5-13.3Z" class="cls-11"/><path d="M169.8 626.5a87.2 87.2 0 0 0-43.4 25.4c-9.6 10.4 6 26.1 15.7 15.7a66.2 66.2 0 0 1 33.6-19.8c13.8-3.3 8-24.6-5.9-21.3Z" class="cls-1"/><path d="M344.4 277H315c-13.2 0-13.3 20.6 0 20.6h29.4c13.3 0 13.4-20.6 0-20.6ZM484.3 344.7 453 358c-12.3 5.2-4.3 24.2 8 19l31.5-13.3c12.2-5.1 4.2-24.1-8-19ZM539.9 279.9h-35.1c-13.3 0-13.3 20.6 0 20.6h35c13.4 0 13.4-20.6 0-20.6ZM391.6 558.5c1.8-6.8 4.2-13.3 7.2-19.7 5.5-12.1-13.2-20.9-18.7-8.8a155 155 0 0 0-8.8 24.8c-1.4 5.4 3.1 11 8.3 12 5.9 1 10.6-2.9 12-8.3ZM559.6 460.6l10-14.3c3.1-4.4 2.2-11.4-2.5-14.4s-11-2.1-14.4 2.6l-10 14.3c-3 4.4-2.1 11.3 2.6 14.3s11 2.2 14.3-2.5ZM668.3 465l-18-18c-9.5-9.4-24 5.2-14.7 14.6l18 18c9.5 9.4 24-5.2 14.6-14.6ZM590.1 604h-23.7c-13.3 0-13.3 20.7 0 20.7H590c13.3 0 13.3-20.6 0-20.6ZM470.3 541l-19-19c-9.3-9.4-24 5.1-14.5 14.5l19 19c9.3 9.4 24-5.2 14.5-14.6ZM631.3 300.6 616 285.4c-3.8-3.8-10.8-4.1-14.6 0-3.8 4.1-4.1 10.5 0 14.6l15.2 15.2c3.8 3.8 10.8 4 14.5 0 3.8-4.2 4.1-10.6 0-14.6ZM559.9 740c-8-6.8-15.4-14.1-22.2-22-3.7-4.2-10.9-3.8-14.6 0-4.2 4.2-3.7 10.3 0 14.6 6.8 7.9 14.2 15.2 22.2 22 4.3 3.5 10.4 4.1 14.6 0 3.7-3.7 4.3-11 0-14.6ZM658.1 704l-15-15c-3.9-3.8-10.9-4.1-14.7 0-3.7 4-4 10.5 0 14.6l15.2 15c3.8 3.9 10.8 4.2 14.5 0 3.8-4 4.1-10.4 0-14.5ZM665 654.9l17.5-30.2c6.6-11.5-11.2-21.9-17.9-10.4l-17.4 30.3c-6.7 11.5 11.2 21.8 17.8 10.3ZM450.8 716.2h-36c-13.3 0-13.3 20.6 0 20.6h36c13.3 0 13.3-20.6 0-20.6ZM409.4 345.1l10-14.3c3-4.4 2.2-11.4-2.5-14.4s-11.1-2.1-14.4 2.6l-10 14.3c-3.1 4.4-2.2 11.3 2.5 14.3s11 2.2 14.4-2.5Z" class="cls-10"/><path d="M831.2 241.9c-23 2.4-40.7 25.3-49.1 48-6.4-.2-12.8 0-19.4 1.3-14 2.8-8 24 5.9 21.4 2.7-.6 5.5-1 8.4-1.1a54.7 54.7 0 0 0 11.5 39.3c8.3 10.8 19.5 23.7 34 16.4 11.7-5.9 3.4-22.3-7.9-20.2a44.4 44.4 0 0 1-14.8-21.2 33.5 33.5 0 0 1-.8-14c21.6 1.5 43.1 3.4 59.3-14.9 20-22.4 3.3-58.2-27.1-55Zm9.4 41.7c-5.7 5.5-15 7.4-22.7 7.8-4 .3-8 .2-12.1 0 6.7-13.8 19.3-32.4 32.8-27.3 8.7 3.3 7.7 13.8 2 19.5ZM716.5 17.6c-2.5 1.3-5.6 2.8-8.8 4.1.8-1.7 1.3-3.5 1.5-5.5.6-8.5-5.8-14.8-14-16-9.5-1.3-20.3 3.1-29 6.4a172.8 172.8 0 0 0-31.9 16c-12 7.5-.9 26.7 11.2 19 7.7-4.9 15.7-9.3 24.1-12.7l7.4-3c-.8 1-1.4 2-1.6 2.5-1.7 3.3-2.5 8 0 11.2 12 15.7 38 4.5 52.3-2.9 12.7-6.5 1.5-25.6-11.2-19Z" class="cls-11"/><path d="M831.3 154.4a87.2 87.2 0 0 0-43.4 25.4c-9.7 10.4 5.9 26.1 15.6 15.6a66.2 66.2 0 0 1 33.6-19.7c13.9-3.3 8-24.6-5.8-21.3Z" class="cls-1"/><path d="M752.7 169.6c-11-2-21-7.2-27.6-16.2-3.6-4.9-9.6-7.3-15.2-4-4.8 2.8-7.5 10.3-4 15.2 10 13.6 24 23.4 40.8 26.4 6 1 12-1.6 13.7-7.8 1.5-5.3-1.8-12.6-7.8-13.6Z" class="cls-14"/><path d="M766 199.3c-14.2 0-14.2 22 0 22s14.3-22 0-22Z" class="cls-11"/><path d="m210.6 262.1 367.7-108.5 3.7 12.7L246.6 263l-36-.8Z" style="fill:#fff7c7"/><path d="m193.2 323.2 49.1 3.2 65 325-50.5-11.4-63.6-316.8Z" class="cls-6"/><path d="m256.3 394.4-14-68-49.2-3.2 13.7 68.2 49.5 3Z" class="cls-14"/><path d="m254.8 262 37.4 183.4" class="cls-3"/><path d="M504.3 352a328.7 328.7 0 0 1-92.2 100.9l-10.5-16a320 320 0 0 0 97-114.4" class="cls-1"/><path d="m353.9 346.6 28.4-58.3 41.3 47.6-69.7 10.7z" style="stroke:#fcef5b;stroke-width:19.16px;fill:none;stroke-linecap:round;stroke-linejoin:round"/><path d="m254.8 596.7 35.2 4.4M248.9 571.6l35.2 4.5M244.4 549.5l35.3 4.5M240 525.9l35.3 4.5" class="cls-3"/><path d="m533.4 662.1 188.8-79.8c6.7-2.9 11-10.7 10.4-19L704.7 216c-.8-10.5-9.3-17.6-18.3-15.5l-193.8 46.2c-7.7 1.8-13 10.2-12.2 19.1L513.6 648c1 11.1 10.6 18 19.8 14.1Z" style="fill:#ff92cf"/><path d="M261.3 464.3 519 320.6a6 6 0 0 1 8.3 2.7l172.4 384c1.1 2.6.4 5.5-1.8 7.1L459.3 895.3l-198-431Z" style="fill:#004743"/><path d="m461.3 904.3 9.7-.7-200.4-441.3-9.3 1.9 200 440.1Z" style="fill:#1a6b69"/><path d="M471 903.6 708.6 721a6.7 6.7 0 0 0 2-8L537.2 323c-1.6-3.5-6-5-9.4-3L270.7 462.2 471 903.6Z" style="fill:#009a9b"/><path d="M506.5 270 463.3 283c-13.3 4.1-5.5 29.7 7.8 25.6l43.3-13.2c13.3-4 5.5-29.7-7.9-25.6Z" class="cls-6"/><path d="m488.8 278.9-23.2 7.2c-.6.3-4.3 2-5.5 6a10.3 10.3 0 0 0 6 11.9c2 .8 3.9.4 5.1.4 2.5 0 40-11.9 40-11.9h0" style="stroke-width:2.47px;fill:none;stroke-linecap:round;stroke-linejoin:round;stroke:#000"/><path d="M459 579a89.3 89.3 0 0 1-3.7-40.8 74.9 74.9 0 0 0-22 43.4c1.7.1 3.6.2 5.5.1 6.4 0 13.2-1 20.3-2.7Zm78.5 1.6-24 13.3 7.7 13.9c8-4.3 16.2-7.6 24-10-2-5.8-4.7-11.5-7.7-17.2Zm-75.9 6.3a95.4 95.4 0 0 1-29.1 3 74.7 74.7 0 0 0 7.5 35.3l31-17.2c-3.8-7-6.9-14.2-9.4-21.1Zm79.1-17.6 31-17.2a74.7 74.7 0 0 0-26-25 95.2 95.2 0 0 1-18 23c4.6 5.9 9 12.3 13 19.2Zm-19.1-13.5a149.3 149.3 0 0 1-21 14.9l8.9 16 24-13.4c-3.7-6.3-7.7-12.2-12-17.5Zm13.8-27.7c1-1.6 2-3.2 2.8-4.8a77 77 0 0 0-48.5-4.2 89.3 89.3 0 0 1 32.7 24.7 92.8 92.8 0 0 0 13-15.7ZM475 615.3l-31 17.1c6.3 10 14.6 18.1 24.3 24.1 4-8 10.3-16.2 18.3-24-4.1-5.3-8-11-11.6-17.2Zm24-81.7c-9.2-6.5-17.5-9.5-23.7-8.5l21.3 38.3c7.1-4.2 13.7-8.9 19.7-14a103.9 103.9 0 0 0-17.3-15.8Zm49 72c-7.6 2.3-15.3 5.5-22.8 9.4l22.5 40.5c4-4.7 6-13.4 5.3-24.7a106 106 0 0 0-5-25.3Zm8-2.3a91.5 91.5 0 0 1 4.4 43 74.9 74.9 0 0 0 22.3-45.4c-2.2-.2-4.6-.3-7-.2-6.2.1-12.8 1-19.7 2.6Zm-93.3-49.5c.4 7.2 2 15 4.3 23a139 139 0 0 0 22.3-9.4L468 529.1c-4 4.7-6 13.4-5.3 24.7Zm82 22.7c3.4 6.4 6.2 12.7 8.6 19 10.8-2.7 21-3.6 30-2.8 0-11.5-2.5-22.8-7.6-33.3l-31 17.1Zm-52 50.4c6.3-5.4 13.4-10.5 21.3-15.1l-7.7-13.9-24 13.3c3.2 5.6 6.7 10.9 10.4 15.7ZM478.2 604l24-13.3-8.8-16c-8 4.1-16 7.5-23.8 10 2.3 6.3 5.2 12.9 8.6 19.3Zm38.5 47c9.2 6.5 17.6 9.5 23.8 8.5L518 619c-7.3 4.3-14 9.1-20.1 14.4 6 7 12.3 13 18.8 17.6Zm-37.6 3.3c-1.3 2-2.5 4.1-3.5 6.1a76.5 76.5 0 0 0 50.4 5c-11-4.1-23-13.4-34.2-26.4-5 5-9.3 10.1-12.7 15.3Z" class="cls-6"/><path d="m664.3 205.8-38 9 39 392 33-14.5-34-386.5Z" class="cls-1"/></g></svg>