<?xml version="1.0" encoding="UTF-8"?>
<svg id="Layer_2" data-name="Layer 2" xmlns="http://www.w3.org/2000/svg" viewBox="0 0 866.98 904.34">
  <defs>
    <style>
      .cls-1 {
        fill: #fcef5b;
      }

      .cls-2 {
        fill: #009a9b;
      }

      .cls-3 {
        stroke-width: 2.95px;
      }

      .cls-3, .cls-4 {
        stroke: #000;
      }

      .cls-3, .cls-4, .cls-5 {
        fill: none;
        stroke-linecap: round;
        stroke-linejoin: round;
      }

      .cls-6 {
        fill: #fff;
      }

      .cls-7 {
        fill: #ff92cf;
      }

      .cls-4 {
        stroke-width: 2.47px;
      }

      .cls-8 {
        fill: #004743;
      }

      .cls-9 {
        fill: #1a6b69;
      }

      .cls-10 {
        fill: #ea5353;
      }

      .cls-11 {
        fill: #cd3731;
      }

      .cls-12 {
        fill: #b71c1c;
      }

      .cls-5 {
        stroke: #fcef5b;
        stroke-width: 19.16px;
      }

      .cls-13 {
        fill: #960f0f;
      }

      .cls-14 {
        fill: #40979a;
      }

      .cls-15 {
        fill: #fff7c7;
      }
    </style>
  </defs>
  <g id="Layer_1-2" data-name="Layer 1">
    <path class="cls-13" d="m173.73,260.66c126.82-36.83,253.64-73.67,380.46-110.5,4.52-1.28,9.19,1.53,10.09,6.07l109.91,554.66c.71,3.58-1.17,7.16-4.54,8.68-122.24,54.94-244.47,109.89-366.71,164.83-43.07-207.91-86.15-415.82-129.22-623.73Z"/>
    <path class="cls-12" d="m375.81,900.84l-81.07-12.92c-40.34-209.14-80.68-418.27-121.02-627.41,24.28.78,48.56,1.57,72.85,2.35l129.24,637.99Z"/>
    <path class="cls-11" d="m375.81,900.84l365.99-167.41c3.79-1.73,5.9-5.84,5.1-9.93l-109.55-562.6c-1.01-5.19-6.26-8.41-11.34-6.95l-379.44,108.9,129.24,637.99Z"/>
    <polygon class="cls-10" points="237.32 262.56 246.57 262.86 254.76 260.51 384.73 896.76 375.81 900.84 364.77 899.08 237.32 262.56"/>
    <path class="cls-14" d="m98.05,291.08c-16.4,1.7-29.03,18.1-35.05,34.31-4.56-.14-9.15.02-13.84.94-9.96,1.95-5.74,17.17,4.2,15.22,1.96-.38,3.96-.63,5.99-.77-.94,10.29,1.9,19.78,8.24,28.04,5.93,7.74,13.93,16.98,24.33,11.73,8.29-4.18,2.34-15.91-5.66-14.42-4.75-2.71-9.51-11.22-10.63-15.15-.93-3.27-.98-6.62-.52-9.92,15.37,1,30.75,2.41,42.33-10.68,14.2-16.04,2.33-41.55-19.39-39.29Zm6.7,29.76c-4.04,3.98-10.72,5.32-16.14,5.62-2.92.17-5.81.12-8.68-.01,4.81-9.9,13.8-23.15,23.4-19.51,6.21,2.35,5.5,9.88,1.42,13.9Z"/>
    <path class="cls-1" d="m66.18,453.17c-14.54-14.43-31.84-24.84-51.3-31.19-14.9-4.86-21.29,18.59-6.46,23.43,15.48,5.05,29.02,13.48,40.57,24.94,11.11,11.03,28.31-6.15,17.18-17.18Z"/>
    <path class="cls-11" d="m72.6,483.51c-14.22,0-14.24,22.1,0,22.1s14.24-22.1,0-22.1Z"/>
    <path class="cls-14" d="m161.18,499.91c-10.9-1.93-20.92-7.11-27.57-16.19-3.54-4.83-9.63-7.23-15.19-3.98-4.76,2.79-7.54,10.32-3.98,15.19,10,13.65,23.98,23.41,40.83,26.39,5.9,1.04,11.96-1.59,13.65-7.75,1.47-5.36-1.82-12.6-7.75-13.65Z"/>
    <path class="cls-11" d="m168.05,441.46c-14.35-2.12-28.52-2.87-43-1.66-13.77,1.15-13.89,22.78,0,21.63,12.42-1.03,24.91-.93,37.25.89,5.82.86,11.55-1.45,13.3-7.55,1.46-5.08-1.78-12.45-7.55-13.3Z"/>
    <path class="cls-1" d="m169.84,626.52c-16.68,4.05-31.71,12.84-43.4,25.41-9.68,10.41,5.92,26.09,15.64,15.64,9.26-9.96,20.43-16.52,33.64-19.72,13.82-3.35,7.97-24.68-5.88-21.33Z"/>
    <path class="cls-10" d="m344.45,277.02h-29.41c-13.28,0-13.3,20.63,0,20.63h29.41c13.28,0,13.3-20.63,0-20.63Z"/>
    <path class="cls-10" d="m484.33,344.74l-31.47,13.28c-12.23,5.16-4.23,24.18,8.02,19.01l31.47-13.28c12.23-5.16,4.23-24.18-8.02-19.01Z"/>
    <path class="cls-10" d="m539.88,279.87h-35.1c-13.28,0-13.3,20.63,0,20.63h35.1c13.28,0,13.3-20.63,0-20.63Z"/>
    <path class="cls-10" d="m391.61,558.49c1.8-6.8,4.22-13.32,7.15-19.74,5.51-12.09-13.18-20.83-18.7-8.72-3.64,7.98-6.51,16.29-8.75,24.77-1.42,5.39,3.13,11.06,8.31,12,5.85,1.07,10.57-2.9,12-8.31Z"/>
    <path class="cls-10" d="m559.64,460.61l10-14.29c3.1-4.43,2.16-11.37-2.53-14.37-4.71-3.01-11.06-2.19-14.37,2.53-3.33,4.76-6.67,9.52-10,14.29-3.1,4.43-2.16,11.37,2.53,14.37,4.71,3.01,11.06,2.19,14.37-2.53Z"/>
    <path class="cls-10" d="m668.25,465.04l-18.03-18.03c-9.4-9.4-24,5.18-14.59,14.59l18.03,18.03c9.4,9.4,24-5.18,14.59-14.59Z"/>
    <path class="cls-10" d="m590.11,604.08h-23.72c-13.28,0-13.3,20.63,0,20.63h23.72c13.28,0,13.3-20.63,0-20.63Z"/>
    <path class="cls-10" d="m470.33,540.93c-6.32-6.32-12.65-12.65-18.97-18.97-9.4-9.4-24,5.18-14.59,14.59,6.32,6.32,12.65,12.65,18.97,18.97,9.4,9.4,24-5.18,14.59-14.59Z"/>
    <path class="cls-10" d="m631.25,300.57l-15.18-15.18c-3.82-3.82-10.82-4.11-14.59,0-3.78,4.12-4.08,10.51,0,14.59l15.18,15.18c3.82,3.82,10.82,4.11,14.59,0,3.78-4.12,4.08-10.51,0-14.59Z"/>
    <path class="cls-10" d="m559.88,739.95c-7.99-6.73-15.4-14.06-22.22-21.98-3.64-4.22-10.86-3.73-14.59,0-4.19,4.19-3.65,10.36,0,14.59,6.82,7.92,14.23,15.25,22.22,21.98,4.26,3.59,10.41,4.18,14.59,0,3.68-3.68,4.28-10.98,0-14.59Z"/>
    <path class="cls-10" d="m658.15,704.09l-15.12-15.12c-3.82-3.82-10.82-4.11-14.59,0-3.78,4.12-4.08,10.51,0,14.59l15.12,15.12c3.82,3.82,10.82,4.11,14.59,0,3.78-4.12,4.08-10.51,0-14.59Z"/>
    <path class="cls-10" d="m665.02,654.89l17.45-30.22c6.64-11.5-11.22-21.83-17.87-10.32l-17.45,30.22c-6.64,11.5,11.22,21.83,17.87,10.32Z"/>
    <path class="cls-10" d="m450.81,716.18h-36.05c-13.28,0-13.3,20.63,0,20.63h36.05c13.28,0,13.3-20.63,0-20.63Z"/>
    <path class="cls-10" d="m409.39,345.1l10-14.29c3.1-4.43,2.16-11.37-2.53-14.37-4.71-3.01-11.06-2.19-14.37,2.53-3.33,4.76-6.67,9.52-10,14.29-3.1,4.43-2.16,11.37,2.53,14.37,4.71,3.01,11.06,2.19,14.37-2.53Z"/>
    <g>
      <path class="cls-11" d="m831.18,241.88c-22.98,2.38-40.66,25.35-49.1,48.05-6.39-.19-12.82.03-19.38,1.31-13.95,2.73-8.05,24.05,5.88,21.32,2.75-.54,5.55-.88,8.38-1.08-1.32,14.41,2.66,27.71,11.54,39.27,8.31,10.84,19.51,23.78,34.08,16.43,11.61-5.86,3.28-22.29-7.93-20.2-6.65-3.79-13.33-15.72-14.89-21.21-1.31-4.57-1.37-9.27-.73-13.9,21.53,1.4,43.07,3.37,59.3-14.96,19.89-22.46,3.26-58.19-27.16-55.04Zm9.38,41.68c-5.66,5.58-15.01,7.45-22.61,7.88-4.09.23-8.14.17-12.16-.02,6.73-13.87,19.32-32.43,32.78-27.33,8.69,3.29,7.7,13.84,1.99,19.48Z"/>
      <path class="cls-11" d="m716.54,17.63c-2.55,1.31-5.6,2.79-8.84,4.11.79-1.69,1.34-3.5,1.48-5.5.64-8.57-5.82-14.84-13.98-16-9.49-1.35-20.26,3.07-28.94,6.33-11.2,4.2-21.84,9.55-31.93,15.95-11.98,7.6-.9,26.75,11.16,19.1,7.72-4.9,15.67-9.3,24.16-12.73,1.17-.47,4.03-1.71,7.33-3.01-.78,1.11-1.36,2.03-1.61,2.52-1.63,3.26-2.43,7.97,0,11.16,11.96,15.72,37.96,4.55,52.33-2.85,12.66-6.52,1.48-25.61-11.16-19.1Z"/>
      <path class="cls-1" d="m831.27,154.4c-16.68,4.05-31.71,12.84-43.4,25.41-9.68,10.41,5.92,26.09,15.64,15.64,9.26-9.96,20.43-16.52,33.64-19.72,13.82-3.35,7.97-24.68-5.88-21.33Z"/>
      <path class="cls-14" d="m752.66,169.55c-10.9-1.93-20.92-7.11-27.57-16.19-3.54-4.83-9.63-7.23-15.19-3.98-4.76,2.79-7.54,10.32-3.98,15.19,10,13.65,23.98,23.41,40.83,26.39,5.9,1.04,11.96-1.59,13.65-7.75,1.47-5.36-1.82-12.6-7.75-13.65Z"/>
      <path class="cls-11" d="m766.02,199.28c-14.22,0-14.24,22.1,0,22.1s14.24-22.1,0-22.1Z"/>
    </g>
    <path class="cls-15" d="m210.58,262.13c122.56-36.18,245.11-72.35,367.67-108.53,1.25,4.24,2.5,8.49,3.75,12.73-111.81,32.18-223.62,64.35-335.43,96.53-12-.24-24-.48-35.99-.72Z"/>
    <g>
      <path class="cls-6" d="m193.15,323.18l49.16,3.23,64.98,324.91c-16.84-3.77-33.68-7.54-50.52-11.31-21.2-105.61-42.41-211.22-63.61-316.82Z"/>
      <path class="cls-14" d="m256.27,394.43c-4.65-22.67-9.31-45.35-13.96-68.02l-49.16-3.23c4.57,22.74,9.13,45.49,13.7,68.23,16.47,1,32.95,2.01,49.42,3.01Z"/>
    </g>
    <line class="cls-3" x1="254.76" y1="261.98" x2="292.24" y2="445.45"/>
    <path class="cls-1" d="m504.32,351.98c-39.03,65.64-89.65,99.25-92.18,100.91l-10.49-16.04c.64-.42,59.4-39.59,96.93-114.33"/>
    <polygon class="cls-5" points="353.87 346.6 382.28 288.25 423.6 335.93 353.87 346.6"/>
    <line class="cls-3" x1="254.76" y1="596.69" x2="289.99" y2="601.13"/>
    <line class="cls-3" x1="248.86" y1="571.63" x2="284.09" y2="576.07"/>
    <line class="cls-3" x1="244.44" y1="549.52" x2="279.67" y2="553.96"/>
    <line class="cls-3" x1="240.02" y1="525.94" x2="275.25" y2="530.38"/>
    <path class="cls-7" d="m533.38,662.13l188.77-79.83c6.79-2.87,11.12-10.7,10.46-18.93l-27.91-347.39c-.84-10.45-9.28-17.6-18.25-15.46l-193.83,46.19c-7.7,1.83-13.03,10.15-12.25,19.11l33.25,382.22c.96,11.06,10.63,17.95,19.77,14.08Z"/>
    <g>
      <path class="cls-8" d="m261.31,464.33c85.86-47.91,171.73-95.82,257.59-143.74,3.07-1.68,6.92-.42,8.33,2.72l172.41,384.08c1.11,2.48.35,5.39-1.84,7.05-79.51,60.29-159.02,120.57-238.53,180.86-65.99-143.66-131.97-287.31-197.96-430.97Z"/>
      <path class="cls-9" d="m461.31,904.34c3.22-.23,6.45-.46,9.67-.7l-200.36-441.31c-3.12.61-6.24,1.23-9.35,1.84,66.68,146.72,133.36,293.44,200.04,440.17Z"/>
      <path class="cls-2" d="m471.02,903.63l237.58-182.61c2.46-1.89,3.3-5.22,2.04-8.06l-173.48-389.9c-1.6-3.6-5.94-5.05-9.39-3.15l-257.11,142.41,200.36,441.31Z"/>
    </g>
    <g>
      <path class="cls-6" d="m506.54,269.92l-43.22,13.2c-13.35,4.08-5.57,29.65,7.81,25.57l43.22-13.2c13.35-4.08,5.57-29.65-7.81-25.57Z"/>
      <path class="cls-4" d="m488.84,278.89l-23.26,7.23c-.62.27-4.3,1.94-5.48,5.94-.67,2.26-.21,4.14,0,4.95.8,3.12,3.11,5.79,5.94,6.92,2.04.82,3.94.5,5.19.5,2.47,0,40.03-11.89,40.03-11.89h0"/>
    </g>
    <path class="cls-6" d="m459.05,578.99c-4.59-15.52-5.88-29.8-3.74-40.78-9.37,9.07-16.24,20.48-19.92,33.35-.95,3.33-1.66,6.68-2.15,10.04,1.79.12,3.65.17,5.57.14,6.36-.11,13.15-1.04,20.25-2.76Zm78.46,1.57l-24.03,13.34,7.7,13.86c8.08-4.22,16.2-7.57,24.11-10.05-2.18-5.69-4.78-11.44-7.77-17.16Zm-75.89,6.31c-10.48,2.59-20.4,3.59-29.14,2.98-.42,12.15,2.14,24.23,7.56,35.36l30.92-17.17c-3.74-7.11-6.85-14.23-9.34-21.18Zm79.1-17.56l30.92-17.17c-6.58-10.48-15.48-19.04-26.02-25.11-4.1,7.74-10.2,15.63-17.94,23.15,4.58,5.79,8.97,12.2,13.03,19.13Zm-19.15-13.56c-6.22,5.31-13.26,10.35-21,14.92l8.88,16,24.03-13.34c-3.7-6.3-7.71-12.2-11.92-17.57Zm13.84-27.65c1.04-1.61,1.98-3.21,2.83-4.8-3.11-1.36-6.34-2.53-9.66-3.48-12.88-3.68-26.19-3.88-38.84-.72,10.45,3.99,21.89,12.63,32.63,24.73,5.22-5.12,9.6-10.39,13.05-15.73Zm-60.43,87.17l-30.92,17.17c6.21,9.89,14.49,18.07,24.26,24.06,4.05-7.99,10.26-16.19,18.23-23.98-4.05-5.28-7.94-11.06-11.57-17.25Zm24.06-81.67c-9.2-6.54-17.59-9.51-23.79-8.55l21.31,38.38c7.14-4.22,13.75-8.93,19.72-14.04-5.55-6.26-11.36-11.61-17.24-15.79Zm48.97,71.91c-7.65,2.38-15.31,5.56-22.83,9.47l22.5,40.52c4.1-4.75,6.01-13.44,5.32-24.71-.48-7.89-2.19-16.45-4.99-25.28Zm7.96-2.19c5.15,16.39,6.67,31.53,4.43,43.04,9.37-9.07,16.24-20.48,19.92-33.35,1.14-3.99,1.94-8.03,2.42-12.07-2.24-.21-4.59-.29-7.02-.25-6.21.11-12.83.99-19.75,2.64Zm-93.27-49.55c.44,7.2,1.91,14.96,4.29,22.98,7.49-2.36,14.98-5.49,22.34-9.32l-21.31-38.38c-4.1,4.75-6.01,13.44-5.32,24.71Zm82.04,22.76c3.34,6.35,6.18,12.71,8.52,18.94,10.83-2.65,21.07-3.58,30-2.8.08-11.46-2.49-22.81-7.6-33.31l-30.92,17.17Zm-52.07,50.39c6.29-5.4,13.42-10.53,21.28-15.16l-7.7-13.86-24.03,13.34c3.27,5.56,6.77,10.81,10.45,15.67Zm-14.47-22.9l24.03-13.34-8.88-16c-7.96,4.15-15.96,7.47-23.76,9.94,2.34,6.42,5.22,12.94,8.61,19.41Zm38.47,46.95c9.2,6.54,17.59,9.51,23.79,8.55l-22.5-40.52c-7.3,4.32-14.04,9.13-20.11,14.37,6.02,7.04,12.38,13.02,18.82,17.6Zm-37.56,3.36c-1.32,2.05-2.49,4.08-3.5,6.09,3.68,1.73,7.53,3.19,11.52,4.33,12.88,3.68,26.19,3.88,38.85.72-10.96-4.18-23-13.48-34.19-26.51-5.06,5-9.31,10.15-12.68,15.37Z"/>
    <path class="cls-1" d="m664.29,205.84c-12.67,2.97-25.33,5.95-38,8.92,13.01,130.69,26.02,261.38,39.02,392.08l32.98-14.5c-11.33-128.83-22.67-257.67-34-386.5Z"/>
  </g>
</svg>