<svg xmlns="http://www.w3.org/2000/svg" id="Layer_2" data-name="Layer 2" viewBox="0 0 514.2 404.9"><defs><style>.cls-1,.cls-2{fill:#fff}.cls-2{fill-rule:evenodd}</style></defs><g id="Layer_1-2" data-name="Layer 1"><path d="M162 370.6h-35.7l-126-99s-2.4 0 5.6-3c8-3.2 21.7-8 24.6-10 2.9-2 3.9-6 3.7-9.3-.2-3.3-10.6-40.6-13-48.7-2.5-8-9.4-31.4-9.4-31.4l16 3.7c7.2 1.7 52.7 10.8 58.7 9.7 6-1.1 8.8-7.2 11.7-13.8 2.8-6.6 9.5-24.4 9.5-24.4s12 12.4 14.6 15.6a598 598 0 0 0 37.2 40.7c9.6 8.4 14.7 12.6 17.8 10.9 3.2-1.8 2.7-12.5-.4-27.7S150.2 61.2 150.2 61.2s7.6 3.4 13.4 7.4c5.8 4.1 36.7 24.2 41.2 23 4.5-1 8.7-10.6 12.6-18.2L255.3 0l15.1 27 30.9 57.4s1.3 7.2 6.6 7.2 21.8-10.4 30.2-15c8.3-4.6 26.2-13.8 26.2-13.8L337 180s-7.9 29.5-2.5 32.5c5.3 3 20.4-13.1 24.7-18.7 4.2-5.6 47.3-50.5 47.3-50.5l8 21.3c1.8 5.5 2.7 11.8 6.3 15.3 3.6 3.6 13.9 4.1 18.6 3l62.2-13.5-12 43.7s-11.8 33.6-9.9 40.2c1.8 6.7 23 13.2 28.8 15.2 6 2 8.1 2.6 2.6 6-5.4 3.4-122.8 95.7-122.8 95.7h-37.5l95.8-74.7s-1.8-1.9-9.3-4c-7.4-2-18-2.6-17.1-10.5.8-7.8 17-60.3 17-60.3s-12 .5-23 3.5-22.5 6-28.6 5.9c-6-.1-8.8-1.1-11.5-9.7-2.6-8.6-7.2-19.4-7.2-19.4s-6.9 6-9.4 9.6c-2.6 3.5-25.8 27.5-25.8 27.5s-10 14-16.5 14 0-19 1.3-25.3c1.3-6.2 19.7-84.7 19.7-84.7s-3 .7-4.5 1.7c-1.5.9-32 19-36.9 19.2-4.8 0-21.3-35.3-21.3-35.3L255.8 95l-9.6 19s-22.8 47.9-26.5 48.8c-3.7 1-16.3-6.5-23.5-11.8a175.5 175.5 0 0 0-17.5-10.6l13 61.3 8.9 43.8s.6 3.9-1.4 5-4.8.1-9.4-3.6c-4.5-3.8-38.2-41.8-38.2-41.8s-2.9-3.1-3.7-3.1-9.1 21.3-9.1 21.3-1.8 4.2-4.2 5.4a24.5 24.5 0 0 1-11.7.5c-3-.7-45.8-9-45.8-9l7.2 25.8s9 30.2 9.3 33.7c.2 3.6-2 6-11 9.4-9 3.2-14.3 6-14.3 6l93.6 75.4Z" class="cls-2"/><path d="M148.3 282.3a34.2 34.2 0 0 1 24.7-9.8 39.7 39.7 0 0 1 22.6 7h.1c1 .6 2 .8 3 .6 1.2 0 2.3-.6 3-1.7.6-1.1.9-2.3.7-3.3s-.8-2-1.8-2.7h-.1a48.7 48.7 0 0 0-44.5-5 44 44 0 0 0-23.4 57.6 42.8 42.8 0 0 0 40.4 26.3 50.4 50.4 0 0 0 27.5-8.1 4 4 0 0 0 1.9-2.8c.3-1.4-.3-2.5-.7-3.2-.6-1-1.6-1.6-3-1.9-1.3-.2-2.4.3-3.1.7l-.1.1A42.7 42.7 0 0 1 173 343a34.6 34.6 0 0 1-34.9-35.2 36 36 0 0 1 10.2-25.4ZM258 267.9c-.2-1-.9-1.5-1.3-2l-.3-.2c-.9-.6-2-.7-2.6-.7-1 0-1.5.2-2 .4h-.2l-.2.2c-.8.4-1.4 1.2-1.8 2.2l-32.3 76.5-.1.4c-.2.5-.3 1.2-.1 2 .2 1 .6 1.7 1.3 2.3.5.5 1.5 1.2 3.2 1.2 1.2 0 2-.5 2.5-1 .8-.4 1.3-1.1 1.5-1.9l9.2-22.2h37.6l9.4 22.2c.3.9.9 1.6 1.7 2 .7.6 1.6.9 2.6.9s2.1-.4 3-1c1-.7 1.6-1.9 1.6-3.2 0-.5 0-1.1-.3-1.8L258 268Zm10.8 48.6h-30.4l15-36.4 15.4 36.4ZM371.1 266.9a4.1 4.1 0 0 0-3-1.3c-1.1 0-2.1.4-3 1.2-.5.4-.8 1-1 1.5-.3.5-.4 1-.4 1.5v17l.2 47.5-51.2-67c-.5-.7-1-1.1-1.7-1.4-1.5-.5-3-.3-4.3.6-.7.5-1.5 1.6-1.5 3.4v76.7c0 1 .4 2 1.2 2.8.5.5 1.5 1.1 3 1.1 1.2 0 2.2-.3 3-1 .9-.8 1.3-1.8 1.3-3v-64l50.6 66.3c.4.6 1 1 1.7 1.4a4.6 4.6 0 0 0 4.8-.7c.7-.6 1.5-1.7 1.5-3.5v-76.2c0-1-.4-2.1-1.2-2.9Z" class="cls-2"/><path d="M312.1 312.2h.1v-.7h-1v-.7h-.4v-1h-.4v-2.9h.1c.2 0 .4-.2.4-.4v-.2c0-.2-.1-.4-.4-.4h-.2v-4.6h-.2V298h-.3v3.3h-.2v1.8h-.1v2.8h-.2c-.2 0-.4.2-.4.4v.2c0 .2.2.4.4.4v2.9h-.2v1h-.6v.6h-1v.8l-.2.7h-.6v1.5l.4.5c-.2 0-.3.3-.3.5 0 .4.3.7.6.7h1.3l-.3 6.6-1 27.6 1.4.3h1.6a6 6 0 0 0 2.4-1l-1.4-27-.3-6.5h1.2c.3 0 .6-.3.6-.6v-.1c0-.2-.1-.4-.3-.5h.1l.3-.5v-1.5h-.7l-.2-.7Zm-3.3-1.1h2.2v.3h-2.2v-.3Zm3.2 1.8h-4.4v-.5h4.4v.5Z" style="fill-rule:evenodd;fill:#ce3832"/><path d="m137.7 385.5-.4.1-.1.3v14.2l.1.3.4.2s.2 0 .3-.2l.1-.3V386l-.1-.3-.3-.1ZM157.2 390.2a4 4 0 0 0-2.2-.5c-.6 0-1.2 0-1.8.3-.6.2-1.1.5-1.6 1a3 3 0 0 0-1 1c-.2-.7-.7-1.3-1.3-1.7a4.4 4.4 0 0 0-4-.3l-1.4 1-.8.8V389.9h-.7l-.2.3v10s0 .2.2.2c0 .1.1.2.3.2 0 0 .2 0 .3-.2l.1-.3v-6.3c0-.6.2-1.2.6-1.6.4-.5.9-1 1.5-1.3a4 4 0 0 1 1.8-.4 3 3 0 0 1 1.7.5c.4.2.8.7 1 1.2.2.5.3 1 .3 1.6v6.3l.1.3.3.2c.1 0 .3 0 .4-.2V394c0-.6.3-1.2.7-1.7a4.4 4.4 0 0 1 3.4-1.7c.7 0 1.3.1 1.8.4l1 1.3c.2.5.3 1.1.3 1.7v6.2l.1.3.3.2c.1 0 .3 0 .4-.2V394c0-.8 0-1.5-.3-2.2-.3-.6-.8-1-1.3-1.5ZM183.5 386.4l-.6.2c-.2.2-.2.3-.2.5v.2c0 .2 0 .4.2.5l.5.2c.3 0 .4 0 .6-.2l.2-.5v-.2c0-.2 0-.3-.2-.5a.8.8 0 0 0-.5-.2ZM197.2 389.8l-.3.1-.1.3v1.9-.2a5 5 0 0 0-2.7-2c-.5-.3-1.2-.4-1.8-.4a5.2 5.2 0 0 0-4.7 2.7 5.8 5.8 0 0 0 0 5.8 5.3 5.3 0 0 0 4.7 2.8c.4 0 .9 0 1.4-.2.5-.1 1-.3 1.4-.6a4.2 4.2 0 0 0 1.7-2v1.5c0 1.4-.4 2.5-1.2 3.3-.9.8-2 1.3-3.4 1.3l-1-.1-1-.2-.5-.2c-.3 0-.5-.2-.6-.4l-.5-.2h-.2l-.2.4c0 .2.2.5.6.7l1.6.6 1.8.2c1 0 2-.2 2.8-.7.9-.4 1.5-1 2-1.8s.7-1.8.7-2.9v-9.3l-.1-.2-.4-.2Zm-2.6 9.5c-.6.4-1.4.7-2.3.7s-1.6-.3-2.3-.7c-.7-.4-1.3-1-1.7-1.7-.4-.7-.6-1.6-.6-2.5s.2-1.8.6-2.5c.4-.7 1-1.3 1.7-1.7.7-.4 1.4-.6 2.3-.6a4.4 4.4 0 0 1 4 2.3c.4.7.6 1.5.6 2.5s-.2 1.8-.6 2.5c-.4.8-1 1.3-1.7 1.7ZM183.4 389.5h-.3v10.9l.3.2c.2 0 .3 0 .4-.2l.1-.3V390l-.1-.3-.4-.1ZM177.6 390.2a4 4 0 0 0-2.3-.5c-.5 0-1 0-1.7.3-.6.2-1.2.5-1.6 1a3 3 0 0 0-1 1c-.3-.7-.7-1.3-1.3-1.7a4.3 4.3 0 0 0-4-.3l-1.4 1-.8.8v-1.6l-.1-.3h-.7v10.5l.4.2s.2 0 .3-.2l.1-.3v-6.3c0-.6.2-1.2.6-1.6.4-.5.8-1 1.5-1.3a4 4 0 0 1 1.8-.4 3 3 0 0 1 1.7.5c.4.2.8.7 1 1.2.2.5.3 1 .3 1.6v6.3l.1.3.3.2c.1 0 .3 0 .3-.2l.2-.3V394c0-.6.2-1.2.6-1.7a4.4 4.4 0 0 1 3.3-1.7c.8 0 1.4.1 1.8.4.5.4.8.8 1 1.3.2.5.4 1.1.4 1.7v6.5l.4.2c.1 0 .2 0 .3-.2l.1-.3V394c0-.8 0-1.5-.4-2.2-.2-.6-.7-1-1.3-1.5ZM207.2 389.6l-.7-.1a4 4 0 0 0-2 .4 4.8 4.8 0 0 0-2.2 2.7v-2.4l-.1-.3-.3-.1-.4.1v10.5l.3.1h.4V394.6c0-.5.2-1 .4-1.5a5.8 5.8 0 0 1 2.2-2.6c.5-.3 1-.4 1.4-.4h.6l.3.2.3-.1v-.4c0-.2 0-.3-.3-.4ZM226.9 389.7h-2.5v-3l-.4-.1h-.3l-.2.4v2.7h-1.8l-.3.1-.1.3.1.3.3.1h1.8v7.8c0 .6.1 1 .3 1.4l.7.7.7.1h1.1l.3-.4-.1-.3-.3-.1a1 1 0 0 0-.3 0h-.8a.7.7 0 0 1-.5-.5 2 2 0 0 1-.2-1v-7.7h2.8l.1-.4v-.2l-.4-.2ZM218.6 389.8l-.3.1-.2.3v2a4.5 4.5 0 0 0-2.5-2.4 5 5 0 0 0-1.8-.3 5 5 0 0 0-4.5 2.7c-.5.8-.7 1.8-.7 2.9s.2 2 .7 2.9c.4.8 1 1.5 1.8 2s1.7.8 2.7.8c.6 0 1.3-.1 1.8-.4.6-.2 1-.5 1.5-1 .4-.3.8-.7 1-1.2v2l.1.2.4.2s.2 0 .3-.2l.1-.3v-9.9l-.1-.3h-.4Zm-1 7.8c-.3.7-.9 1.3-1.5 1.7-.7.4-1.4.7-2.2.7s-1.6-.3-2.3-.7c-.6-.4-1.2-1-1.5-1.7-.4-.8-.6-1.6-.6-2.5s.2-1.8.6-2.5c.4-.7.9-1.3 1.5-1.7.7-.4 1.4-.6 2.3-.6s1.5.2 2.2.6c.6.4 1.2 1 1.5 1.7.4.8.6 1.6.6 2.5 0 1-.2 1.7-.6 2.5ZM230.3 389.5h-.4v10.9l.4.2s.2 0 .3-.2l.1-.3V390l-.1-.3-.4-.1ZM278.9 399.7l-1.7-1.2-.6-.5a7.7 7.7 0 0 0 1.4-3.3v-.4l-.4-.1h-.3l-.2.3a8.5 8.5 0 0 1-1.2 3l-.6-.4a43.5 43.5 0 0 1-5.3-5.4l-1-1.6-.3-1.4c0-.8.3-1.4.8-1.9s1.2-.7 2.2-.7c1 0 1.7.2 2.2.5.5.3.8.7 1.1 1.1l.2.1.2.1.4-.1v-.5c-.3-.6-.8-1-1.4-1.5-.7-.4-1.5-.6-2.6-.6a5 5 0 0 0-2.2.5 3.1 3.1 0 0 0-1.8 3c0 .5 0 1 .3 1.6l.6 1.1a5 5 0 0 0-3 2.6c-.2.6-.4 1.2-.4 1.8 0 .8.3 1.6.7 2.4.5.7 1 1.4 1.9 1.8.8.5 1.7.8 2.8.8a8 8 0 0 0 3-.6c.8-.3 1.5-.8 2.2-1.4l.1-.2 2.4 1.8H278.7l.3-.1.1-.3v-.2l-.2-.1Zm-5.5-.2c-.7.3-1.7.4-2.7.4-1 0-1.7-.2-2.4-.6a4 4 0 0 1-1.5-1.6c-.3-.6-.5-1.3-.5-2 0-.8.3-1.6.8-2.3a4 4 0 0 1 2.1-1.3 26.2 26.2 0 0 0 6.1 6v.1c-.5.6-1.2 1-1.9 1.3ZM309.5 384.6l-.4.1v7.5h-.1a4.7 4.7 0 0 0-4.3-2.7c-1 0-1.8.2-2.6.7-.8.5-1.4 1.2-1.9 2-.5.9-.7 1.8-.7 2.9a5.8 5.8 0 0 0 2.6 5c.8.4 1.6.7 2.6.7a4.7 4.7 0 0 0 3.4-1.4l1-1.3v2.3l.4.2s.2 0 .3-.2l.1-.3v-15l-.1-.4-.3-.1Zm-2.5 14.7c-.6.4-1.4.7-2.3.7s-1.5-.3-2.2-.7c-.6-.4-1.1-1-1.5-1.7-.4-.7-.6-1.6-.6-2.5s.2-1.8.6-2.5c.4-.7.9-1.3 1.5-1.7.7-.4 1.4-.6 2.2-.6a4.2 4.2 0 0 1 3.8 2.3c.4.7.6 1.6.6 2.5s-.2 1.8-.6 2.5c-.3.7-.8 1.3-1.5 1.7ZM242 390.2c-.8-.5-1.8-.7-2.8-.7s-2 .2-2.8.7c-.9.5-1.5 1.2-2 2-.5.9-.7 1.9-.7 3s.2 2 .7 2.8a5.3 5.3 0 0 0 4.8 2.8c1 0 2-.3 2.8-.8.9-.5 1.5-1.1 2-2 .5-.8.7-1.8.7-2.9s-.2-2-.7-2.9a5.4 5.4 0 0 0-2-2Zm1.2 7.4c-.4.7-1 1.3-1.6 1.7-.7.4-1.5.7-2.4.7s-1.7-.3-2.4-.7c-.7-.4-1.2-1-1.7-1.7-.3-.7-.5-1.5-.5-2.5s.2-1.7.6-2.5c.4-.7 1-1.3 1.6-1.7.7-.4 1.5-.6 2.4-.6s1.7.2 2.4.6c.7.4 1.2 1 1.6 1.7.4.8.6 1.6.6 2.5s-.2 1.8-.6 2.5ZM255 390c-.6-.4-1.3-.5-2.3-.5a5.1 5.1 0 0 0-3.2 1.1l-1 1.1V390h-.7l-.2.3v10l.2.2c0 .1.1.2.3.2 0 0 .2 0 .3-.2l.1-.3v-6.5c0-.6.2-1.2.6-1.7a4.6 4.6 0 0 1 3.5-1.6c.8 0 1.4.1 1.9.4.5.3.8.7 1 1.2.2.5.3 1.1.3 1.7v6.5c0 .1 0 .2.2.3 0 .1.1.2.3.2 0 0 .2 0 .3-.2l.1-.3v-6.6c0-.7-.1-1.4-.4-2-.3-.7-.7-1.1-1.3-1.5ZM230.3 386.4l-.6.2c-.2.2-.2.3-.2.5v.2c0 .2 0 .4.2.5l.6.2c.2 0 .4 0 .5-.2.2-.1.2-.3.2-.5v-.2c0-.2 0-.3-.2-.5a.8.8 0 0 0-.5-.2ZM288.9 386.4h8l.3-.2.1-.3-.1-.3-.3-.1h-8.5l-.3.1-.1.3v14.2l.1.3.3.2h8.5s.2 0 .3-.2l.1-.3-.1-.3a.5.5 0 0 0-.3 0h-8v-6.6H295.8l.4-.1v-.6l-.2-.1h-7.1v-6ZM358.9 386.4l-.6.2-.2.5v.2c0 .2 0 .4.2.5l.6.2c.2 0 .4 0 .5-.2.2-.1.2-.3.2-.5v-.2c0-.2 0-.3-.2-.5a.8.8 0 0 0-.5-.2ZM358.9 389.5h-.3l-.2.4V400c0 .1 0 .2.2.3 0 .1.1.2.3.2 0 0 .2 0 .3-.2l.1-.3v-10.5l-.4-.1ZM370.6 390.2c-.8-.5-1.7-.7-2.8-.7a5.3 5.3 0 0 0-4.8 2.7c-.5.9-.7 1.9-.7 3s.2 2 .7 2.8a5.3 5.3 0 0 0 4.8 2.8c1 0 2-.3 2.8-.8.9-.5 1.5-1.1 2-2 .5-.8.7-1.8.7-2.9s-.2-2-.7-2.9a5.4 5.4 0 0 0-2-2Zm1.2 7.4a4.5 4.5 0 0 1-4 2.4c-.9 0-1.7-.3-2.4-.7-.7-.4-1.2-1-1.6-1.7-.4-.7-.6-1.5-.6-2.5s.2-1.7.6-2.5c.4-.7 1-1.3 1.6-1.7.7-.4 1.5-.6 2.4-.6s1.7.2 2.4.6c.7.4 1.2 1 1.6 1.7.4.8.6 1.6.6 2.5s-.2 1.8-.6 2.5ZM385 391.5c-.3-.7-.8-1.1-1.4-1.5-.6-.4-1.3-.5-2.3-.5a5.1 5.1 0 0 0-3.2 1.1l-1 1.1V390h-.7l-.2.3v10l.2.2.3.2c.1 0 .2 0 .3-.2l.1-.3v-6.5c0-.6.2-1.2.7-1.7a4.6 4.6 0 0 1 3.4-1.6c.8 0 1.4.1 1.9.4.5.3.8.7 1 1.2.2.5.3 1.1.3 1.7v6.5c0 .1 0 .2.2.3l.3.2c.1 0 .2 0 .3-.2l.1-.3v-6.6a5 5 0 0 0-.4-2ZM322.3 389.8l-.3.1-.1.3v6.3c0 1.1-.3 2-1 2.5-.6.6-1.5.9-2.6.9s-2-.3-2.6-.9c-.6-.6-1-1.4-1-2.5V390h-.7l-.1.3v6.3c0 1.4.4 2.4 1.2 3.1.8.7 1.9 1.1 3.2 1.1s2.5-.3 3.3-1c.8-.8 1.2-1.8 1.2-3.2v-6.3l-.1-.3h-.4ZM329 391c.7-.5 1.5-.7 2.3-.7h1.4a2.7 2.7 0 0 1 1.4.7l.3.3.4.1.3-.1.1-.3c0-.3-.2-.5-.5-.8a5 5 0 0 0-1.4-.5c-.7-.2-1.3-.2-2-.2a5.5 5.5 0 0 0-4.9 2.8c-.5.9-.7 1.8-.7 2.8 0 1 .2 2 .7 2.9a5.3 5.3 0 0 0 4.8 2.8c.9 0 1.5-.1 2.2-.3l1.3-.8c.4-.3.5-.5.5-.7v-.2l-.4-.2-.4.3-.6.5a4.4 4.4 0 0 1-2.5.6 4.6 4.6 0 0 1-4.1-2.4c-.4-.7-.6-1.6-.6-2.5a4.8 4.8 0 0 1 2.3-4.2ZM347.2 389.8l-.3.1-.2.3v2a4.5 4.5 0 0 0-2.5-2.4 5 5 0 0 0-1.8-.3 5 5 0 0 0-4.5 2.7c-.5.8-.7 1.8-.7 2.9s.2 2 .7 2.9c.4.8 1 1.5 1.9 2 .7.5 1.6.8 2.6.8.7 0 1.3-.1 1.9-.4.5-.2 1-.5 1.4-1 .5-.3.8-.7 1-1.2v2s0 .2.2.2c0 .1.1.2.3.2 0 0 .2 0 .3-.2l.1-.3v-9.9l-.1-.3h-.3Zm-1 7.8c-.3.7-.8 1.3-1.5 1.7-.7.4-1.4.7-2.2.7s-1.6-.3-2.3-.7c-.6-.4-1.2-1-1.5-1.7-.4-.8-.6-1.6-.6-2.5s.2-1.8.6-2.5c.4-.7.9-1.3 1.5-1.7.7-.4 1.4-.6 2.3-.6s1.5.2 2.2.6c.7.4 1.2 1 1.6 1.7.3.8.5 1.6.5 2.5 0 1-.2 1.7-.6 2.5ZM355.5 389.7H353v-3l-.4-.1h-.3l-.2.4v2.7h-1.8l-.3.1-.1.3.1.3.3.1h1.8v7.8c0 .6.1 1 .3 1.4l.7.7.7.1h1.2l.2-.4-.1-.3-.3-.1a1 1 0 0 0-.3 0h-.8a.7.7 0 0 1-.4-.5 2 2 0 0 1-.3-1v-7.7h2.8l.1-.4v-.2l-.4-.2Z" class="cls-1"/></g></svg>