<svg xmlns="http://www.w3.org/2000/svg" data-name="Layer 2" viewBox="0 0 365 235.5"><g data-name="Layer 1"><path d="M320.8 0H365v26.2h-44.2z" style="fill:#f57e25"/><path d="M320.8 26.1H365v26.2h-44.2z" style="fill:#fbb034"/><path d="M320.8 52.3H365v26.2h-44.2z" style="fill:#c3abd3"/><path d="M320.8 78.5H365v26.2h-44.2z" style="fill:#7581bf"/><path d="M320.8 104.6H365v26.2h-44.2z" style="fill:#71d0f6"/><path d="M320.8 130.8H365V157h-44.2z" style="fill:#009ddc"/><path d="M320.8 156.9H365v26.2h-44.2z" style="fill:#ffd200"/><path d="M320.8 183.1H365v26.2h-44.2z" style="fill:#a0cf67"/><path d="M320.8 209.3H365v26.2h-44.2z" style="fill:#00b259"/><path d="M0 0h320.8v235.5H0z" style="fill:#0065a4"/><path d="M254.8 170C174 244.8 23.7 185.9 24.6 89.2c.5-56.6 67.6-77 133-48.1-68.3-25-111.9-.6-111.9 38.5 0 51.6 72.3 101.2 128 84.7l-42-28h5.2l63.1 30.3c-62.4 37-181.9-24.5-161-101.8-28.6 84 105.6 164.1 189.2 104.6L141 136.3h4L254.8 170Zm-97.6-87c8 0 14.6-7.1 15.5-16.8.5-5.3-.8-9.9-3.6-13a11.7 11.7 0 0 0-8.8-3.8c-8 0-14.4 6.9-15.3 16.6-.5 5.4.8 10 3.6 13.1 2.1 2.5 5.1 3.8 8.6 3.8m19-31c3.5 3.8 5 8.9 4.6 14.4a23.3 23.3 0 0 1-23.9 20.5c-6.1 0-11.6-2.3-15.3-6.3-3.5-3.8-5-8.9-4.5-14.4a23.5 23.5 0 0 1 23.6-20.7c6.2 0 11.7 2.3 15.5 6.4m33.8 24 .9 2.7c.6 2 1.3 3.9 2.2 5 .5.7 1.1 1 2.3 1.3l-.3 1.4h-5.6c-3.2 0-4.2-1.3-5.7-6l-2.3-7.3c-2-5-5-5-6.8-5h-2l-1.2 12v1.3c0 1.2.2 2 .5 2.6.2.5.7.7 1.5 1l-.3 1.4h-11.5l-.2-1.4c1.4-.5 2.5-1.3 2.8-4.9l2.6-27.5c.4-3.6-.2-4.3-1.9-5l.3-1.4h13c5.2 0 7.5.6 10 2.5a8.7 8.7 0 0 1 3.1 8c-.3 4.2-2.9 7.2-6.4 8.7a11 11 0 0 1-2.8.8 10 10 0 0 1 6.6 6.4l1.2 3.4Zm-15.6-26.1L193 64.3h2c1.4 0 8.2-.3 8.9-7.7v-1c0-1.7-.4-3-1.3-4-1.6-1.8-4.2-2-5.3-2h-2.9m-37.7 71.5.9 2.7c.6 2 1.3 3.9 2.2 5 .5.7 1.1 1 2.3 1.3l-.3 1.4h-5.6c-3.2 0-4.2-1.3-5.7-6l-2.3-7.3c-2-5-5-5-6.7-5h-2.1a712791.3 712791.3 0 0 1-1.2 13.3c0 1.2.2 2 .5 2.7.2.4.7.6 1.5.9l-.2 1.4h-11.5l-.3-1.4c1.4-.5 2.5-1.3 2.8-4.8l2.6-27.6c.4-3.6-.2-4.3-1.9-5l.3-1.4h13c5.2 0 7.5.6 10 2.6a8.6 8.6 0 0 1 3.2 7.9c-.4 4.2-3 7.2-6.5 8.7a11 11 0 0 1-2.8.8 10 10 0 0 1 6.7 6.4l1.1 3.4ZM141 95l-1.4 14.6h2c1.4 0 8.2-.3 8.9-7.7v-1c0-1.7-.5-3-1.4-4-1.5-1.8-4.2-2-5.2-2H141m111.5-26.7c.2-2.3.8-3 2.6-4l-.4-1.3h-10l-.3 1.3c1.3.7 2 1.4 2 3.2l-.1.9s-1 10.4-1 11.8c-.2 0-.3.2-.3.2-4.5 2.1-6 2.5-9.1 2.5-4.3 0-7.9-1.4-10.3-4-2.7-3-3.8-7.4-3.3-12.7.9-9.4 7.7-16.6 15.8-16.6 6.6 0 11.6 4.6 12.4 10.9h1.5l.6-10.6-.3-.2a26.4 26.4 0 0 0-14.2-4.2 23 23 0 0 0-23.5 20.8c-.6 5.8 1 11 4.3 14.7 3.5 3.8 9 6 15.3 6 6 0 13.1-2.1 17.8-5.2l.7-.5-.4-.4c-.3-.4-.8-.9-.8-1.4v-.6l1-10.6M93.8 131.6v-1.4c1.2-.2 1.9-.5 2.3-2.7l.2-1.5 2.8-29 .1-1.7c0-2.1-.6-2.6-1.7-3l.2-1.2h12.9c2.6 0 4 .1 5.5.5 4.5.9 7.9 4.6 7.9 8.3v.7c-.4 3.1-2.2 6-4.9 7.6l-2.4 1.2c.6 0 1 .2 1.5.4a10 10 0 0 1 7.3 10.8 11 11 0 0 1-3.2 6.7 13 13 0 0 1-4.4 3c-2.3 1-4.6 1.3-8.3 1.3H94Zm11.1-20.1-1.5 16.5h5.3c5.8 0 9.7-3 10.1-8v-1c0-1.8-.5-3.4-1.7-4.7-1.6-1.8-4.3-2.8-7.8-2.8H105m12-10v-.7c0-1.6-.5-3-1.5-4a7 7 0 0 0-5.2-2.1H106l-1.3 13.2h4.2c4.3 0 7.6-2.6 8-6.5m112-6 1.6 5.6 2.7-5.7c.5-1.1 0-2.1-2.1-2.1s-2.4 1.3-2.2 2.2m-21.9 2c-.7-1.7-1-3-3-4.2V93l.5-1.7h10.7v1.9c-1.2.3-1.3.8-1.4 1.4 0 .4.9 2.8 1.2 4l6.3 20.2 4.5-8.5-4-13.1c-.8-2.6-1.7-3.4-3-4.1l.7-1.8H241l.1 1.8c-1.3.5-2.5 1.8-3.8 4l-5 10 3.4 10.7 10-21.7c.5-1 .5-1 .5-1.5 0-.8-.2-1.1-1.7-1.4l.4-2h19.7l20 25.8a10054.3 10054.3 0 0 0 1.8-20.3 8 8 0 0 0-.3-2.7c-.2-.5-.6-.9-1.7-1.3l.3-1.4h8.8l.2 1.4c-2.2.7-2.8 1.4-3.2 5.4L287 133l-25.4-33-2.4 25.3-.1 1.9c0 .9 0 1.3.3 1.8s.6.8 1.6 1.2l-.3 1.4h-8.3l-.3-1.4c2.3-1 2.7-1.9 3-5.4l2.5-26.4c.4-4-1.7-5-3.3-5s-3.3 1.3-4.8 4.6l-16.1 34.8s-4.7-13.8-5.8-16.6c-1.4 2.8-9.4 16.6-9.4 16.6l-11.2-35.4m52.5-31.3-1.3 13.7c-.4 3.4-1 4.2-2.9 5l.3 1.3H281l1.8-5.4-1.2-.7a5 5 0 0 1-2.4 1.6c-1.5.4-2.6.6-5 .6h-9c.2-1 1.5-15 1.5-15.9h5.9c2 0 2.6.2 3.2.5.5.2 1 .8 1.2 1.5l1.4-.2.7-7.4-1.4-.2c-.4.8-.5 1-1.4 1.4-.7.5-1.4.5-3.4.5h-5.8l1.2-12.5h8.8c1.3 0 2.7.2 3.4.6.6.2.8.6 1.1 1.6l1.4-.1.6-6h-24l-.6 1.3c1.8.8 2.2 1.7 1.9 5.1l-1 10.3-.3 3.4Zm-78.4 62.2c8 0 14.5-7.1 15.5-16.7.5-5.3-.8-10-3.6-13a11.6 11.6 0 0 0-8.8-3.9c-8.1 0-14.4 7-15.3 16.6a17 17 0 0 0 3.5 13.2c2.2 2.4 5.2 3.8 8.7 3.8m19-31.1c3.4 3.8 5 9 4.5 14.4a23.3 23.3 0 0 1-23.8 20.6c-6.2 0-11.7-2.3-15.4-6.4-3.4-3.7-5-8.8-4.5-14.3a23.5 23.5 0 0 1 23.7-20.7c6.2 0 11.7 2.3 15.4 6.4M113 66.3l-1.3 13.5c-.4 3.4-1 4.2-2.9 5l.3 1.3h25.3l1.8-5.4-1.2-.7a5 5 0 0 1-2.4 1.5 14 14 0 0 1-5 .7h-9c.2-1 1.5-15 1.5-15.9h5.8c2 0 2.7.2 3.3.5.5.1 1 .8 1.2 1.5l1.4-.2.7-7.4-1.4-.2c-.4.7-.6 1-1.4 1.4-.8.4-1.5.5-3.4.5h-5.8l1.2-12.6h8.7c1.4 0 2.8.3 3.5.6.6.3.8.7 1 1.7l1.5-.1.6-6h-24l-.6 1.3c1.7.8 2.2 1.7 1.9 5.1l-1 10H97.8l-.3 1.5c1.4.6 2 1.4 2 3.2v1l-1.1 12.7-.3.2c-4.8 2.3-6.3 2.7-9.6 2.7-4.4 0-8.2-1.5-10.8-4.3-2.8-3.2-4-8.9-3.5-14.4 1-9.9 8.1-17.5 16.7-17.5a13 13 0 0 1 13 11.1h1.5l.7-10.7-.3-.3c-5.2-3-9.6-4.3-15-4.3-13 0-23.5 9.2-24.7 21.8-.5 6.1 1 12.6 4.6 16.5 3.7 4 9.5 6.3 16.1 6.3 6.2 0 13.7-2.2 18.7-5.4l.7-.5-.4-.5c-.3-.3-.9-.9-.8-1.4v-.6l1-11.5c0-2 5-1.7 6.9-1.7m90.7 78.6c-.2 1.9.4 3.6 1.6 5a7.5 7.5 0 0 0 5.5 2.2c2 0 3.7-.4 5.4-1.3v-.1q.6-3.1.4-3.2h-.2v.1c-1.6 2.7-3.8 3-4.8 3-1.4 0-2.7-.5-3.5-1.4-1-1-1.4-2.7-1.2-4.6.3-3.3 2.6-5.5 5.8-5.5a4 4 0 0 1 4 2.9v.2h.3q.2-.1.3-3.4v-.1l-.1-.1c-1.6-.7-3-1-4.8-1-5.2 0-8.3 3.6-8.7 7.3M228 139c-2.7 0-4.7 2.2-5 5.5v1c0 2 .6 3.2 1.2 3.8.7.8 1.6 1.2 2.7 1.2 2.7 0 4.6-2.2 5-5.5.1-2-.2-3.8-1.2-4.8a3.5 3.5 0 0 0-2.7-1.2m-8.3 5.7a8.3 8.3 0 0 1 8.6-7.2c2 0 4 1 5.3 2.3a6.4 6.4 0 0 1 1.5 5.1c-.5 4.8-4.7 7.3-8.5 7.2-2.2 0-4.1-.9-5.4-2.3a6.6 6.6 0 0 1-1.5-5.1m22.2-5.8Zm.8-1.2v.5c-.2.1-.4.4-.4.7l-1.1 11.5h2c2.2 0 2.8 0 3.5-1.1l.4.2-.7 2.4h-8.7l-.1-.4c.3-.2.5-.4.5-.7l1.2-12c0-.3-.1-.5-.4-.6l.1-.5h3.7Zm8.5 0-.1.5c.3.1.4.3.3.7l-1.1 11.9c0 .3-.2.5-.6.7l.1.4h8.7l.8-2.4-.4-.2c-.7 1-1.3 1-3.5 1.1h-2l1-11.5c.1-.3.2-.6.5-.7v-.5H251Zm20.2 0h-8l-.2.5c.3.1.4.4.4.7l-1.1 11.9c0 .3-.3.5-.6.7l-.7.4h9.7l.7-2.4-.4-.2c-.8 1-1.5 1-3 1.1H265.3l.6-5.6h2.8c.2 0 .4.3.5.5h.4l.2-2.2-.4-.1c-.1.1-.4.4-.6.4h-2.8l.4-4.2h3.2c.8 0 1.1.2 1.4.6l.3.6.2-2.7h-.2Zm3 7.2c-.3 1.9.3 3.6 1.5 5a7.6 7.6 0 0 0 5.6 2.2c1.7 0 4.7-.6 6.4-1.5l.3-.1-.3-.2-.1-.7.3-3c0-.3.2-.5.5-.7l.7-.4H284l.6.4c.3.1.4.3.4.6l-.4 3.5c-.8.5-1.9.6-2.4.6-1.5 0-2.7-.5-3.5-1.4a6 6 0 0 1-1.2-4.6c.3-3.3 2.6-5.6 5.7-5.6.4 0 3.3.1 4 3h.5l.2-3.4h-.2c-1.6-.8-3.1-1.1-4.7-1.1a8.4 8.4 0 0 0-8.8 7.4m26.5-7.2h-8.2l-.1.5c.3.1.5.3.4.6l-1.1 12c0 .3-.3.5-.6.7l-.8.4h9.8l.7-2.5-.4-.2c-.8 1.2-1.5 1.2-3 1.2H294.6l.6-5.6h2.8c.2 0 .4.2.5.4h.4l.2-2.1-.4-.2c-.1.2-.4.5-.6.5h-2.8l.4-4.2h3.2c.8 0 1 .2 1.4.6l.3.6.2-2.7h-.2Z" style="fill:#fff"/></g></svg>